<svg width="720" height="480" viewBox="0 0 720 480" fill="none" xmlns="http://www.w3.org/2000/svg">
<g style="mix-blend-mode:darken" opacity="0.8">
<rect width="48" height="48" transform="translate(40 104)" fill="#ECD437"/>
</g>
<g style="mix-blend-mode:darken" opacity="0.8">
<rect width="48" height="48" transform="translate(100 104)" fill="#ECD437"/>
</g>
<g style="mix-blend-mode:darken" opacity="0.8">
<rect width="48" height="48" transform="translate(76 177)" fill="#ECD437"/>
</g>
<g style="mix-blend-mode:darken" opacity="0.8">
<rect width="48" height="48" transform="translate(210 83)" fill="#ECD437"/>
</g>
<g style="mix-blend-mode:darken" opacity="0.8">
<rect width="48" height="48" transform="translate(375 72)" fill="#ECD437"/>
</g>
<g style="mix-blend-mode:darken" opacity="0.8">
<rect width="48" height="48" transform="translate(375 136)" fill="#ECD437"/>
</g>
<g style="mix-blend-mode:darken" opacity="0.8">
<rect width="48" height="48" transform="translate(435 128)" fill="#ECD437"/>
</g>
<g style="mix-blend-mode:darken" opacity="0.8">
<rect width="48" height="48" transform="translate(554 96)" fill="#ECD437"/>
</g>
<g style="mix-blend-mode:darken" opacity="0.8">
<rect width="48" height="48" transform="translate(591 187)" fill="#ECD437"/>
</g>
<g style="mix-blend-mode:darken" opacity="0.8">
<rect width="48" height="48" transform="translate(435 184)" fill="#ECD437"/>
</g>
<g style="mix-blend-mode:darken" opacity="0.8">
<rect width="48" height="48" transform="translate(265 83)" fill="#ECD437"/>
</g>
<g style="mix-blend-mode:darken" opacity="0.8">
<rect width="48" height="48" transform="translate(435 72)" fill="#ECD437"/>
</g>
<g style="mix-blend-mode:darken" opacity="0.8">
<rect width="48" height="48" transform="translate(211 138.5)" fill="#ECD437"/>
</g>
<g style="mix-blend-mode:darken" opacity="0.8">
<rect width="48" height="48" transform="translate(211 201)" fill="#ECD437"/>
</g>
<g style="mix-blend-mode:darken" opacity="0.8">
<rect width="48" height="48" transform="translate(211 257)" fill="#ECD437"/>
</g>
<g style="mix-blend-mode:darken" opacity="0.8">
<rect width="48" height="48" transform="translate(265 140)" fill="#ECD437"/>
</g>
<g style="mix-blend-mode:darken" opacity="0.8">
<rect width="48" height="48" transform="translate(270 201)" fill="#ECD437"/>
</g>
<g style="mix-blend-mode:darken" opacity="0.8">
<rect width="48" height="48" transform="translate(270 201)" fill="#ECD437"/>
</g>
<g opacity="0.6">
<path d="M43.648 52.536C43.52 52.536 43.4133 52.4987 43.328 52.424C43.1573 52.2854 43.1093 52.1094 43.184 51.896C43.184 51.8854 43.2213 51.7574 43.296 51.512C43.3813 51.2667 43.4773 50.9894 43.584 50.68C43.6373 50.4987 43.6853 50.344 43.728 50.216C43.7707 50.0774 43.808 49.9547 43.84 49.848C43.552 49.9547 43.2 50.088 42.784 50.248C42.368 50.3974 41.9307 50.5574 41.472 50.728C41.024 50.8987 40.5867 51.064 40.16 51.224C40.0427 51.2667 39.9253 51.2614 39.808 51.208C39.68 51.144 39.5893 51.048 39.536 50.92C39.4933 50.8027 39.504 50.6854 39.568 50.568C39.6213 50.44 39.712 50.3494 39.84 50.296C40.32 50.1254 40.816 49.9494 41.328 49.768C41.84 49.576 42.3147 49.4 42.752 49.24C43.1893 49.0694 43.5467 48.9307 43.824 48.824C44.1013 48.7174 44.24 48.664 44.24 48.664C44.2933 48.6534 44.3467 48.648 44.4 48.648C44.4533 48.6374 44.5013 48.6427 44.544 48.664C44.6933 48.6854 44.8 48.7707 44.864 48.92C44.9173 49.0054 44.9387 49.1174 44.928 49.256C44.928 49.384 44.9013 49.5707 44.848 49.816C44.816 49.9547 44.7733 50.1094 44.72 50.28C44.6773 50.44 44.6187 50.6267 44.544 50.84C44.5333 50.8827 44.5227 50.92 44.512 50.952C44.5013 50.984 44.4907 51.0214 44.48 51.064C44.9067 50.8294 45.4293 50.584 46.048 50.328C46.1653 50.2747 46.2827 50.2747 46.4 50.328C46.528 50.3707 46.6133 50.4507 46.656 50.568C46.72 50.6854 46.7253 50.808 46.672 50.936C46.6187 51.064 46.5333 51.1547 46.416 51.208C45.936 51.4214 45.504 51.624 45.12 51.816C44.7467 52.008 44.448 52.1627 44.224 52.28C44 52.3974 43.888 52.456 43.888 52.456C43.824 52.5094 43.744 52.536 43.648 52.536Z" fill="#2C393A"/>
<path d="M47.4987 53.448C47.4241 53.448 47.3494 53.4374 47.2747 53.416C47.2001 53.4054 47.1254 53.3947 47.0507 53.384C46.8587 53.3307 46.7254 53.2187 46.6507 53.048C46.5547 52.8347 46.5547 52.5787 46.6507 52.28C46.7574 51.9707 46.9281 51.576 47.1627 51.096C47.2054 51.0107 47.2481 50.9147 47.2907 50.808C47.3441 50.7014 47.3921 50.6 47.4347 50.504C47.2961 50.5574 47.1467 50.648 46.9867 50.776C46.8374 50.8934 46.6827 51.016 46.5227 51.144C46.4161 51.2187 46.2987 51.2507 46.1707 51.24C46.0321 51.2187 45.9201 51.16 45.8347 51.064C45.7601 50.9574 45.7334 50.84 45.7547 50.712C45.7654 50.584 45.8187 50.472 45.9147 50.376C46.0641 50.2694 46.2187 50.152 46.3787 50.024C46.5494 49.896 46.7201 49.7894 46.8907 49.704C47.3281 49.48 47.7281 49.4214 48.0907 49.528C48.2614 49.56 48.3894 49.6667 48.4747 49.848C48.5601 50.0187 48.5547 50.232 48.4587 50.488C48.3734 50.744 48.2241 51.0907 48.0107 51.528C47.9574 51.656 47.8987 51.784 47.8347 51.912C47.7814 52.04 47.7281 52.1627 47.6747 52.28C47.6641 52.3227 47.6481 52.36 47.6267 52.392C47.6161 52.424 47.6054 52.456 47.5947 52.488C47.8187 52.456 48.1441 52.344 48.5707 52.152C49.0081 51.9494 49.5947 51.5547 50.3307 50.968C50.7254 50.6587 51.0827 50.36 51.4027 50.072C51.7227 49.7734 51.9787 49.528 52.1707 49.336C52.3627 49.144 52.4587 49.048 52.4587 49.048C52.5867 48.8987 52.7414 48.8507 52.9227 48.904C53.0081 48.9147 53.0774 48.952 53.1307 49.016C53.1841 49.0694 53.2267 49.1227 53.2587 49.176C53.3334 49.3254 53.3387 49.5014 53.2747 49.704C53.2214 49.896 53.1041 50.2107 52.9227 50.648C52.8587 50.7867 52.7947 50.9254 52.7307 51.064C52.6774 51.2027 52.6241 51.3307 52.5707 51.448C52.5601 51.4907 52.5494 51.528 52.5387 51.56C52.5387 51.5814 52.5334 51.6027 52.5227 51.624C52.7254 51.592 52.9387 51.5067 53.1627 51.368C53.3974 51.2187 53.6214 51.0534 53.8347 50.872C54.0587 50.6907 54.2454 50.536 54.3947 50.408C54.5014 50.312 54.6187 50.2694 54.7467 50.28C54.8747 50.2907 54.9867 50.344 55.0827 50.44C55.1681 50.5467 55.2054 50.664 55.1947 50.792C55.1947 50.92 55.1414 51.032 55.0347 51.128C54.7041 51.416 54.3627 51.688 54.0107 51.944C53.6694 52.2 53.3227 52.392 52.9707 52.52C52.6294 52.6374 52.2827 52.6534 51.9307 52.568C51.7601 52.4934 51.6374 52.3867 51.5627 52.248C51.4987 52.0987 51.4774 51.9334 51.4987 51.752C51.5307 51.5707 51.5947 51.3467 51.6907 51.08C51.5734 51.1867 51.4507 51.288 51.3227 51.384C51.2054 51.48 51.0774 51.5867 50.9387 51.704C49.4667 52.8667 48.3201 53.448 47.4987 53.448Z" fill="#2C393A"/>
<path d="M56.8624 52.056C56.809 52.056 56.7664 52.0507 56.7344 52.04C56.5637 51.9974 56.441 51.9334 56.3664 51.848C56.3024 51.752 56.2597 51.6774 56.2384 51.624C56.1637 51.3894 56.1904 51.1494 56.3184 50.904C56.4464 50.648 56.6117 50.3814 56.8144 50.104C56.8784 50.0187 56.937 49.928 56.9904 49.832C57.0544 49.7254 57.1077 49.6347 57.1504 49.56C57.161 49.5494 57.177 49.528 57.1984 49.496C57.1344 49.5174 57.0544 49.5494 56.9584 49.592C56.873 49.6347 56.7717 49.6987 56.6544 49.784C56.4624 49.9014 56.2597 50.056 56.0464 50.248C55.833 50.4294 55.6144 50.6214 55.3904 50.824C55.337 50.8667 55.2784 50.9147 55.2144 50.968C55.161 51.0214 55.1077 51.0747 55.0544 51.128C54.9584 51.2134 54.8464 51.256 54.7184 51.256C54.5797 51.2454 54.4677 51.1867 54.3824 51.08C54.2864 50.984 54.2437 50.872 54.2544 50.744C54.265 50.6054 54.3184 50.4934 54.4144 50.408C54.4677 50.3547 54.5264 50.3014 54.5904 50.248C54.6437 50.1947 54.697 50.1467 54.7504 50.104C55.0917 49.7947 55.4277 49.512 55.7584 49.256C56.089 48.9894 56.4144 48.7867 56.7344 48.648C57.0544 48.5094 57.3637 48.4827 57.6624 48.568C57.8437 48.6107 57.9717 48.6854 58.0464 48.792C58.1317 48.888 58.1797 48.9734 58.1904 49.048C58.2864 49.2827 58.265 49.5334 58.1264 49.8C57.9877 50.056 57.8117 50.3387 57.5984 50.648C57.577 50.6694 57.5504 50.7067 57.5184 50.76C57.497 50.8027 57.4704 50.8454 57.4384 50.888C57.5984 50.824 57.8064 50.744 58.0624 50.648C58.3184 50.552 58.6277 50.4347 58.9904 50.296C59.129 50.2534 59.257 50.264 59.3744 50.328C59.4917 50.3814 59.5717 50.472 59.6144 50.6C59.6677 50.7174 59.6624 50.84 59.5984 50.968C59.545 51.0854 59.4597 51.1707 59.3424 51.224C59.001 51.3414 58.6917 51.448 58.4144 51.544C58.137 51.64 57.9024 51.7254 57.7104 51.8C57.6037 51.8427 57.5077 51.88 57.4224 51.912C57.3477 51.9334 57.2784 51.9547 57.2144 51.976C57.1397 51.9974 57.0757 52.0187 57.0224 52.04C56.969 52.0507 56.9157 52.056 56.8624 52.056Z" fill="#2C393A"/>
<path d="M60.4206 53.448C60.346 53.448 60.2713 53.4374 60.1966 53.416C60.122 53.4054 60.0473 53.3947 59.9726 53.384C59.7806 53.3307 59.6473 53.2187 59.5726 53.048C59.4766 52.8347 59.4766 52.5787 59.5726 52.28C59.6793 51.9707 59.85 51.576 60.0846 51.096C60.1273 51.0107 60.17 50.9147 60.2126 50.808C60.266 50.7014 60.314 50.6 60.3566 50.504C60.218 50.5574 60.0686 50.648 59.9086 50.776C59.7593 50.8934 59.6046 51.016 59.4446 51.144C59.338 51.2187 59.2206 51.2507 59.0926 51.24C58.954 51.2187 58.842 51.16 58.7566 51.064C58.682 50.9574 58.6553 50.84 58.6766 50.712C58.6873 50.584 58.7406 50.472 58.8366 50.376C58.986 50.2694 59.1406 50.152 59.3006 50.024C59.4713 49.896 59.642 49.7894 59.8126 49.704C60.25 49.48 60.65 49.4214 61.0126 49.528C61.1833 49.56 61.3113 49.6667 61.3966 49.848C61.482 50.0187 61.4766 50.232 61.3806 50.488C61.2953 50.744 61.146 51.0907 60.9326 51.528C60.8793 51.656 60.8206 51.784 60.7566 51.912C60.7033 52.04 60.65 52.1627 60.5966 52.28C60.586 52.3227 60.57 52.36 60.5486 52.392C60.538 52.424 60.5273 52.456 60.5166 52.488C60.7406 52.456 61.066 52.344 61.4926 52.152C61.93 51.9494 62.5166 51.5547 63.2526 50.968C63.6473 50.6587 64.0046 50.36 64.3246 50.072C64.6446 49.7734 64.9006 49.528 65.0926 49.336C65.2846 49.144 65.3806 49.048 65.3806 49.048C65.5086 48.8987 65.6633 48.8507 65.8446 48.904C65.93 48.9147 65.9993 48.952 66.0526 49.016C66.106 49.0694 66.1486 49.1227 66.1806 49.176C66.2553 49.3254 66.2606 49.5014 66.1966 49.704C66.1433 49.896 66.026 50.2107 65.8446 50.648C65.7806 50.7867 65.7166 50.9254 65.6526 51.064C65.5993 51.2027 65.546 51.3307 65.4926 51.448C65.482 51.4907 65.4713 51.528 65.4606 51.56C65.4606 51.5814 65.4553 51.6027 65.4446 51.624C65.6473 51.592 65.8606 51.5067 66.0846 51.368C66.3193 51.2187 66.5433 51.0534 66.7566 50.872C66.9806 50.6907 67.1673 50.536 67.3166 50.408C67.4233 50.312 67.5406 50.2694 67.6686 50.28C67.7966 50.2907 67.9086 50.344 68.0046 50.44C68.09 50.5467 68.1273 50.664 68.1166 50.792C68.1166 50.92 68.0633 51.032 67.9566 51.128C67.626 51.416 67.2846 51.688 66.9326 51.944C66.5913 52.2 66.2446 52.392 65.8926 52.52C65.5513 52.6374 65.2046 52.6534 64.8526 52.568C64.682 52.4934 64.5593 52.3867 64.4846 52.248C64.4206 52.0987 64.3993 51.9334 64.4206 51.752C64.4526 51.5707 64.5166 51.3467 64.6126 51.08C64.4953 51.1867 64.3726 51.288 64.2446 51.384C64.1273 51.48 63.9993 51.5867 63.8606 51.704C62.3886 52.8667 61.242 53.448 60.4206 53.448Z" fill="#2C393A"/>
<path d="M68.9362 53.448C68.8616 53.448 68.7869 53.4374 68.7122 53.416C68.6376 53.4054 68.5629 53.3947 68.4882 53.384C68.2962 53.3307 68.1629 53.2187 68.0882 53.048C67.9922 52.8347 67.9922 52.5787 68.0882 52.28C68.1949 51.9707 68.3656 51.576 68.6002 51.096C68.6429 51.0107 68.6856 50.9147 68.7282 50.808C68.7816 50.7014 68.8296 50.6 68.8722 50.504C68.7336 50.5574 68.5842 50.648 68.4242 50.776C68.2749 50.8934 68.1202 51.016 67.9602 51.144C67.8536 51.2187 67.7362 51.2507 67.6082 51.24C67.4696 51.2187 67.3576 51.16 67.2722 51.064C67.1976 50.9574 67.1709 50.84 67.1922 50.712C67.2029 50.584 67.2562 50.472 67.3522 50.376C67.5016 50.2694 67.6562 50.152 67.8162 50.024C67.9869 49.896 68.1576 49.7894 68.3282 49.704C68.7656 49.48 69.1656 49.4214 69.5282 49.528C69.6989 49.56 69.8269 49.6667 69.9122 49.848C69.9976 50.0187 69.9922 50.232 69.8962 50.488C69.8109 50.744 69.6616 51.0907 69.4482 51.528C69.3949 51.656 69.3362 51.784 69.2722 51.912C69.2189 52.04 69.1656 52.1627 69.1122 52.28C69.1016 52.3227 69.0856 52.36 69.0642 52.392C69.0536 52.424 69.0429 52.456 69.0322 52.488C69.2562 52.456 69.5816 52.344 70.0082 52.152C70.4456 51.9494 71.0322 51.5547 71.7682 50.968C72.1629 50.6587 72.5202 50.36 72.8402 50.072C73.1602 49.7734 73.4162 49.528 73.6082 49.336C73.8002 49.144 73.8963 49.048 73.8963 49.048C74.0243 48.8987 74.1789 48.8507 74.3603 48.904C74.4456 48.9147 74.5149 48.952 74.5682 49.016C74.6216 49.0694 74.6643 49.1227 74.6963 49.176C74.7709 49.3254 74.7762 49.5014 74.7122 49.704C74.6589 49.896 74.5416 50.2107 74.3603 50.648C74.2963 50.7867 74.2323 50.9254 74.1683 51.064C74.1149 51.2027 74.0616 51.3307 74.0083 51.448C73.9976 51.4907 73.9869 51.528 73.9762 51.56C73.9762 51.5814 73.9709 51.6027 73.9603 51.624C74.1629 51.592 74.3763 51.5067 74.6003 51.368C74.8349 51.2187 75.0589 51.0534 75.2723 50.872C75.4963 50.6907 75.6829 50.536 75.8323 50.408C75.9389 50.312 76.0562 50.2694 76.1842 50.28C76.3122 50.2907 76.4242 50.344 76.5202 50.44C76.6056 50.5467 76.6429 50.664 76.6323 50.792C76.6323 50.92 76.5789 51.032 76.4723 51.128C76.1416 51.416 75.8003 51.688 75.4482 51.944C75.1069 52.2 74.7602 52.392 74.4082 52.52C74.0669 52.6374 73.7203 52.6534 73.3683 52.568C73.1976 52.4934 73.0749 52.3867 73.0003 52.248C72.9363 52.0987 72.9149 51.9334 72.9362 51.752C72.9682 51.5707 73.0323 51.3467 73.1283 51.08C73.0109 51.1867 72.8883 51.288 72.7603 51.384C72.6429 51.48 72.5149 51.5867 72.3763 51.704C70.9043 52.8667 69.7576 53.448 68.9362 53.448Z" fill="#2C393A"/>
<path d="M81.7879 52.376C81.7132 52.376 81.6439 52.3654 81.5799 52.344C81.3772 52.3014 81.2332 52.1787 81.1479 51.976C81.0839 51.7947 81.0999 51.592 81.1959 51.368C81.3025 51.144 81.4412 50.8934 81.6119 50.616C81.6759 50.52 81.7345 50.424 81.7879 50.328C81.8519 50.2214 81.9052 50.1254 81.9479 50.04C81.9692 50.008 81.9852 49.9814 81.9959 49.96C82.0065 49.928 82.0172 49.9014 82.0279 49.88C81.7079 49.8267 81.3345 49.816 80.9079 49.848C80.4919 49.8694 80.0225 49.9494 79.4999 50.088C79.0412 50.2054 78.5452 50.36 78.0119 50.552C77.4892 50.7334 76.9345 50.952 76.3479 51.208C76.2305 51.2507 76.1132 51.2507 75.9959 51.208C75.8785 51.1654 75.7932 51.0854 75.7399 50.968C75.6759 50.8507 75.6705 50.728 75.7239 50.6C75.7772 50.4614 75.8625 50.3707 75.9799 50.328C76.5772 50.0614 77.1479 49.832 77.6919 49.64C78.2465 49.4374 78.7692 49.2774 79.2599 49.16C80.5719 48.8294 81.6439 48.776 82.4759 49C82.7212 49.064 82.8919 49.2134 82.9879 49.448C83.0839 49.6827 83.0625 49.944 82.9239 50.232C82.7852 50.52 82.6199 50.8187 82.4279 51.128C82.4172 51.1494 82.4012 51.176 82.3799 51.208C82.3585 51.24 82.3372 51.2774 82.3159 51.32C82.5612 51.2667 82.9239 51.16 83.4039 51C83.8839 50.84 84.5452 50.6054 85.3879 50.296C85.5052 50.2534 85.6225 50.264 85.7399 50.328C85.8679 50.3814 85.9532 50.472 85.9959 50.6C86.0492 50.7174 86.0492 50.84 85.9959 50.968C85.9425 51.0854 85.8465 51.1707 85.7079 51.224C85.2172 51.3947 84.7692 51.5494 84.3639 51.688C83.9585 51.8267 83.5959 51.944 83.2759 52.04C82.8492 52.168 82.5239 52.2587 82.2999 52.312C82.0759 52.3547 81.9052 52.376 81.7879 52.376Z" fill="#2C393A"/>
<path d="M98.991 52.376C98.9163 52.376 98.847 52.3654 98.783 52.344C98.5803 52.3014 98.4363 52.1787 98.351 51.976C98.287 51.7947 98.303 51.592 98.399 51.368C98.5057 51.144 98.6443 50.8934 98.815 50.616C98.879 50.52 98.9377 50.424 98.991 50.328C99.055 50.2214 99.1083 50.1254 99.151 50.04C99.1723 50.008 99.1883 49.9814 99.199 49.96C99.2097 49.928 99.2203 49.9014 99.231 49.88C98.911 49.8267 98.5377 49.816 98.111 49.848C97.695 49.8694 97.2257 49.9494 96.703 50.088C96.2443 50.2054 95.7483 50.36 95.215 50.552C94.6923 50.7334 94.1377 50.952 93.551 51.208C93.4337 51.2507 93.3163 51.2507 93.199 51.208C93.0817 51.1654 92.9963 51.0854 92.943 50.968C92.879 50.8507 92.8737 50.728 92.927 50.6C92.9803 50.4614 93.0657 50.3707 93.183 50.328C93.7803 50.0614 94.351 49.832 94.895 49.64C95.4497 49.4374 95.9723 49.2774 96.463 49.16C97.775 48.8294 98.847 48.776 99.679 49C99.9243 49.064 100.095 49.2134 100.191 49.448C100.287 49.6827 100.266 49.944 100.127 50.232C99.9883 50.52 99.823 50.8187 99.631 51.128C99.6203 51.1494 99.6043 51.176 99.583 51.208C99.5617 51.24 99.5403 51.2774 99.519 51.32C99.7643 51.2667 100.127 51.16 100.607 51C101.087 50.84 101.748 50.6054 102.591 50.296C102.708 50.2534 102.826 50.264 102.943 50.328C103.071 50.3814 103.156 50.472 103.199 50.6C103.252 50.7174 103.252 50.84 103.199 50.968C103.146 51.0854 103.05 51.1707 102.911 51.224C102.42 51.3947 101.972 51.5494 101.567 51.688C101.162 51.8267 100.799 51.944 100.479 52.04C100.052 52.168 99.727 52.2587 99.503 52.312C99.279 52.3547 99.1083 52.376 98.991 52.376Z" fill="#2C393A"/>
</g>
<g opacity="0.6">
<path d="M210.616 52.376C210.541 52.376 210.472 52.3654 210.408 52.344C210.205 52.3014 210.061 52.1787 209.976 51.976C209.912 51.7947 209.928 51.592 210.024 51.368C210.131 51.144 210.269 50.8934 210.44 50.616C210.504 50.52 210.563 50.424 210.616 50.328C210.68 50.2214 210.733 50.1254 210.776 50.04C210.797 50.008 210.813 49.9814 210.824 49.96C210.835 49.928 210.845 49.9014 210.856 49.88C210.536 49.8267 210.163 49.816 209.736 49.848C209.32 49.8694 208.851 49.9494 208.328 50.088C207.869 50.2054 207.373 50.36 206.84 50.552C206.317 50.7334 205.763 50.952 205.176 51.208C205.059 51.2507 204.941 51.2507 204.824 51.208C204.707 51.1654 204.621 51.0854 204.568 50.968C204.504 50.8507 204.499 50.728 204.552 50.6C204.605 50.4614 204.691 50.3707 204.808 50.328C205.405 50.0614 205.976 49.832 206.52 49.64C207.075 49.4374 207.597 49.2774 208.088 49.16C209.4 48.8294 210.472 48.776 211.304 49C211.549 49.064 211.72 49.2134 211.816 49.448C211.912 49.6827 211.891 49.944 211.752 50.232C211.613 50.52 211.448 50.8187 211.256 51.128C211.245 51.1494 211.229 51.176 211.208 51.208C211.187 51.24 211.165 51.2774 211.144 51.32C211.389 51.2667 211.752 51.16 212.232 51C212.712 50.84 213.373 50.6054 214.216 50.296C214.333 50.2534 214.451 50.264 214.568 50.328C214.696 50.3814 214.781 50.472 214.824 50.6C214.877 50.7174 214.877 50.84 214.824 50.968C214.771 51.0854 214.675 51.1707 214.536 51.224C214.045 51.3947 213.597 51.5494 213.192 51.688C212.787 51.8267 212.424 51.944 212.104 52.04C211.677 52.168 211.352 52.2587 211.128 52.312C210.904 52.3547 210.733 52.376 210.616 52.376Z" fill="#2C393A"/>
<path d="M218.07 52.536C217.942 52.536 217.835 52.4987 217.75 52.424C217.579 52.2854 217.531 52.1094 217.606 51.896C217.606 51.8854 217.643 51.7574 217.718 51.512C217.803 51.2667 217.899 50.9894 218.006 50.68C218.059 50.4987 218.107 50.344 218.15 50.216C218.193 50.0774 218.23 49.9547 218.262 49.848C217.974 49.9547 217.622 50.088 217.206 50.248C216.79 50.3974 216.353 50.5574 215.894 50.728C215.446 50.8987 215.009 51.064 214.582 51.224C214.465 51.2667 214.347 51.2614 214.23 51.208C214.102 51.144 214.011 51.048 213.958 50.92C213.915 50.8027 213.926 50.6854 213.99 50.568C214.043 50.44 214.134 50.3494 214.262 50.296C214.742 50.1254 215.238 49.9494 215.75 49.768C216.262 49.576 216.737 49.4 217.174 49.24C217.611 49.0694 217.969 48.9307 218.246 48.824C218.523 48.7174 218.662 48.664 218.662 48.664C218.715 48.6534 218.769 48.648 218.822 48.648C218.875 48.6374 218.923 48.6427 218.966 48.664C219.115 48.6854 219.222 48.7707 219.286 48.92C219.339 49.0054 219.361 49.1174 219.35 49.256C219.35 49.384 219.323 49.5707 219.27 49.816C219.238 49.9547 219.195 50.1094 219.142 50.28C219.099 50.44 219.041 50.6267 218.966 50.84C218.955 50.8827 218.945 50.92 218.934 50.952C218.923 50.984 218.913 51.0214 218.902 51.064C219.329 50.8294 219.851 50.584 220.47 50.328C220.587 50.2747 220.705 50.2747 220.822 50.328C220.95 50.3707 221.035 50.4507 221.078 50.568C221.142 50.6854 221.147 50.808 221.094 50.936C221.041 51.064 220.955 51.1547 220.838 51.208C220.358 51.4214 219.926 51.624 219.542 51.816C219.169 52.008 218.87 52.1627 218.646 52.28C218.422 52.3974 218.31 52.456 218.31 52.456C218.246 52.5094 218.166 52.536 218.07 52.536Z" fill="#2C393A"/>
<path d="M224.289 52.536C224.161 52.536 224.054 52.4987 223.969 52.424C223.798 52.2854 223.75 52.1094 223.825 51.896C223.825 51.8854 223.862 51.7574 223.937 51.512C224.022 51.2667 224.118 50.9894 224.225 50.68C224.278 50.4987 224.326 50.344 224.369 50.216C224.411 50.0774 224.449 49.9547 224.481 49.848C224.193 49.9547 223.841 50.088 223.425 50.248C223.009 50.3974 222.571 50.5574 222.113 50.728C221.665 50.8987 221.227 51.064 220.801 51.224C220.683 51.2667 220.566 51.2614 220.449 51.208C220.321 51.144 220.23 51.048 220.177 50.92C220.134 50.8027 220.145 50.6854 220.209 50.568C220.262 50.44 220.353 50.3494 220.481 50.296C220.961 50.1254 221.457 49.9494 221.969 49.768C222.481 49.576 222.955 49.4 223.393 49.24C223.83 49.0694 224.187 48.9307 224.465 48.824C224.742 48.7174 224.881 48.664 224.881 48.664C224.934 48.6534 224.987 48.648 225.041 48.648C225.094 48.6374 225.142 48.6427 225.185 48.664C225.334 48.6854 225.441 48.7707 225.505 48.92C225.558 49.0054 225.579 49.1174 225.569 49.256C225.569 49.384 225.542 49.5707 225.489 49.816C225.457 49.9547 225.414 50.1094 225.361 50.28C225.318 50.44 225.259 50.6267 225.185 50.84C225.174 50.8827 225.163 50.92 225.153 50.952C225.142 50.984 225.131 51.0214 225.121 51.064C225.547 50.8294 226.07 50.584 226.689 50.328C226.806 50.2747 226.923 50.2747 227.041 50.328C227.169 50.3707 227.254 50.4507 227.297 50.568C227.361 50.6854 227.366 50.808 227.313 50.936C227.259 51.064 227.174 51.1547 227.057 51.208C226.577 51.4214 226.145 51.624 225.761 51.816C225.387 52.008 225.089 52.1627 224.865 52.28C224.641 52.3974 224.529 52.456 224.529 52.456C224.465 52.5094 224.385 52.536 224.289 52.536Z" fill="#2C393A"/>
<path d="M232.475 52.376C232.401 52.376 232.331 52.3654 232.267 52.344C232.065 52.3014 231.921 52.1787 231.835 51.976C231.771 51.7947 231.787 51.592 231.883 51.368C231.99 51.144 232.129 50.8934 232.299 50.616C232.363 50.52 232.422 50.424 232.475 50.328C232.539 50.2214 232.593 50.1254 232.635 50.04C232.657 50.008 232.673 49.9814 232.683 49.96C232.694 49.928 232.705 49.9014 232.715 49.88C232.395 49.8267 232.022 49.816 231.595 49.848C231.179 49.8694 230.71 49.9494 230.187 50.088C229.729 50.2054 229.233 50.36 228.699 50.552C228.177 50.7334 227.622 50.952 227.035 51.208C226.918 51.2507 226.801 51.2507 226.683 51.208C226.566 51.1654 226.481 51.0854 226.427 50.968C226.363 50.8507 226.358 50.728 226.411 50.6C226.465 50.4614 226.55 50.3707 226.667 50.328C227.265 50.0614 227.835 49.832 228.379 49.64C228.934 49.4374 229.457 49.2774 229.947 49.16C231.259 48.8294 232.331 48.776 233.163 49C233.409 49.064 233.579 49.2134 233.675 49.448C233.771 49.6827 233.75 49.944 233.611 50.232C233.473 50.52 233.307 50.8187 233.115 51.128C233.105 51.1494 233.089 51.176 233.067 51.208C233.046 51.24 233.025 51.2774 233.003 51.32C233.249 51.2667 233.611 51.16 234.091 51C234.571 50.84 235.233 50.6054 236.075 50.296C236.193 50.2534 236.31 50.264 236.427 50.328C236.555 50.3814 236.641 50.472 236.683 50.6C236.737 50.7174 236.737 50.84 236.683 50.968C236.63 51.0854 236.534 51.1707 236.395 51.224C235.905 51.3947 235.457 51.5494 235.051 51.688C234.646 51.8267 234.283 51.944 233.963 52.04C233.537 52.168 233.211 52.2587 232.987 52.312C232.763 52.3547 232.593 52.376 232.475 52.376Z" fill="#2C393A"/>
<path d="M238.409 52.056C238.356 52.056 238.313 52.0507 238.281 52.04C238.111 51.9974 237.988 51.9334 237.913 51.848C237.849 51.752 237.807 51.6774 237.785 51.624C237.711 51.3894 237.737 51.1494 237.865 50.904C237.993 50.648 238.159 50.3814 238.361 50.104C238.425 50.0187 238.484 49.928 238.537 49.832C238.601 49.7254 238.655 49.6347 238.697 49.56C238.708 49.5494 238.724 49.528 238.745 49.496C238.681 49.5174 238.601 49.5494 238.505 49.592C238.42 49.6347 238.319 49.6987 238.201 49.784C238.009 49.9014 237.807 50.056 237.593 50.248C237.38 50.4294 237.161 50.6214 236.937 50.824C236.884 50.8667 236.825 50.9147 236.761 50.968C236.708 51.0214 236.655 51.0747 236.601 51.128C236.505 51.2134 236.393 51.256 236.265 51.256C236.127 51.2454 236.015 51.1867 235.929 51.08C235.833 50.984 235.791 50.872 235.801 50.744C235.812 50.6054 235.865 50.4934 235.961 50.408C236.015 50.3547 236.073 50.3014 236.137 50.248C236.191 50.1947 236.244 50.1467 236.297 50.104C236.639 49.7947 236.975 49.512 237.305 49.256C237.636 48.9894 237.961 48.7867 238.281 48.648C238.601 48.5094 238.911 48.4827 239.209 48.568C239.391 48.6107 239.519 48.6854 239.593 48.792C239.679 48.888 239.727 48.9734 239.737 49.048C239.833 49.2827 239.812 49.5334 239.673 49.8C239.535 50.056 239.359 50.3387 239.145 50.648C239.124 50.6694 239.097 50.7067 239.065 50.76C239.044 50.8027 239.017 50.8454 238.985 50.888C239.145 50.824 239.353 50.744 239.609 50.648C239.865 50.552 240.175 50.4347 240.537 50.296C240.676 50.2534 240.804 50.264 240.921 50.328C241.039 50.3814 241.119 50.472 241.161 50.6C241.215 50.7174 241.209 50.84 241.145 50.968C241.092 51.0854 241.007 51.1707 240.889 51.224C240.548 51.3414 240.239 51.448 239.961 51.544C239.684 51.64 239.449 51.7254 239.257 51.8C239.151 51.8427 239.055 51.88 238.969 51.912C238.895 51.9334 238.825 51.9547 238.761 51.976C238.687 51.9974 238.623 52.0187 238.569 52.04C238.516 52.0507 238.463 52.056 238.409 52.056Z" fill="#2C393A"/>
<path d="M242.816 52.056C242.762 52.056 242.72 52.0507 242.688 52.04C242.517 51.9974 242.394 51.9334 242.32 51.848C242.256 51.752 242.213 51.6774 242.192 51.624C242.117 51.3894 242.144 51.1494 242.272 50.904C242.4 50.648 242.565 50.3814 242.768 50.104C242.832 50.0187 242.89 49.928 242.944 49.832C243.008 49.7254 243.061 49.6347 243.104 49.56C243.114 49.5494 243.13 49.528 243.152 49.496C243.088 49.5174 243.008 49.5494 242.912 49.592C242.826 49.6347 242.725 49.6987 242.608 49.784C242.416 49.9014 242.213 50.056 242 50.248C241.786 50.4294 241.568 50.6214 241.344 50.824C241.29 50.8667 241.232 50.9147 241.168 50.968C241.114 51.0214 241.061 51.0747 241.008 51.128C240.912 51.2134 240.8 51.256 240.672 51.256C240.533 51.2454 240.421 51.1867 240.336 51.08C240.24 50.984 240.197 50.872 240.208 50.744C240.218 50.6054 240.272 50.4934 240.368 50.408C240.421 50.3547 240.48 50.3014 240.544 50.248C240.597 50.1947 240.65 50.1467 240.704 50.104C241.045 49.7947 241.381 49.512 241.712 49.256C242.042 48.9894 242.368 48.7867 242.688 48.648C243.008 48.5094 243.317 48.4827 243.616 48.568C243.797 48.6107 243.925 48.6854 244 48.792C244.085 48.888 244.133 48.9734 244.144 49.048C244.24 49.2827 244.218 49.5334 244.08 49.8C243.941 50.056 243.765 50.3387 243.552 50.648C243.53 50.6694 243.504 50.7067 243.472 50.76C243.45 50.8027 243.424 50.8454 243.392 50.888C243.552 50.824 243.76 50.744 244.016 50.648C244.272 50.552 244.581 50.4347 244.944 50.296C245.082 50.2534 245.21 50.264 245.328 50.328C245.445 50.3814 245.525 50.472 245.568 50.6C245.621 50.7174 245.616 50.84 245.552 50.968C245.498 51.0854 245.413 51.1707 245.296 51.224C244.954 51.3414 244.645 51.448 244.368 51.544C244.09 51.64 243.856 51.7254 243.664 51.8C243.557 51.8427 243.461 51.88 243.376 51.912C243.301 51.9334 243.232 51.9547 243.168 51.976C243.093 51.9974 243.029 52.0187 242.976 52.04C242.922 52.0507 242.869 52.056 242.816 52.056Z" fill="#2C393A"/>
<path d="M248.742 52.536C248.614 52.536 248.507 52.4987 248.422 52.424C248.251 52.2854 248.203 52.1094 248.278 51.896C248.278 51.8854 248.315 51.7574 248.39 51.512C248.475 51.2667 248.571 50.9894 248.678 50.68C248.731 50.4987 248.779 50.344 248.822 50.216C248.864 50.0774 248.902 49.9547 248.934 49.848C248.646 49.9547 248.294 50.088 247.878 50.248C247.462 50.3974 247.024 50.5574 246.566 50.728C246.118 50.8987 245.68 51.064 245.254 51.224C245.136 51.2667 245.019 51.2614 244.902 51.208C244.774 51.144 244.683 51.048 244.63 50.92C244.587 50.8027 244.598 50.6854 244.662 50.568C244.715 50.44 244.806 50.3494 244.934 50.296C245.414 50.1254 245.91 49.9494 246.422 49.768C246.934 49.576 247.408 49.4 247.846 49.24C248.283 49.0694 248.64 48.9307 248.918 48.824C249.195 48.7174 249.334 48.664 249.334 48.664C249.387 48.6534 249.44 48.648 249.494 48.648C249.547 48.6374 249.595 48.6427 249.638 48.664C249.787 48.6854 249.894 48.7707 249.958 48.92C250.011 49.0054 250.032 49.1174 250.022 49.256C250.022 49.384 249.995 49.5707 249.942 49.816C249.91 49.9547 249.867 50.1094 249.814 50.28C249.771 50.44 249.712 50.6267 249.638 50.84C249.627 50.8827 249.616 50.92 249.606 50.952C249.595 50.984 249.584 51.0214 249.574 51.064C250 50.8294 250.523 50.584 251.142 50.328C251.259 50.2747 251.376 50.2747 251.494 50.328C251.622 50.3707 251.707 50.4507 251.75 50.568C251.814 50.6854 251.819 50.808 251.766 50.936C251.712 51.064 251.627 51.1547 251.51 51.208C251.03 51.4214 250.598 51.624 250.214 51.816C249.84 52.008 249.542 52.1627 249.318 52.28C249.094 52.3974 248.982 52.456 248.982 52.456C248.918 52.5094 248.838 52.536 248.742 52.536Z" fill="#2C393A"/>
<path d="M253.441 52.056C253.387 52.056 253.345 52.0507 253.313 52.04C253.142 51.9974 253.019 51.9334 252.945 51.848C252.881 51.752 252.838 51.6774 252.817 51.624C252.742 51.3894 252.769 51.1494 252.897 50.904C253.025 50.648 253.19 50.3814 253.393 50.104C253.457 50.0187 253.515 49.928 253.569 49.832C253.633 49.7254 253.686 49.6347 253.729 49.56C253.739 49.5494 253.755 49.528 253.777 49.496C253.713 49.5174 253.633 49.5494 253.537 49.592C253.451 49.6347 253.35 49.6987 253.233 49.784C253.041 49.9014 252.838 50.056 252.625 50.248C252.411 50.4294 252.193 50.6214 251.969 50.824C251.915 50.8667 251.857 50.9147 251.793 50.968C251.739 51.0214 251.686 51.0747 251.633 51.128C251.537 51.2134 251.425 51.256 251.297 51.256C251.158 51.2454 251.046 51.1867 250.961 51.08C250.865 50.984 250.822 50.872 250.833 50.744C250.843 50.6054 250.897 50.4934 250.993 50.408C251.046 50.3547 251.105 50.3014 251.169 50.248C251.222 50.1947 251.275 50.1467 251.329 50.104C251.67 49.7947 252.006 49.512 252.337 49.256C252.667 48.9894 252.993 48.7867 253.313 48.648C253.633 48.5094 253.942 48.4827 254.241 48.568C254.422 48.6107 254.55 48.6854 254.625 48.792C254.71 48.888 254.758 48.9734 254.769 49.048C254.865 49.2827 254.843 49.5334 254.705 49.8C254.566 50.056 254.39 50.3387 254.177 50.648C254.155 50.6694 254.129 50.7067 254.097 50.76C254.075 50.8027 254.049 50.8454 254.017 50.888C254.177 50.824 254.385 50.744 254.641 50.648C254.897 50.552 255.206 50.4347 255.569 50.296C255.707 50.2534 255.835 50.264 255.953 50.328C256.07 50.3814 256.15 50.472 256.193 50.6C256.246 50.7174 256.241 50.84 256.177 50.968C256.123 51.0854 256.038 51.1707 255.921 51.224C255.579 51.3414 255.27 51.448 254.993 51.544C254.715 51.64 254.481 51.7254 254.289 51.8C254.182 51.8427 254.086 51.88 254.001 51.912C253.926 51.9334 253.857 51.9547 253.793 51.976C253.718 51.9974 253.654 52.0187 253.601 52.04C253.547 52.0507 253.494 52.056 253.441 52.056Z" fill="#2C393A"/>
<path d="M264.78 53.448C264.705 53.448 264.631 53.4374 264.556 53.416C264.481 53.4054 264.407 53.3947 264.332 53.384C264.14 53.3307 264.007 53.2187 263.932 53.048C263.836 52.8347 263.836 52.5787 263.932 52.28C264.039 51.9707 264.209 51.576 264.444 51.096C264.487 51.0107 264.529 50.9147 264.572 50.808C264.625 50.7014 264.673 50.6 264.716 50.504C264.577 50.5574 264.428 50.648 264.268 50.776C264.119 50.8934 263.964 51.016 263.804 51.144C263.697 51.2187 263.58 51.2507 263.452 51.24C263.313 51.2187 263.201 51.16 263.116 51.064C263.041 50.9574 263.015 50.84 263.036 50.712C263.047 50.584 263.1 50.472 263.196 50.376C263.345 50.2694 263.5 50.152 263.66 50.024C263.831 49.896 264.001 49.7894 264.172 49.704C264.609 49.48 265.009 49.4214 265.372 49.528C265.543 49.56 265.671 49.6667 265.756 49.848C265.841 50.0187 265.836 50.232 265.74 50.488C265.655 50.744 265.505 51.0907 265.292 51.528C265.239 51.656 265.18 51.784 265.116 51.912C265.063 52.04 265.009 52.1627 264.956 52.28C264.945 52.3227 264.929 52.36 264.908 52.392C264.897 52.424 264.887 52.456 264.876 52.488C265.1 52.456 265.425 52.344 265.852 52.152C266.289 51.9494 266.876 51.5547 267.612 50.968C268.007 50.6587 268.364 50.36 268.684 50.072C269.004 49.7734 269.26 49.528 269.452 49.336C269.644 49.144 269.74 49.048 269.74 49.048C269.868 48.8987 270.023 48.8507 270.204 48.904C270.289 48.9147 270.359 48.952 270.412 49.016C270.465 49.0694 270.508 49.1227 270.54 49.176C270.615 49.3254 270.62 49.5014 270.556 49.704C270.503 49.896 270.385 50.2107 270.204 50.648C270.14 50.7867 270.076 50.9254 270.012 51.064C269.959 51.2027 269.905 51.3307 269.852 51.448C269.841 51.4907 269.831 51.528 269.82 51.56C269.82 51.5814 269.815 51.6027 269.804 51.624C270.007 51.592 270.22 51.5067 270.444 51.368C270.679 51.2187 270.903 51.0534 271.116 50.872C271.34 50.6907 271.527 50.536 271.676 50.408C271.783 50.312 271.9 50.2694 272.028 50.28C272.156 50.2907 272.268 50.344 272.364 50.44C272.449 50.5467 272.487 50.664 272.476 50.792C272.476 50.92 272.423 51.032 272.316 51.128C271.985 51.416 271.644 51.688 271.292 51.944C270.951 52.2 270.604 52.392 270.252 52.52C269.911 52.6374 269.564 52.6534 269.212 52.568C269.041 52.4934 268.919 52.3867 268.844 52.248C268.78 52.0987 268.759 51.9334 268.78 51.752C268.812 51.5707 268.876 51.3467 268.972 51.08C268.855 51.1867 268.732 51.288 268.604 51.384C268.487 51.48 268.359 51.5867 268.22 51.704C266.748 52.8667 265.601 53.448 264.78 53.448Z" fill="#2C393A"/>
<path d="M275.664 52.536C275.536 52.536 275.429 52.4987 275.344 52.424C275.173 52.2854 275.125 52.1094 275.2 51.896C275.2 51.8854 275.237 51.7574 275.312 51.512C275.397 51.2667 275.493 50.9894 275.6 50.68C275.653 50.4987 275.701 50.344 275.744 50.216C275.786 50.0774 275.824 49.9547 275.856 49.848C275.568 49.9547 275.216 50.088 274.8 50.248C274.384 50.3974 273.946 50.5574 273.488 50.728C273.04 50.8987 272.602 51.064 272.176 51.224C272.058 51.2667 271.941 51.2614 271.824 51.208C271.696 51.144 271.605 51.048 271.552 50.92C271.509 50.8027 271.52 50.6854 271.584 50.568C271.637 50.44 271.728 50.3494 271.856 50.296C272.336 50.1254 272.832 49.9494 273.344 49.768C273.856 49.576 274.33 49.4 274.768 49.24C275.205 49.0694 275.562 48.9307 275.84 48.824C276.117 48.7174 276.256 48.664 276.256 48.664C276.309 48.6534 276.362 48.648 276.416 48.648C276.469 48.6374 276.517 48.6427 276.56 48.664C276.709 48.6854 276.816 48.7707 276.88 48.92C276.933 49.0054 276.954 49.1174 276.944 49.256C276.944 49.384 276.917 49.5707 276.864 49.816C276.832 49.9547 276.789 50.1094 276.736 50.28C276.693 50.44 276.634 50.6267 276.56 50.84C276.549 50.8827 276.538 50.92 276.528 50.952C276.517 50.984 276.506 51.0214 276.496 51.064C276.922 50.8294 277.445 50.584 278.064 50.328C278.181 50.2747 278.298 50.2747 278.416 50.328C278.544 50.3707 278.629 50.4507 278.672 50.568C278.736 50.6854 278.741 50.808 278.688 50.936C278.634 51.064 278.549 51.1547 278.432 51.208C277.952 51.4214 277.52 51.624 277.136 51.816C276.762 52.008 276.464 52.1627 276.24 52.28C276.016 52.3974 275.904 52.456 275.904 52.456C275.84 52.5094 275.76 52.536 275.664 52.536Z" fill="#2C393A"/>
<path d="M283.85 52.376C283.776 52.376 283.706 52.3654 283.642 52.344C283.44 52.3014 283.296 52.1787 283.21 51.976C283.146 51.7947 283.162 51.592 283.258 51.368C283.365 51.144 283.504 50.8934 283.674 50.616C283.738 50.52 283.797 50.424 283.85 50.328C283.914 50.2214 283.968 50.1254 284.01 50.04C284.032 50.008 284.048 49.9814 284.058 49.96C284.069 49.928 284.08 49.9014 284.09 49.88C283.77 49.8267 283.397 49.816 282.97 49.848C282.554 49.8694 282.085 49.9494 281.562 50.088C281.104 50.2054 280.608 50.36 280.074 50.552C279.552 50.7334 278.997 50.952 278.41 51.208C278.293 51.2507 278.176 51.2507 278.058 51.208C277.941 51.1654 277.856 51.0854 277.802 50.968C277.738 50.8507 277.733 50.728 277.786 50.6C277.84 50.4614 277.925 50.3707 278.042 50.328C278.64 50.0614 279.21 49.832 279.754 49.64C280.309 49.4374 280.832 49.2774 281.322 49.16C282.634 48.8294 283.706 48.776 284.538 49C284.784 49.064 284.954 49.2134 285.05 49.448C285.146 49.6827 285.125 49.944 284.986 50.232C284.848 50.52 284.682 50.8187 284.49 51.128C284.48 51.1494 284.464 51.176 284.442 51.208C284.421 51.24 284.4 51.2774 284.378 51.32C284.624 51.2667 284.986 51.16 285.466 51C285.946 50.84 286.608 50.6054 287.45 50.296C287.568 50.2534 287.685 50.264 287.802 50.328C287.93 50.3814 288.016 50.472 288.058 50.6C288.112 50.7174 288.112 50.84 288.058 50.968C288.005 51.0854 287.909 51.1707 287.77 51.224C287.28 51.3947 286.832 51.5494 286.426 51.688C286.021 51.8267 285.658 51.944 285.338 52.04C284.912 52.168 284.586 52.2587 284.362 52.312C284.138 52.3547 283.968 52.376 283.85 52.376Z" fill="#2C393A"/>
<path d="M288.936 53.448C288.862 53.448 288.787 53.4374 288.712 53.416C288.638 53.4054 288.563 53.3947 288.488 53.384C288.296 53.3307 288.163 53.2187 288.088 53.048C287.992 52.8347 287.992 52.5787 288.088 52.28C288.195 51.9707 288.366 51.576 288.6 51.096C288.643 51.0107 288.686 50.9147 288.728 50.808C288.782 50.7014 288.83 50.6 288.872 50.504C288.734 50.5574 288.584 50.648 288.424 50.776C288.275 50.8934 288.12 51.016 287.96 51.144C287.854 51.2187 287.736 51.2507 287.608 51.24C287.47 51.2187 287.358 51.16 287.272 51.064C287.198 50.9574 287.171 50.84 287.192 50.712C287.203 50.584 287.256 50.472 287.352 50.376C287.502 50.2694 287.656 50.152 287.816 50.024C287.987 49.896 288.158 49.7894 288.328 49.704C288.766 49.48 289.166 49.4214 289.528 49.528C289.699 49.56 289.827 49.6667 289.912 49.848C289.998 50.0187 289.992 50.232 289.896 50.488C289.811 50.744 289.662 51.0907 289.448 51.528C289.395 51.656 289.336 51.784 289.272 51.912C289.219 52.04 289.166 52.1627 289.112 52.28C289.102 52.3227 289.086 52.36 289.064 52.392C289.054 52.424 289.043 52.456 289.032 52.488C289.256 52.456 289.582 52.344 290.008 52.152C290.446 51.9494 291.032 51.5547 291.768 50.968C292.163 50.6587 292.52 50.36 292.84 50.072C293.16 49.7734 293.416 49.528 293.608 49.336C293.8 49.144 293.896 49.048 293.896 49.048C294.024 48.8987 294.179 48.8507 294.36 48.904C294.446 48.9147 294.515 48.952 294.568 49.016C294.622 49.0694 294.664 49.1227 294.696 49.176C294.771 49.3254 294.776 49.5014 294.712 49.704C294.659 49.896 294.542 50.2107 294.36 50.648C294.296 50.7867 294.232 50.9254 294.168 51.064C294.115 51.2027 294.062 51.3307 294.008 51.448C293.998 51.4907 293.987 51.528 293.976 51.56C293.976 51.5814 293.971 51.6027 293.96 51.624C294.163 51.592 294.376 51.5067 294.6 51.368C294.835 51.2187 295.059 51.0534 295.272 50.872C295.496 50.6907 295.683 50.536 295.832 50.408C295.939 50.312 296.056 50.2694 296.184 50.28C296.312 50.2907 296.424 50.344 296.52 50.44C296.606 50.5467 296.643 50.664 296.632 50.792C296.632 50.92 296.579 51.032 296.472 51.128C296.142 51.416 295.8 51.688 295.448 51.944C295.107 52.2 294.76 52.392 294.408 52.52C294.067 52.6374 293.72 52.6534 293.368 52.568C293.198 52.4934 293.075 52.3867 293 52.248C292.936 52.0987 292.915 51.9334 292.936 51.752C292.968 51.5707 293.032 51.3467 293.128 51.08C293.011 51.1867 292.888 51.288 292.76 51.384C292.643 51.48 292.515 51.5867 292.376 51.704C290.904 52.8667 289.758 53.448 288.936 53.448Z" fill="#2C393A"/>
</g>
<g opacity="0.6">
<path d="M371.28 53.448C371.205 53.448 371.131 53.4374 371.056 53.416C370.981 53.4054 370.907 53.3947 370.832 53.384C370.64 53.3307 370.507 53.2187 370.432 53.048C370.336 52.8347 370.336 52.5787 370.432 52.28C370.539 51.9707 370.709 51.576 370.944 51.096C370.987 51.0107 371.029 50.9147 371.072 50.808C371.125 50.7014 371.173 50.6 371.216 50.504C371.077 50.5574 370.928 50.648 370.768 50.776C370.619 50.8934 370.464 51.016 370.304 51.144C370.197 51.2187 370.08 51.2507 369.952 51.24C369.813 51.2187 369.701 51.16 369.616 51.064C369.541 50.9574 369.515 50.84 369.536 50.712C369.547 50.584 369.6 50.472 369.696 50.376C369.845 50.2694 370 50.152 370.16 50.024C370.331 49.896 370.501 49.7894 370.672 49.704C371.109 49.48 371.509 49.4214 371.872 49.528C372.043 49.56 372.171 49.6667 372.256 49.848C372.341 50.0187 372.336 50.232 372.24 50.488C372.155 50.744 372.005 51.0907 371.792 51.528C371.739 51.656 371.68 51.784 371.616 51.912C371.563 52.04 371.509 52.1627 371.456 52.28C371.445 52.3227 371.429 52.36 371.408 52.392C371.397 52.424 371.387 52.456 371.376 52.488C371.6 52.456 371.925 52.344 372.352 52.152C372.789 51.9494 373.376 51.5547 374.112 50.968C374.507 50.6587 374.864 50.36 375.184 50.072C375.504 49.7734 375.76 49.528 375.952 49.336C376.144 49.144 376.24 49.048 376.24 49.048C376.368 48.8987 376.523 48.8507 376.704 48.904C376.789 48.9147 376.859 48.952 376.912 49.016C376.965 49.0694 377.008 49.1227 377.04 49.176C377.115 49.3254 377.12 49.5014 377.056 49.704C377.003 49.896 376.885 50.2107 376.704 50.648C376.64 50.7867 376.576 50.9254 376.512 51.064C376.459 51.2027 376.405 51.3307 376.352 51.448C376.341 51.4907 376.331 51.528 376.32 51.56C376.32 51.5814 376.315 51.6027 376.304 51.624C376.507 51.592 376.72 51.5067 376.944 51.368C377.179 51.2187 377.403 51.0534 377.616 50.872C377.84 50.6907 378.027 50.536 378.176 50.408C378.283 50.312 378.4 50.2694 378.528 50.28C378.656 50.2907 378.768 50.344 378.864 50.44C378.949 50.5467 378.987 50.664 378.976 50.792C378.976 50.92 378.923 51.032 378.816 51.128C378.485 51.416 378.144 51.688 377.792 51.944C377.451 52.2 377.104 52.392 376.752 52.52C376.411 52.6374 376.064 52.6534 375.712 52.568C375.541 52.4934 375.419 52.3867 375.344 52.248C375.28 52.0987 375.259 51.9334 375.28 51.752C375.312 51.5707 375.376 51.3467 375.472 51.08C375.355 51.1867 375.232 51.288 375.104 51.384C374.987 51.48 374.859 51.5867 374.72 51.704C373.248 52.8667 372.101 53.448 371.28 53.448Z" fill="#2C393A"/>
<path d="M382.164 52.536C382.036 52.536 381.929 52.4987 381.844 52.424C381.673 52.2854 381.625 52.1094 381.7 51.896C381.7 51.8854 381.737 51.7574 381.812 51.512C381.897 51.2667 381.993 50.9894 382.1 50.68C382.153 50.4987 382.201 50.344 382.244 50.216C382.286 50.0774 382.324 49.9547 382.356 49.848C382.068 49.9547 381.716 50.088 381.3 50.248C380.884 50.3974 380.446 50.5574 379.988 50.728C379.54 50.8987 379.102 51.064 378.676 51.224C378.558 51.2667 378.441 51.2614 378.324 51.208C378.196 51.144 378.105 51.048 378.052 50.92C378.009 50.8027 378.02 50.6854 378.084 50.568C378.137 50.44 378.228 50.3494 378.356 50.296C378.836 50.1254 379.332 49.9494 379.844 49.768C380.356 49.576 380.83 49.4 381.268 49.24C381.705 49.0694 382.062 48.9307 382.34 48.824C382.617 48.7174 382.756 48.664 382.756 48.664C382.809 48.6534 382.862 48.648 382.916 48.648C382.969 48.6374 383.017 48.6427 383.06 48.664C383.209 48.6854 383.316 48.7707 383.38 48.92C383.433 49.0054 383.454 49.1174 383.444 49.256C383.444 49.384 383.417 49.5707 383.364 49.816C383.332 49.9547 383.289 50.1094 383.236 50.28C383.193 50.44 383.134 50.6267 383.06 50.84C383.049 50.8827 383.038 50.92 383.028 50.952C383.017 50.984 383.006 51.0214 382.996 51.064C383.422 50.8294 383.945 50.584 384.564 50.328C384.681 50.2747 384.798 50.2747 384.916 50.328C385.044 50.3707 385.129 50.4507 385.172 50.568C385.236 50.6854 385.241 50.808 385.188 50.936C385.134 51.064 385.049 51.1547 384.932 51.208C384.452 51.4214 384.02 51.624 383.636 51.816C383.262 52.008 382.964 52.1627 382.74 52.28C382.516 52.3974 382.404 52.456 382.404 52.456C382.34 52.5094 382.26 52.536 382.164 52.536Z" fill="#2C393A"/>
<path d="M388.382 52.536C388.254 52.536 388.148 52.4987 388.062 52.424C387.892 52.2854 387.844 52.1094 387.918 51.896C387.918 51.8854 387.956 51.7574 388.03 51.512C388.116 51.2667 388.212 50.9894 388.318 50.68C388.372 50.4987 388.42 50.344 388.462 50.216C388.505 50.0774 388.542 49.9547 388.574 49.848C388.286 49.9547 387.934 50.088 387.518 50.248C387.102 50.3974 386.665 50.5574 386.206 50.728C385.758 50.8987 385.321 51.064 384.894 51.224C384.777 51.2667 384.66 51.2614 384.542 51.208C384.414 51.144 384.324 51.048 384.27 50.92C384.228 50.8027 384.238 50.6854 384.302 50.568C384.356 50.44 384.446 50.3494 384.574 50.296C385.054 50.1254 385.55 49.9494 386.062 49.768C386.574 49.576 387.049 49.4 387.486 49.24C387.924 49.0694 388.281 48.9307 388.558 48.824C388.836 48.7174 388.974 48.664 388.974 48.664C389.028 48.6534 389.081 48.648 389.134 48.648C389.188 48.6374 389.236 48.6427 389.278 48.664C389.428 48.6854 389.534 48.7707 389.598 48.92C389.652 49.0054 389.673 49.1174 389.662 49.256C389.662 49.384 389.636 49.5707 389.582 49.816C389.55 49.9547 389.508 50.1094 389.454 50.28C389.412 50.44 389.353 50.6267 389.278 50.84C389.268 50.8827 389.257 50.92 389.246 50.952C389.236 50.984 389.225 51.0214 389.214 51.064C389.641 50.8294 390.164 50.584 390.782 50.328C390.9 50.2747 391.017 50.2747 391.134 50.328C391.262 50.3707 391.348 50.4507 391.39 50.568C391.454 50.6854 391.46 50.808 391.406 50.936C391.353 51.064 391.268 51.1547 391.15 51.208C390.67 51.4214 390.238 51.624 389.854 51.816C389.481 52.008 389.182 52.1627 388.958 52.28C388.734 52.3974 388.622 52.456 388.622 52.456C388.558 52.5094 388.478 52.536 388.382 52.536Z" fill="#2C393A"/>
<path d="M396.569 52.376C396.494 52.376 396.425 52.3654 396.361 52.344C396.158 52.3014 396.014 52.1787 395.929 51.976C395.865 51.7947 395.881 51.592 395.977 51.368C396.084 51.144 396.222 50.8934 396.393 50.616C396.457 50.52 396.516 50.424 396.569 50.328C396.633 50.2214 396.686 50.1254 396.729 50.04C396.75 50.008 396.766 49.9814 396.777 49.96C396.788 49.928 396.798 49.9014 396.809 49.88C396.489 49.8267 396.116 49.816 395.689 49.848C395.273 49.8694 394.804 49.9494 394.281 50.088C393.822 50.2054 393.326 50.36 392.793 50.552C392.27 50.7334 391.716 50.952 391.129 51.208C391.012 51.2507 390.894 51.2507 390.777 51.208C390.66 51.1654 390.574 51.0854 390.521 50.968C390.457 50.8507 390.452 50.728 390.505 50.6C390.558 50.4614 390.644 50.3707 390.761 50.328C391.358 50.0614 391.929 49.832 392.473 49.64C393.028 49.4374 393.55 49.2774 394.041 49.16C395.353 48.8294 396.425 48.776 397.257 49C397.502 49.064 397.673 49.2134 397.769 49.448C397.865 49.6827 397.844 49.944 397.705 50.232C397.566 50.52 397.401 50.8187 397.209 51.128C397.198 51.1494 397.182 51.176 397.161 51.208C397.14 51.24 397.118 51.2774 397.097 51.32C397.342 51.2667 397.705 51.16 398.185 51C398.665 50.84 399.326 50.6054 400.169 50.296C400.286 50.2534 400.404 50.264 400.521 50.328C400.649 50.3814 400.734 50.472 400.777 50.6C400.83 50.7174 400.83 50.84 400.777 50.968C400.724 51.0854 400.628 51.1707 400.489 51.224C399.998 51.3947 399.55 51.5494 399.145 51.688C398.74 51.8267 398.377 51.944 398.057 52.04C397.63 52.168 397.305 52.2587 397.081 52.312C396.857 52.3547 396.686 52.376 396.569 52.376Z" fill="#2C393A"/>
<path d="M402.503 52.056C402.45 52.056 402.407 52.0507 402.375 52.04C402.204 51.9974 402.082 51.9334 402.007 51.848C401.943 51.752 401.9 51.6774 401.879 51.624C401.804 51.3894 401.831 51.1494 401.959 50.904C402.087 50.648 402.252 50.3814 402.455 50.104C402.519 50.0187 402.578 49.928 402.631 49.832C402.695 49.7254 402.748 49.6347 402.791 49.56C402.802 49.5494 402.818 49.528 402.839 49.496C402.775 49.5174 402.695 49.5494 402.599 49.592C402.514 49.6347 402.412 49.6987 402.295 49.784C402.103 49.9014 401.9 50.056 401.687 50.248C401.474 50.4294 401.255 50.6214 401.031 50.824C400.978 50.8667 400.919 50.9147 400.855 50.968C400.802 51.0214 400.748 51.0747 400.695 51.128C400.599 51.2134 400.487 51.256 400.359 51.256C400.22 51.2454 400.108 51.1867 400.023 51.08C399.927 50.984 399.884 50.872 399.895 50.744C399.906 50.6054 399.959 50.4934 400.055 50.408C400.108 50.3547 400.167 50.3014 400.231 50.248C400.284 50.1947 400.338 50.1467 400.391 50.104C400.732 49.7947 401.068 49.512 401.399 49.256C401.73 48.9894 402.055 48.7867 402.375 48.648C402.695 48.5094 403.004 48.4827 403.303 48.568C403.484 48.6107 403.612 48.6854 403.687 48.792C403.772 48.888 403.82 48.9734 403.831 49.048C403.927 49.2827 403.906 49.5334 403.767 49.8C403.628 50.056 403.452 50.3387 403.239 50.648C403.218 50.6694 403.191 50.7067 403.159 50.76C403.138 50.8027 403.111 50.8454 403.079 50.888C403.239 50.824 403.447 50.744 403.703 50.648C403.959 50.552 404.268 50.4347 404.631 50.296C404.77 50.2534 404.898 50.264 405.015 50.328C405.132 50.3814 405.212 50.472 405.255 50.6C405.308 50.7174 405.303 50.84 405.239 50.968C405.186 51.0854 405.1 51.1707 404.983 51.224C404.642 51.3414 404.332 51.448 404.055 51.544C403.778 51.64 403.543 51.7254 403.351 51.8C403.244 51.8427 403.148 51.88 403.063 51.912C402.988 51.9334 402.919 51.9547 402.855 51.976C402.78 51.9974 402.716 52.0187 402.663 52.04C402.61 52.0507 402.556 52.056 402.503 52.056Z" fill="#2C393A"/>
<path d="M406.061 53.448C405.987 53.448 405.912 53.4374 405.837 53.416C405.763 53.4054 405.688 53.3947 405.613 53.384C405.421 53.3307 405.288 53.2187 405.213 53.048C405.117 52.8347 405.117 52.5787 405.213 52.28C405.32 51.9707 405.491 51.576 405.725 51.096C405.768 51.0107 405.811 50.9147 405.853 50.808C405.907 50.7014 405.955 50.6 405.997 50.504C405.859 50.5574 405.709 50.648 405.549 50.776C405.4 50.8934 405.245 51.016 405.085 51.144C404.979 51.2187 404.861 51.2507 404.733 51.24C404.595 51.2187 404.483 51.16 404.397 51.064C404.323 50.9574 404.296 50.84 404.317 50.712C404.328 50.584 404.381 50.472 404.477 50.376C404.627 50.2694 404.781 50.152 404.941 50.024C405.112 49.896 405.283 49.7894 405.453 49.704C405.891 49.48 406.291 49.4214 406.653 49.528C406.824 49.56 406.952 49.6667 407.037 49.848C407.123 50.0187 407.117 50.232 407.021 50.488C406.936 50.744 406.787 51.0907 406.573 51.528C406.52 51.656 406.461 51.784 406.397 51.912C406.344 52.04 406.291 52.1627 406.237 52.28C406.227 52.3227 406.211 52.36 406.189 52.392C406.179 52.424 406.168 52.456 406.157 52.488C406.381 52.456 406.707 52.344 407.133 52.152C407.571 51.9494 408.157 51.5547 408.893 50.968C409.288 50.6587 409.645 50.36 409.965 50.072C410.285 49.7734 410.541 49.528 410.733 49.336C410.925 49.144 411.021 49.048 411.021 49.048C411.149 48.8987 411.304 48.8507 411.485 48.904C411.571 48.9147 411.64 48.952 411.693 49.016C411.747 49.0694 411.789 49.1227 411.821 49.176C411.896 49.3254 411.901 49.5014 411.837 49.704C411.784 49.896 411.667 50.2107 411.485 50.648C411.421 50.7867 411.357 50.9254 411.293 51.064C411.24 51.2027 411.187 51.3307 411.133 51.448C411.123 51.4907 411.112 51.528 411.101 51.56C411.101 51.5814 411.096 51.6027 411.085 51.624C411.288 51.592 411.501 51.5067 411.725 51.368C411.96 51.2187 412.184 51.0534 412.397 50.872C412.621 50.6907 412.808 50.536 412.957 50.408C413.064 50.312 413.181 50.2694 413.309 50.28C413.437 50.2907 413.549 50.344 413.645 50.44C413.731 50.5467 413.768 50.664 413.757 50.792C413.757 50.92 413.704 51.032 413.597 51.128C413.267 51.416 412.925 51.688 412.573 51.944C412.232 52.2 411.885 52.392 411.533 52.52C411.192 52.6374 410.845 52.6534 410.493 52.568C410.323 52.4934 410.2 52.3867 410.125 52.248C410.061 52.0987 410.04 51.9334 410.061 51.752C410.093 51.5707 410.157 51.3467 410.253 51.08C410.136 51.1867 410.013 51.288 409.885 51.384C409.768 51.48 409.64 51.5867 409.501 51.704C408.029 52.8667 406.883 53.448 406.061 53.448Z" fill="#2C393A"/>
<path d="M418.913 52.376C418.838 52.376 418.769 52.3654 418.705 52.344C418.502 52.3014 418.358 52.1787 418.273 51.976C418.209 51.7947 418.225 51.592 418.321 51.368C418.428 51.144 418.566 50.8934 418.737 50.616C418.801 50.52 418.86 50.424 418.913 50.328C418.977 50.2214 419.03 50.1254 419.073 50.04C419.094 50.008 419.11 49.9814 419.121 49.96C419.132 49.928 419.142 49.9014 419.153 49.88C418.833 49.8267 418.46 49.816 418.033 49.848C417.617 49.8694 417.148 49.9494 416.625 50.088C416.166 50.2054 415.67 50.36 415.137 50.552C414.614 50.7334 414.06 50.952 413.473 51.208C413.356 51.2507 413.238 51.2507 413.121 51.208C413.004 51.1654 412.918 51.0854 412.865 50.968C412.801 50.8507 412.796 50.728 412.849 50.6C412.902 50.4614 412.988 50.3707 413.105 50.328C413.702 50.0614 414.273 49.832 414.817 49.64C415.372 49.4374 415.894 49.2774 416.385 49.16C417.697 48.8294 418.769 48.776 419.601 49C419.846 49.064 420.017 49.2134 420.113 49.448C420.209 49.6827 420.188 49.944 420.049 50.232C419.91 50.52 419.745 50.8187 419.553 51.128C419.542 51.1494 419.526 51.176 419.505 51.208C419.484 51.24 419.462 51.2774 419.441 51.32C419.686 51.2667 420.049 51.16 420.529 51C421.009 50.84 421.67 50.6054 422.513 50.296C422.63 50.2534 422.748 50.264 422.865 50.328C422.993 50.3814 423.078 50.472 423.121 50.6C423.174 50.7174 423.174 50.84 423.121 50.968C423.068 51.0854 422.972 51.1707 422.833 51.224C422.342 51.3947 421.894 51.5494 421.489 51.688C421.084 51.8267 420.721 51.944 420.401 52.04C419.974 52.168 419.649 52.2587 419.425 52.312C419.201 52.3547 419.03 52.376 418.913 52.376Z" fill="#2C393A"/>
<path d="M432.628 52.056C432.575 52.056 432.532 52.0507 432.5 52.04C432.329 51.9974 432.207 51.9334 432.132 51.848C432.068 51.752 432.025 51.6774 432.004 51.624C431.929 51.3894 431.956 51.1494 432.084 50.904C432.212 50.648 432.377 50.3814 432.58 50.104C432.644 50.0187 432.703 49.928 432.756 49.832C432.82 49.7254 432.873 49.6347 432.916 49.56C432.927 49.5494 432.943 49.528 432.964 49.496C432.9 49.5174 432.82 49.5494 432.724 49.592C432.639 49.6347 432.537 49.6987 432.42 49.784C432.228 49.9014 432.025 50.056 431.812 50.248C431.599 50.4294 431.38 50.6214 431.156 50.824C431.103 50.8667 431.044 50.9147 430.98 50.968C430.927 51.0214 430.873 51.0747 430.82 51.128C430.724 51.2134 430.612 51.256 430.484 51.256C430.345 51.2454 430.233 51.1867 430.148 51.08C430.052 50.984 430.009 50.872 430.02 50.744C430.031 50.6054 430.084 50.4934 430.18 50.408C430.233 50.3547 430.292 50.3014 430.356 50.248C430.409 50.1947 430.463 50.1467 430.516 50.104C430.857 49.7947 431.193 49.512 431.524 49.256C431.855 48.9894 432.18 48.7867 432.5 48.648C432.82 48.5094 433.129 48.4827 433.428 48.568C433.609 48.6107 433.737 48.6854 433.812 48.792C433.897 48.888 433.945 48.9734 433.956 49.048C434.052 49.2827 434.031 49.5334 433.892 49.8C433.753 50.056 433.577 50.3387 433.364 50.648C433.343 50.6694 433.316 50.7067 433.284 50.76C433.263 50.8027 433.236 50.8454 433.204 50.888C433.364 50.824 433.572 50.744 433.828 50.648C434.084 50.552 434.393 50.4347 434.756 50.296C434.895 50.2534 435.023 50.264 435.14 50.328C435.257 50.3814 435.337 50.472 435.38 50.6C435.433 50.7174 435.428 50.84 435.364 50.968C435.311 51.0854 435.225 51.1707 435.108 51.224C434.767 51.3414 434.457 51.448 434.18 51.544C433.903 51.64 433.668 51.7254 433.476 51.8C433.369 51.8427 433.273 51.88 433.188 51.912C433.113 51.9334 433.044 51.9547 432.98 51.976C432.905 51.9974 432.841 52.0187 432.788 52.04C432.735 52.0507 432.681 52.056 432.628 52.056Z" fill="#2C393A"/>
<path d="M436.186 53.448C436.112 53.448 436.037 53.4374 435.962 53.416C435.888 53.4054 435.813 53.3947 435.738 53.384C435.546 53.3307 435.413 53.2187 435.338 53.048C435.242 52.8347 435.242 52.5787 435.338 52.28C435.445 51.9707 435.616 51.576 435.85 51.096C435.893 51.0107 435.936 50.9147 435.978 50.808C436.032 50.7014 436.08 50.6 436.122 50.504C435.984 50.5574 435.834 50.648 435.674 50.776C435.525 50.8934 435.37 51.016 435.21 51.144C435.104 51.2187 434.986 51.2507 434.858 51.24C434.72 51.2187 434.608 51.16 434.522 51.064C434.448 50.9574 434.421 50.84 434.442 50.712C434.453 50.584 434.506 50.472 434.602 50.376C434.752 50.2694 434.906 50.152 435.066 50.024C435.237 49.896 435.408 49.7894 435.578 49.704C436.016 49.48 436.416 49.4214 436.778 49.528C436.949 49.56 437.077 49.6667 437.162 49.848C437.248 50.0187 437.242 50.232 437.146 50.488C437.061 50.744 436.912 51.0907 436.698 51.528C436.645 51.656 436.586 51.784 436.522 51.912C436.469 52.04 436.416 52.1627 436.362 52.28C436.352 52.3227 436.336 52.36 436.314 52.392C436.304 52.424 436.293 52.456 436.282 52.488C436.506 52.456 436.832 52.344 437.258 52.152C437.696 51.9494 438.282 51.5547 439.018 50.968C439.413 50.6587 439.77 50.36 440.09 50.072C440.41 49.7734 440.666 49.528 440.858 49.336C441.05 49.144 441.146 49.048 441.146 49.048C441.274 48.8987 441.429 48.8507 441.61 48.904C441.696 48.9147 441.765 48.952 441.818 49.016C441.872 49.0694 441.914 49.1227 441.946 49.176C442.021 49.3254 442.026 49.5014 441.962 49.704C441.909 49.896 441.792 50.2107 441.61 50.648C441.546 50.7867 441.482 50.9254 441.418 51.064C441.365 51.2027 441.312 51.3307 441.258 51.448C441.248 51.4907 441.237 51.528 441.226 51.56C441.226 51.5814 441.221 51.6027 441.21 51.624C441.413 51.592 441.626 51.5067 441.85 51.368C442.085 51.2187 442.309 51.0534 442.522 50.872C442.746 50.6907 442.933 50.536 443.082 50.408C443.189 50.312 443.306 50.2694 443.434 50.28C443.562 50.2907 443.674 50.344 443.77 50.44C443.856 50.5467 443.893 50.664 443.882 50.792C443.882 50.92 443.829 51.032 443.722 51.128C443.392 51.416 443.05 51.688 442.698 51.944C442.357 52.2 442.01 52.392 441.658 52.52C441.317 52.6374 440.97 52.6534 440.618 52.568C440.448 52.4934 440.325 52.3867 440.25 52.248C440.186 52.0987 440.165 51.9334 440.186 51.752C440.218 51.5707 440.282 51.3467 440.378 51.08C440.261 51.1867 440.138 51.288 440.01 51.384C439.893 51.48 439.765 51.5867 439.626 51.704C438.154 52.8667 437.008 53.448 436.186 53.448Z" fill="#2C393A"/>
<path d="M444.702 53.448C444.627 53.448 444.553 53.4374 444.478 53.416C444.403 53.4054 444.329 53.3947 444.254 53.384C444.062 53.3307 443.929 53.2187 443.854 53.048C443.758 52.8347 443.758 52.5787 443.854 52.28C443.961 51.9707 444.131 51.576 444.366 51.096C444.409 51.0107 444.451 50.9147 444.494 50.808C444.547 50.7014 444.595 50.6 444.638 50.504C444.499 50.5574 444.35 50.648 444.19 50.776C444.041 50.8934 443.886 51.016 443.726 51.144C443.619 51.2187 443.502 51.2507 443.374 51.24C443.235 51.2187 443.123 51.16 443.038 51.064C442.963 50.9574 442.937 50.84 442.958 50.712C442.969 50.584 443.022 50.472 443.118 50.376C443.267 50.2694 443.422 50.152 443.582 50.024C443.753 49.896 443.923 49.7894 444.094 49.704C444.531 49.48 444.931 49.4214 445.294 49.528C445.465 49.56 445.593 49.6667 445.678 49.848C445.763 50.0187 445.758 50.232 445.662 50.488C445.577 50.744 445.427 51.0907 445.214 51.528C445.161 51.656 445.102 51.784 445.038 51.912C444.985 52.04 444.931 52.1627 444.878 52.28C444.867 52.3227 444.851 52.36 444.83 52.392C444.819 52.424 444.809 52.456 444.798 52.488C445.022 52.456 445.347 52.344 445.774 52.152C446.211 51.9494 446.798 51.5547 447.534 50.968C447.929 50.6587 448.286 50.36 448.606 50.072C448.926 49.7734 449.182 49.528 449.374 49.336C449.566 49.144 449.662 49.048 449.662 49.048C449.79 48.8987 449.945 48.8507 450.126 48.904C450.211 48.9147 450.281 48.952 450.334 49.016C450.387 49.0694 450.43 49.1227 450.462 49.176C450.537 49.3254 450.542 49.5014 450.478 49.704C450.425 49.896 450.307 50.2107 450.126 50.648C450.062 50.7867 449.998 50.9254 449.934 51.064C449.881 51.2027 449.827 51.3307 449.774 51.448C449.763 51.4907 449.753 51.528 449.742 51.56C449.742 51.5814 449.737 51.6027 449.726 51.624C449.929 51.592 450.142 51.5067 450.366 51.368C450.601 51.2187 450.825 51.0534 451.038 50.872C451.262 50.6907 451.449 50.536 451.598 50.408C451.705 50.312 451.822 50.2694 451.95 50.28C452.078 50.2907 452.19 50.344 452.286 50.44C452.371 50.5467 452.409 50.664 452.398 50.792C452.398 50.92 452.345 51.032 452.238 51.128C451.907 51.416 451.566 51.688 451.214 51.944C450.873 52.2 450.526 52.392 450.174 52.52C449.833 52.6374 449.486 52.6534 449.134 52.568C448.963 52.4934 448.841 52.3867 448.766 52.248C448.702 52.0987 448.681 51.9334 448.702 51.752C448.734 51.5707 448.798 51.3467 448.894 51.08C448.777 51.1867 448.654 51.288 448.526 51.384C448.409 51.48 448.281 51.5867 448.142 51.704C446.67 52.8667 445.523 53.448 444.702 53.448Z" fill="#2C393A"/>
<path d="M453.218 53.448C453.143 53.448 453.068 53.4374 452.994 53.416C452.919 53.4054 452.844 53.3947 452.77 53.384C452.578 53.3307 452.444 53.2187 452.37 53.048C452.274 52.8347 452.274 52.5787 452.37 52.28C452.476 51.9707 452.647 51.576 452.882 51.096C452.924 51.0107 452.967 50.9147 453.01 50.808C453.063 50.7014 453.111 50.6 453.154 50.504C453.015 50.5574 452.866 50.648 452.706 50.776C452.556 50.8934 452.402 51.016 452.242 51.144C452.135 51.2187 452.018 51.2507 451.89 51.24C451.751 51.2187 451.639 51.16 451.554 51.064C451.479 50.9574 451.452 50.84 451.474 50.712C451.484 50.584 451.538 50.472 451.634 50.376C451.783 50.2694 451.938 50.152 452.098 50.024C452.268 49.896 452.439 49.7894 452.61 49.704C453.047 49.48 453.447 49.4214 453.81 49.528C453.98 49.56 454.108 49.6667 454.194 49.848C454.279 50.0187 454.274 50.232 454.178 50.488C454.092 50.744 453.943 51.0907 453.73 51.528C453.676 51.656 453.618 51.784 453.554 51.912C453.5 52.04 453.447 52.1627 453.394 52.28C453.383 52.3227 453.367 52.36 453.346 52.392C453.335 52.424 453.324 52.456 453.314 52.488C453.538 52.456 453.863 52.344 454.29 52.152C454.727 51.9494 455.314 51.5547 456.05 50.968C456.444 50.6587 456.802 50.36 457.122 50.072C457.442 49.7734 457.698 49.528 457.89 49.336C458.082 49.144 458.178 49.048 458.178 49.048C458.306 48.8987 458.46 48.8507 458.642 48.904C458.727 48.9147 458.796 48.952 458.85 49.016C458.903 49.0694 458.946 49.1227 458.978 49.176C459.052 49.3254 459.058 49.5014 458.994 49.704C458.94 49.896 458.823 50.2107 458.642 50.648C458.578 50.7867 458.514 50.9254 458.45 51.064C458.396 51.2027 458.343 51.3307 458.29 51.448C458.279 51.4907 458.268 51.528 458.258 51.56C458.258 51.5814 458.252 51.6027 458.242 51.624C458.444 51.592 458.658 51.5067 458.882 51.368C459.116 51.2187 459.34 51.0534 459.554 50.872C459.778 50.6907 459.964 50.536 460.114 50.408C460.22 50.312 460.338 50.2694 460.466 50.28C460.594 50.2907 460.706 50.344 460.802 50.44C460.887 50.5467 460.924 50.664 460.914 50.792C460.914 50.92 460.86 51.032 460.754 51.128C460.423 51.416 460.082 51.688 459.73 51.944C459.388 52.2 459.042 52.392 458.69 52.52C458.348 52.6374 458.002 52.6534 457.65 52.568C457.479 52.4934 457.356 52.3867 457.282 52.248C457.218 52.0987 457.196 51.9334 457.218 51.752C457.25 51.5707 457.314 51.3467 457.41 51.08C457.292 51.1867 457.17 51.288 457.042 51.384C456.924 51.48 456.796 51.5867 456.658 51.704C455.186 52.8667 454.039 53.448 453.218 53.448Z" fill="#2C393A"/>
</g>
<g opacity="0.6">
<path d="M540.616 52.376C540.541 52.376 540.472 52.3654 540.408 52.344C540.205 52.3014 540.061 52.1787 539.976 51.976C539.912 51.7947 539.928 51.592 540.024 51.368C540.131 51.144 540.269 50.8934 540.44 50.616C540.504 50.52 540.563 50.424 540.616 50.328C540.68 50.2214 540.733 50.1254 540.776 50.04C540.797 50.008 540.813 49.9814 540.824 49.96C540.835 49.928 540.845 49.9014 540.856 49.88C540.536 49.8267 540.163 49.816 539.736 49.848C539.32 49.8694 538.851 49.9494 538.328 50.088C537.869 50.2054 537.373 50.36 536.84 50.552C536.317 50.7334 535.763 50.952 535.176 51.208C535.059 51.2507 534.941 51.2507 534.824 51.208C534.707 51.1654 534.621 51.0854 534.568 50.968C534.504 50.8507 534.499 50.728 534.552 50.6C534.605 50.4614 534.691 50.3707 534.808 50.328C535.405 50.0614 535.976 49.832 536.52 49.64C537.075 49.4374 537.597 49.2774 538.088 49.16C539.4 48.8294 540.472 48.776 541.304 49C541.549 49.064 541.72 49.2134 541.816 49.448C541.912 49.6827 541.891 49.944 541.752 50.232C541.613 50.52 541.448 50.8187 541.256 51.128C541.245 51.1494 541.229 51.176 541.208 51.208C541.187 51.24 541.165 51.2774 541.144 51.32C541.389 51.2667 541.752 51.16 542.232 51C542.712 50.84 543.373 50.6054 544.216 50.296C544.333 50.2534 544.451 50.264 544.568 50.328C544.696 50.3814 544.781 50.472 544.824 50.6C544.877 50.7174 544.877 50.84 544.824 50.968C544.771 51.0854 544.675 51.1707 544.536 51.224C544.045 51.3947 543.597 51.5494 543.192 51.688C542.787 51.8267 542.424 51.944 542.104 52.04C541.677 52.168 541.352 52.2587 541.128 52.312C540.904 52.3547 540.733 52.376 540.616 52.376Z" fill="#2C393A"/>
<path d="M546.55 52.056C546.497 52.056 546.454 52.0507 546.422 52.04C546.251 51.9974 546.129 51.9334 546.054 51.848C545.99 51.752 545.947 51.6774 545.926 51.624C545.851 51.3894 545.878 51.1494 546.006 50.904C546.134 50.648 546.299 50.3814 546.502 50.104C546.566 50.0187 546.625 49.928 546.678 49.832C546.742 49.7254 546.795 49.6347 546.838 49.56C546.849 49.5494 546.865 49.528 546.886 49.496C546.822 49.5174 546.742 49.5494 546.646 49.592C546.561 49.6347 546.459 49.6987 546.342 49.784C546.15 49.9014 545.947 50.056 545.734 50.248C545.521 50.4294 545.302 50.6214 545.078 50.824C545.025 50.8667 544.966 50.9147 544.902 50.968C544.849 51.0214 544.795 51.0747 544.742 51.128C544.646 51.2134 544.534 51.256 544.406 51.256C544.267 51.2454 544.155 51.1867 544.07 51.08C543.974 50.984 543.931 50.872 543.942 50.744C543.953 50.6054 544.006 50.4934 544.102 50.408C544.155 50.3547 544.214 50.3014 544.278 50.248C544.331 50.1947 544.385 50.1467 544.438 50.104C544.779 49.7947 545.115 49.512 545.446 49.256C545.777 48.9894 546.102 48.7867 546.422 48.648C546.742 48.5094 547.051 48.4827 547.35 48.568C547.531 48.6107 547.659 48.6854 547.734 48.792C547.819 48.888 547.867 48.9734 547.878 49.048C547.974 49.2827 547.953 49.5334 547.814 49.8C547.675 50.056 547.499 50.3387 547.286 50.648C547.265 50.6694 547.238 50.7067 547.206 50.76C547.185 50.8027 547.158 50.8454 547.126 50.888C547.286 50.824 547.494 50.744 547.75 50.648C548.006 50.552 548.315 50.4347 548.678 50.296C548.817 50.2534 548.945 50.264 549.062 50.328C549.179 50.3814 549.259 50.472 549.302 50.6C549.355 50.7174 549.35 50.84 549.286 50.968C549.233 51.0854 549.147 51.1707 549.03 51.224C548.689 51.3414 548.379 51.448 548.102 51.544C547.825 51.64 547.59 51.7254 547.398 51.8C547.291 51.8427 547.195 51.88 547.11 51.912C547.035 51.9334 546.966 51.9547 546.902 51.976C546.827 51.9974 546.763 52.0187 546.71 52.04C546.657 52.0507 546.603 52.056 546.55 52.056Z" fill="#2C393A"/>
<path d="M550.108 53.448C550.033 53.448 549.959 53.4374 549.884 53.416C549.809 53.4054 549.735 53.3947 549.66 53.384C549.468 53.3307 549.335 53.2187 549.26 53.048C549.164 52.8347 549.164 52.5787 549.26 52.28C549.367 51.9707 549.537 51.576 549.772 51.096C549.815 51.0107 549.857 50.9147 549.9 50.808C549.953 50.7014 550.001 50.6 550.044 50.504C549.905 50.5574 549.756 50.648 549.596 50.776C549.447 50.8934 549.292 51.016 549.132 51.144C549.025 51.2187 548.908 51.2507 548.78 51.24C548.641 51.2187 548.529 51.16 548.444 51.064C548.369 50.9574 548.343 50.84 548.364 50.712C548.375 50.584 548.428 50.472 548.524 50.376C548.673 50.2694 548.828 50.152 548.988 50.024C549.159 49.896 549.329 49.7894 549.5 49.704C549.937 49.48 550.337 49.4214 550.7 49.528C550.871 49.56 550.999 49.6667 551.084 49.848C551.169 50.0187 551.164 50.232 551.068 50.488C550.983 50.744 550.833 51.0907 550.62 51.528C550.567 51.656 550.508 51.784 550.444 51.912C550.391 52.04 550.337 52.1627 550.284 52.28C550.273 52.3227 550.257 52.36 550.236 52.392C550.225 52.424 550.215 52.456 550.204 52.488C550.428 52.456 550.753 52.344 551.18 52.152C551.617 51.9494 552.204 51.5547 552.94 50.968C553.335 50.6587 553.692 50.36 554.012 50.072C554.332 49.7734 554.588 49.528 554.78 49.336C554.972 49.144 555.068 49.048 555.068 49.048C555.196 48.8987 555.351 48.8507 555.532 48.904C555.617 48.9147 555.687 48.952 555.74 49.016C555.793 49.0694 555.836 49.1227 555.868 49.176C555.943 49.3254 555.948 49.5014 555.884 49.704C555.831 49.896 555.713 50.2107 555.532 50.648C555.468 50.7867 555.404 50.9254 555.34 51.064C555.287 51.2027 555.233 51.3307 555.18 51.448C555.169 51.4907 555.159 51.528 555.148 51.56C555.148 51.5814 555.143 51.6027 555.132 51.624C555.335 51.592 555.548 51.5067 555.772 51.368C556.007 51.2187 556.231 51.0534 556.444 50.872C556.668 50.6907 556.855 50.536 557.004 50.408C557.111 50.312 557.228 50.2694 557.356 50.28C557.484 50.2907 557.596 50.344 557.692 50.44C557.777 50.5467 557.815 50.664 557.804 50.792C557.804 50.92 557.751 51.032 557.644 51.128C557.313 51.416 556.972 51.688 556.62 51.944C556.279 52.2 555.932 52.392 555.58 52.52C555.239 52.6374 554.892 52.6534 554.54 52.568C554.369 52.4934 554.247 52.3867 554.172 52.248C554.108 52.0987 554.087 51.9334 554.108 51.752C554.14 51.5707 554.204 51.3467 554.3 51.08C554.183 51.1867 554.06 51.288 553.932 51.384C553.815 51.48 553.687 51.5867 553.548 51.704C552.076 52.8667 550.929 53.448 550.108 53.448Z" fill="#2C393A"/>
<path d="M566.405 53.448C566.33 53.448 566.256 53.4374 566.181 53.416C566.106 53.4054 566.032 53.3947 565.957 53.384C565.765 53.3307 565.632 53.2187 565.557 53.048C565.461 52.8347 565.461 52.5787 565.557 52.28C565.664 51.9707 565.834 51.576 566.069 51.096C566.112 51.0107 566.154 50.9147 566.197 50.808C566.25 50.7014 566.298 50.6 566.341 50.504C566.202 50.5574 566.053 50.648 565.893 50.776C565.744 50.8934 565.589 51.016 565.429 51.144C565.322 51.2187 565.205 51.2507 565.077 51.24C564.938 51.2187 564.826 51.16 564.741 51.064C564.666 50.9574 564.64 50.84 564.661 50.712C564.672 50.584 564.725 50.472 564.821 50.376C564.97 50.2694 565.125 50.152 565.285 50.024C565.456 49.896 565.626 49.7894 565.797 49.704C566.234 49.48 566.634 49.4214 566.997 49.528C567.168 49.56 567.296 49.6667 567.381 49.848C567.466 50.0187 567.461 50.232 567.365 50.488C567.28 50.744 567.13 51.0907 566.917 51.528C566.864 51.656 566.805 51.784 566.741 51.912C566.688 52.04 566.634 52.1627 566.581 52.28C566.57 52.3227 566.554 52.36 566.533 52.392C566.522 52.424 566.512 52.456 566.501 52.488C566.725 52.456 567.05 52.344 567.477 52.152C567.914 51.9494 568.501 51.5547 569.237 50.968C569.632 50.6587 569.989 50.36 570.309 50.072C570.629 49.7734 570.885 49.528 571.077 49.336C571.269 49.144 571.365 49.048 571.365 49.048C571.493 48.8987 571.648 48.8507 571.829 48.904C571.914 48.9147 571.984 48.952 572.037 49.016C572.09 49.0694 572.133 49.1227 572.165 49.176C572.24 49.3254 572.245 49.5014 572.181 49.704C572.128 49.896 572.01 50.2107 571.829 50.648C571.765 50.7867 571.701 50.9254 571.637 51.064C571.584 51.2027 571.53 51.3307 571.477 51.448C571.466 51.4907 571.456 51.528 571.445 51.56C571.445 51.5814 571.44 51.6027 571.429 51.624C571.632 51.592 571.845 51.5067 572.069 51.368C572.304 51.2187 572.528 51.0534 572.741 50.872C572.965 50.6907 573.152 50.536 573.301 50.408C573.408 50.312 573.525 50.2694 573.653 50.28C573.781 50.2907 573.893 50.344 573.989 50.44C574.074 50.5467 574.112 50.664 574.101 50.792C574.101 50.92 574.048 51.032 573.941 51.128C573.61 51.416 573.269 51.688 572.917 51.944C572.576 52.2 572.229 52.392 571.877 52.52C571.536 52.6374 571.189 52.6534 570.837 52.568C570.666 52.4934 570.544 52.3867 570.469 52.248C570.405 52.0987 570.384 51.9334 570.405 51.752C570.437 51.5707 570.501 51.3467 570.597 51.08C570.48 51.1867 570.357 51.288 570.229 51.384C570.112 51.48 569.984 51.5867 569.845 51.704C568.373 52.8667 567.226 53.448 566.405 53.448Z" fill="#2C393A"/>
<path d="M574.921 53.448C574.846 53.448 574.771 53.4374 574.697 53.416C574.622 53.4054 574.547 53.3947 574.473 53.384C574.281 53.3307 574.147 53.2187 574.073 53.048C573.977 52.8347 573.977 52.5787 574.073 52.28C574.179 51.9707 574.35 51.576 574.585 51.096C574.627 51.0107 574.67 50.9147 574.713 50.808C574.766 50.7014 574.814 50.6 574.857 50.504C574.718 50.5574 574.569 50.648 574.409 50.776C574.259 50.8934 574.105 51.016 573.945 51.144C573.838 51.2187 573.721 51.2507 573.593 51.24C573.454 51.2187 573.342 51.16 573.257 51.064C573.182 50.9574 573.155 50.84 573.177 50.712C573.187 50.584 573.241 50.472 573.337 50.376C573.486 50.2694 573.641 50.152 573.801 50.024C573.971 49.896 574.142 49.7894 574.313 49.704C574.75 49.48 575.15 49.4214 575.513 49.528C575.683 49.56 575.811 49.6667 575.897 49.848C575.982 50.0187 575.977 50.232 575.881 50.488C575.795 50.744 575.646 51.0907 575.433 51.528C575.379 51.656 575.321 51.784 575.257 51.912C575.203 52.04 575.15 52.1627 575.097 52.28C575.086 52.3227 575.07 52.36 575.049 52.392C575.038 52.424 575.027 52.456 575.017 52.488C575.241 52.456 575.566 52.344 575.993 52.152C576.43 51.9494 577.017 51.5547 577.753 50.968C578.147 50.6587 578.505 50.36 578.825 50.072C579.145 49.7734 579.401 49.528 579.593 49.336C579.785 49.144 579.881 49.048 579.881 49.048C580.009 48.8987 580.163 48.8507 580.345 48.904C580.43 48.9147 580.499 48.952 580.553 49.016C580.606 49.0694 580.649 49.1227 580.681 49.176C580.755 49.3254 580.761 49.5014 580.697 49.704C580.643 49.896 580.526 50.2107 580.345 50.648C580.281 50.7867 580.217 50.9254 580.153 51.064C580.099 51.2027 580.046 51.3307 579.993 51.448C579.982 51.4907 579.971 51.528 579.961 51.56C579.961 51.5814 579.955 51.6027 579.945 51.624C580.147 51.592 580.361 51.5067 580.585 51.368C580.819 51.2187 581.043 51.0534 581.257 50.872C581.481 50.6907 581.667 50.536 581.817 50.408C581.923 50.312 582.041 50.2694 582.169 50.28C582.297 50.2907 582.409 50.344 582.505 50.44C582.59 50.5467 582.627 50.664 582.617 50.792C582.617 50.92 582.563 51.032 582.457 51.128C582.126 51.416 581.785 51.688 581.433 51.944C581.091 52.2 580.745 52.392 580.393 52.52C580.051 52.6374 579.705 52.6534 579.353 52.568C579.182 52.4934 579.059 52.3867 578.985 52.248C578.921 52.0987 578.899 51.9334 578.921 51.752C578.953 51.5707 579.017 51.3467 579.113 51.08C578.995 51.1867 578.873 51.288 578.745 51.384C578.627 51.48 578.499 51.5867 578.361 51.704C576.889 52.8667 575.742 53.448 574.921 53.448Z" fill="#2C393A"/>
<path d="M583.436 53.448C583.362 53.448 583.287 53.4374 583.212 53.416C583.138 53.4054 583.063 53.3947 582.988 53.384C582.796 53.3307 582.663 53.2187 582.588 53.048C582.492 52.8347 582.492 52.5787 582.588 52.28C582.695 51.9707 582.866 51.576 583.1 51.096C583.143 51.0107 583.186 50.9147 583.228 50.808C583.282 50.7014 583.33 50.6 583.372 50.504C583.234 50.5574 583.084 50.648 582.924 50.776C582.775 50.8934 582.62 51.016 582.46 51.144C582.354 51.2187 582.236 51.2507 582.108 51.24C581.97 51.2187 581.858 51.16 581.772 51.064C581.698 50.9574 581.671 50.84 581.692 50.712C581.703 50.584 581.756 50.472 581.852 50.376C582.002 50.2694 582.156 50.152 582.316 50.024C582.487 49.896 582.658 49.7894 582.828 49.704C583.266 49.48 583.666 49.4214 584.028 49.528C584.199 49.56 584.327 49.6667 584.412 49.848C584.498 50.0187 584.492 50.232 584.396 50.488C584.311 50.744 584.162 51.0907 583.948 51.528C583.895 51.656 583.836 51.784 583.772 51.912C583.719 52.04 583.666 52.1627 583.612 52.28C583.602 52.3227 583.586 52.36 583.564 52.392C583.554 52.424 583.543 52.456 583.532 52.488C583.756 52.456 584.082 52.344 584.508 52.152C584.946 51.9494 585.532 51.5547 586.268 50.968C586.663 50.6587 587.02 50.36 587.34 50.072C587.66 49.7734 587.916 49.528 588.108 49.336C588.3 49.144 588.396 49.048 588.396 49.048C588.524 48.8987 588.679 48.8507 588.86 48.904C588.946 48.9147 589.015 48.952 589.068 49.016C589.122 49.0694 589.164 49.1227 589.196 49.176C589.271 49.3254 589.276 49.5014 589.212 49.704C589.159 49.896 589.042 50.2107 588.86 50.648C588.796 50.7867 588.732 50.9254 588.668 51.064C588.615 51.2027 588.562 51.3307 588.508 51.448C588.498 51.4907 588.487 51.528 588.476 51.56C588.476 51.5814 588.471 51.6027 588.46 51.624C588.663 51.592 588.876 51.5067 589.1 51.368C589.335 51.2187 589.559 51.0534 589.772 50.872C589.996 50.6907 590.183 50.536 590.332 50.408C590.439 50.312 590.556 50.2694 590.684 50.28C590.812 50.2907 590.924 50.344 591.02 50.44C591.106 50.5467 591.143 50.664 591.132 50.792C591.132 50.92 591.079 51.032 590.972 51.128C590.642 51.416 590.3 51.688 589.948 51.944C589.607 52.2 589.26 52.392 588.908 52.52C588.567 52.6374 588.22 52.6534 587.868 52.568C587.698 52.4934 587.575 52.3867 587.5 52.248C587.436 52.0987 587.415 51.9334 587.436 51.752C587.468 51.5707 587.532 51.3467 587.628 51.08C587.511 51.1867 587.388 51.288 587.26 51.384C587.143 51.48 587.015 51.5867 586.876 51.704C585.404 52.8667 584.258 53.448 583.436 53.448Z" fill="#2C393A"/>
<path d="M600.581 52.056C600.528 52.056 600.485 52.0507 600.453 52.04C600.282 51.9974 600.16 51.9334 600.085 51.848C600.021 51.752 599.978 51.6774 599.957 51.624C599.882 51.3894 599.909 51.1494 600.037 50.904C600.165 50.648 600.33 50.3814 600.533 50.104C600.597 50.0187 600.656 49.928 600.709 49.832C600.773 49.7254 600.826 49.6347 600.869 49.56C600.88 49.5494 600.896 49.528 600.917 49.496C600.853 49.5174 600.773 49.5494 600.677 49.592C600.592 49.6347 600.49 49.6987 600.373 49.784C600.181 49.9014 599.978 50.056 599.765 50.248C599.552 50.4294 599.333 50.6214 599.109 50.824C599.056 50.8667 598.997 50.9147 598.933 50.968C598.88 51.0214 598.826 51.0747 598.773 51.128C598.677 51.2134 598.565 51.256 598.437 51.256C598.298 51.2454 598.186 51.1867 598.101 51.08C598.005 50.984 597.962 50.872 597.973 50.744C597.984 50.6054 598.037 50.4934 598.133 50.408C598.186 50.3547 598.245 50.3014 598.309 50.248C598.362 50.1947 598.416 50.1467 598.469 50.104C598.81 49.7947 599.146 49.512 599.477 49.256C599.808 48.9894 600.133 48.7867 600.453 48.648C600.773 48.5094 601.082 48.4827 601.381 48.568C601.562 48.6107 601.69 48.6854 601.765 48.792C601.85 48.888 601.898 48.9734 601.909 49.048C602.005 49.2827 601.984 49.5334 601.845 49.8C601.706 50.056 601.53 50.3387 601.317 50.648C601.296 50.6694 601.269 50.7067 601.237 50.76C601.216 50.8027 601.189 50.8454 601.157 50.888C601.317 50.824 601.525 50.744 601.781 50.648C602.037 50.552 602.346 50.4347 602.709 50.296C602.848 50.2534 602.976 50.264 603.093 50.328C603.21 50.3814 603.29 50.472 603.333 50.6C603.386 50.7174 603.381 50.84 603.317 50.968C603.264 51.0854 603.178 51.1707 603.061 51.224C602.72 51.3414 602.41 51.448 602.133 51.544C601.856 51.64 601.621 51.7254 601.429 51.8C601.322 51.8427 601.226 51.88 601.141 51.912C601.066 51.9334 600.997 51.9547 600.933 51.976C600.858 51.9974 600.794 52.0187 600.741 52.04C600.688 52.0507 600.634 52.056 600.581 52.056Z" fill="#2C393A"/>
<path d="M604.139 53.448C604.065 53.448 603.99 53.4374 603.915 53.416C603.841 53.4054 603.766 53.3947 603.691 53.384C603.499 53.3307 603.366 53.2187 603.291 53.048C603.195 52.8347 603.195 52.5787 603.291 52.28C603.398 51.9707 603.569 51.576 603.803 51.096C603.846 51.0107 603.889 50.9147 603.931 50.808C603.985 50.7014 604.033 50.6 604.075 50.504C603.937 50.5574 603.787 50.648 603.627 50.776C603.478 50.8934 603.323 51.016 603.163 51.144C603.057 51.2187 602.939 51.2507 602.811 51.24C602.673 51.2187 602.561 51.16 602.475 51.064C602.401 50.9574 602.374 50.84 602.395 50.712C602.406 50.584 602.459 50.472 602.555 50.376C602.705 50.2694 602.859 50.152 603.019 50.024C603.19 49.896 603.361 49.7894 603.531 49.704C603.969 49.48 604.369 49.4214 604.731 49.528C604.902 49.56 605.03 49.6667 605.115 49.848C605.201 50.0187 605.195 50.232 605.099 50.488C605.014 50.744 604.865 51.0907 604.651 51.528C604.598 51.656 604.539 51.784 604.475 51.912C604.422 52.04 604.369 52.1627 604.315 52.28C604.305 52.3227 604.289 52.36 604.267 52.392C604.257 52.424 604.246 52.456 604.235 52.488C604.459 52.456 604.785 52.344 605.211 52.152C605.649 51.9494 606.235 51.5547 606.971 50.968C607.366 50.6587 607.723 50.36 608.043 50.072C608.363 49.7734 608.619 49.528 608.811 49.336C609.003 49.144 609.099 49.048 609.099 49.048C609.227 48.8987 609.382 48.8507 609.563 48.904C609.649 48.9147 609.718 48.952 609.771 49.016C609.825 49.0694 609.867 49.1227 609.899 49.176C609.974 49.3254 609.979 49.5014 609.915 49.704C609.862 49.896 609.745 50.2107 609.563 50.648C609.499 50.7867 609.435 50.9254 609.371 51.064C609.318 51.2027 609.265 51.3307 609.211 51.448C609.201 51.4907 609.19 51.528 609.179 51.56C609.179 51.5814 609.174 51.6027 609.163 51.624C609.366 51.592 609.579 51.5067 609.803 51.368C610.038 51.2187 610.262 51.0534 610.475 50.872C610.699 50.6907 610.886 50.536 611.035 50.408C611.142 50.312 611.259 50.2694 611.387 50.28C611.515 50.2907 611.627 50.344 611.723 50.44C611.809 50.5467 611.846 50.664 611.835 50.792C611.835 50.92 611.782 51.032 611.675 51.128C611.345 51.416 611.003 51.688 610.651 51.944C610.31 52.2 609.963 52.392 609.611 52.52C609.27 52.6374 608.923 52.6534 608.571 52.568C608.401 52.4934 608.278 52.3867 608.203 52.248C608.139 52.0987 608.118 51.9334 608.139 51.752C608.171 51.5707 608.235 51.3467 608.331 51.08C608.214 51.1867 608.091 51.288 607.963 51.384C607.846 51.48 607.718 51.5867 607.579 51.704C606.107 52.8667 604.961 53.448 604.139 53.448Z" fill="#2C393A"/>
<path d="M612.655 53.448C612.58 53.448 612.506 53.4374 612.431 53.416C612.356 53.4054 612.282 53.3947 612.207 53.384C612.015 53.3307 611.882 53.2187 611.807 53.048C611.711 52.8347 611.711 52.5787 611.807 52.28C611.914 51.9707 612.084 51.576 612.319 51.096C612.362 51.0107 612.404 50.9147 612.447 50.808C612.5 50.7014 612.548 50.6 612.591 50.504C612.452 50.5574 612.303 50.648 612.143 50.776C611.994 50.8934 611.839 51.016 611.679 51.144C611.572 51.2187 611.455 51.2507 611.327 51.24C611.188 51.2187 611.076 51.16 610.991 51.064C610.916 50.9574 610.89 50.84 610.911 50.712C610.922 50.584 610.975 50.472 611.071 50.376C611.22 50.2694 611.375 50.152 611.535 50.024C611.706 49.896 611.876 49.7894 612.047 49.704C612.484 49.48 612.884 49.4214 613.247 49.528C613.418 49.56 613.546 49.6667 613.631 49.848C613.716 50.0187 613.711 50.232 613.615 50.488C613.53 50.744 613.38 51.0907 613.167 51.528C613.114 51.656 613.055 51.784 612.991 51.912C612.938 52.04 612.884 52.1627 612.831 52.28C612.82 52.3227 612.804 52.36 612.783 52.392C612.772 52.424 612.762 52.456 612.751 52.488C612.975 52.456 613.3 52.344 613.727 52.152C614.164 51.9494 614.751 51.5547 615.487 50.968C615.882 50.6587 616.239 50.36 616.559 50.072C616.879 49.7734 617.135 49.528 617.327 49.336C617.519 49.144 617.615 49.048 617.615 49.048C617.743 48.8987 617.898 48.8507 618.079 48.904C618.164 48.9147 618.234 48.952 618.287 49.016C618.34 49.0694 618.383 49.1227 618.415 49.176C618.49 49.3254 618.495 49.5014 618.431 49.704C618.378 49.896 618.26 50.2107 618.079 50.648C618.015 50.7867 617.951 50.9254 617.887 51.064C617.834 51.2027 617.78 51.3307 617.727 51.448C617.716 51.4907 617.706 51.528 617.695 51.56C617.695 51.5814 617.69 51.6027 617.679 51.624C617.882 51.592 618.095 51.5067 618.319 51.368C618.554 51.2187 618.778 51.0534 618.991 50.872C619.215 50.6907 619.402 50.536 619.551 50.408C619.658 50.312 619.775 50.2694 619.903 50.28C620.031 50.2907 620.143 50.344 620.239 50.44C620.324 50.5467 620.362 50.664 620.351 50.792C620.351 50.92 620.298 51.032 620.191 51.128C619.86 51.416 619.519 51.688 619.167 51.944C618.826 52.2 618.479 52.392 618.127 52.52C617.786 52.6374 617.439 52.6534 617.087 52.568C616.916 52.4934 616.794 52.3867 616.719 52.248C616.655 52.0987 616.634 51.9334 616.655 51.752C616.687 51.5707 616.751 51.3467 616.847 51.08C616.73 51.1867 616.607 51.288 616.479 51.384C616.362 51.48 616.234 51.5867 616.095 51.704C614.623 52.8667 613.476 53.448 612.655 53.448Z" fill="#2C393A"/>
<path d="M621.171 53.448C621.096 53.448 621.021 53.4374 620.947 53.416C620.872 53.4054 620.797 53.3947 620.723 53.384C620.531 53.3307 620.397 53.2187 620.323 53.048C620.227 52.8347 620.227 52.5787 620.323 52.28C620.429 51.9707 620.6 51.576 620.835 51.096C620.877 51.0107 620.92 50.9147 620.963 50.808C621.016 50.7014 621.064 50.6 621.107 50.504C620.968 50.5574 620.819 50.648 620.659 50.776C620.509 50.8934 620.355 51.016 620.195 51.144C620.088 51.2187 619.971 51.2507 619.843 51.24C619.704 51.2187 619.592 51.16 619.507 51.064C619.432 50.9574 619.405 50.84 619.427 50.712C619.437 50.584 619.491 50.472 619.587 50.376C619.736 50.2694 619.891 50.152 620.051 50.024C620.221 49.896 620.392 49.7894 620.563 49.704C621 49.48 621.4 49.4214 621.763 49.528C621.933 49.56 622.061 49.6667 622.147 49.848C622.232 50.0187 622.227 50.232 622.131 50.488C622.045 50.744 621.896 51.0907 621.683 51.528C621.629 51.656 621.571 51.784 621.507 51.912C621.453 52.04 621.4 52.1627 621.347 52.28C621.336 52.3227 621.32 52.36 621.299 52.392C621.288 52.424 621.277 52.456 621.267 52.488C621.491 52.456 621.816 52.344 622.243 52.152C622.68 51.9494 623.267 51.5547 624.003 50.968C624.397 50.6587 624.755 50.36 625.075 50.072C625.395 49.7734 625.651 49.528 625.843 49.336C626.035 49.144 626.131 49.048 626.131 49.048C626.259 48.8987 626.413 48.8507 626.595 48.904C626.68 48.9147 626.749 48.952 626.803 49.016C626.856 49.0694 626.899 49.1227 626.931 49.176C627.005 49.3254 627.011 49.5014 626.947 49.704C626.893 49.896 626.776 50.2107 626.595 50.648C626.531 50.7867 626.467 50.9254 626.403 51.064C626.349 51.2027 626.296 51.3307 626.243 51.448C626.232 51.4907 626.221 51.528 626.211 51.56C626.211 51.5814 626.205 51.6027 626.195 51.624C626.397 51.592 626.611 51.5067 626.835 51.368C627.069 51.2187 627.293 51.0534 627.507 50.872C627.731 50.6907 627.917 50.536 628.067 50.408C628.173 50.312 628.291 50.2694 628.419 50.28C628.547 50.2907 628.659 50.344 628.755 50.44C628.84 50.5467 628.877 50.664 628.867 50.792C628.867 50.92 628.813 51.032 628.707 51.128C628.376 51.416 628.035 51.688 627.683 51.944C627.341 52.2 626.995 52.392 626.643 52.52C626.301 52.6374 625.955 52.6534 625.603 52.568C625.432 52.4934 625.309 52.3867 625.235 52.248C625.171 52.0987 625.149 51.9334 625.171 51.752C625.203 51.5707 625.267 51.3467 625.363 51.08C625.245 51.1867 625.123 51.288 624.995 51.384C624.877 51.48 624.749 51.5867 624.611 51.704C623.139 52.8667 621.992 53.448 621.171 53.448Z" fill="#2C393A"/>
</g>
</svg>
