<svg width="720" height="480" viewBox="0 0 720 480" fill="none" xmlns="http://www.w3.org/2000/svg">
<rect width="720" height="480" fill="#F9F9F1"/>
<path d="M157.6 255.656C159.221 254.643 161.279 254.643 162.9 255.656L183.466 268.51C186.599 270.468 186.599 275.032 183.466 276.99L162.9 289.844C161.279 290.857 159.221 290.857 157.6 289.844L137.034 276.99C133.901 275.032 133.901 270.468 137.034 268.51L157.6 255.656Z" fill="#BF3C7A"/>
<path d="M242.6 255.656C244.221 254.643 246.279 254.643 247.9 255.656L268.466 268.51C271.599 270.468 271.599 275.032 268.466 276.99L247.9 289.844C246.279 290.857 244.221 290.857 242.6 289.844L222.034 276.99C218.901 275.032 218.901 270.468 222.034 268.51L242.6 255.656Z" fill="#BF3C7A"/>
<path d="M483.85 193.156C485.471 192.143 487.529 192.143 489.15 193.156L509.716 206.01C512.849 207.968 512.849 212.532 509.716 214.49L489.15 227.344C487.529 228.357 485.471 228.357 483.85 227.344L463.284 214.49C460.151 212.532 460.151 207.968 463.284 206.01L483.85 193.156Z" fill="#BF3C7A"/>
<path d="M242.6 193.156C244.221 192.143 246.279 192.143 247.9 193.156L268.466 206.01C271.599 207.968 271.599 212.532 268.466 214.49L247.9 227.344C246.279 228.357 244.221 228.357 242.6 227.344L222.034 214.49C218.901 212.532 218.901 207.968 222.034 206.01L242.6 193.156Z" fill="#BF3C7A"/>
<path fill-rule="evenodd" clip-rule="evenodd" d="M459.442 392.308C459.686 392.552 459.686 392.948 459.442 393.192L455.464 397.169C455.22 397.414 454.825 397.414 454.581 397.169C454.337 396.925 454.337 396.53 454.581 396.286L457.491 393.375L436.5 393.375C436.155 393.375 435.875 393.095 435.875 392.75C435.875 392.405 436.155 392.125 436.5 392.125L457.491 392.125L454.581 389.215C454.337 388.97 454.337 388.575 454.581 388.331C454.825 388.087 455.22 388.087 455.464 388.331L459.442 392.308Z" fill="#49461F"/>
<path fill-rule="evenodd" clip-rule="evenodd" d="M459.442 209.808C459.686 210.052 459.686 210.448 459.442 210.692L455.464 214.669C455.22 214.914 454.825 214.914 454.581 214.669C454.337 214.425 454.337 214.03 454.581 213.786L457.491 210.875L436.5 210.875C436.155 210.875 435.875 210.595 435.875 210.25C435.875 209.905 436.155 209.625 436.5 209.625L457.491 209.625L454.581 206.715C454.337 206.47 454.337 206.075 454.581 205.831C454.825 205.587 455.22 205.587 455.464 205.831L459.442 209.808Z" fill="#49461F"/>
<path fill-rule="evenodd" clip-rule="evenodd" d="M543.192 209.808C543.436 210.052 543.436 210.448 543.192 210.692L539.214 214.669C538.97 214.914 538.575 214.914 538.331 214.669C538.087 214.425 538.087 214.03 538.331 213.786L541.241 210.875H514C513.655 210.875 513.375 210.595 513.375 210.25C513.375 209.905 513.655 209.625 514 209.625H541.241L538.331 206.715C538.087 206.47 538.087 206.075 538.331 205.831C538.575 205.587 538.97 205.587 539.214 205.831L543.192 209.808Z" fill="#49461F"/>
<path fill-rule="evenodd" clip-rule="evenodd" d="M486.942 255.692C486.698 255.936 486.302 255.936 486.058 255.692L482.081 251.714C481.836 251.47 481.836 251.075 482.081 250.831C482.325 250.587 482.72 250.587 482.964 250.831L485.875 253.741L485.875 231.5C485.875 231.155 486.155 230.875 486.5 230.875C486.845 230.875 487.125 231.155 487.125 231.5L487.125 253.741L490.035 250.831C490.28 250.587 490.675 250.587 490.919 250.831C491.163 251.075 491.163 251.47 490.919 251.714L486.942 255.692Z" fill="#49461F"/>
<path fill-rule="evenodd" clip-rule="evenodd" d="M406.058 349.808C406.302 349.564 406.698 349.564 406.942 349.808L410.919 353.786C411.164 354.03 411.164 354.425 410.919 354.669C410.675 354.913 410.28 354.913 410.036 354.669L407.125 351.759L407.125 376.5C407.125 376.845 406.845 377.125 406.5 377.125C406.155 377.125 405.875 376.845 405.875 376.5L405.875 351.759L402.965 354.669C402.72 354.913 402.325 354.913 402.081 354.669C401.837 354.425 401.837 354.03 402.081 353.786L406.058 349.808Z" fill="#49461F"/>
<path fill-rule="evenodd" clip-rule="evenodd" d="M245.692 376.942C245.448 377.186 245.052 377.186 244.808 376.942L240.831 372.964C240.586 372.72 240.586 372.325 240.831 372.081C241.075 371.837 241.47 371.837 241.714 372.081L244.625 374.991L244.625 356.5C244.625 356.155 244.905 355.875 245.25 355.875C245.595 355.875 245.875 356.155 245.875 356.5L245.875 374.991L248.785 372.081C249.03 371.837 249.425 371.837 249.669 372.081C249.913 372.325 249.913 372.72 249.669 372.964L245.692 376.942Z" fill="#49461F"/>
<path fill-rule="evenodd" clip-rule="evenodd" d="M245.692 311.942C245.448 312.186 245.052 312.186 244.808 311.942L240.831 307.964C240.586 307.72 240.586 307.325 240.831 307.081C241.075 306.837 241.47 306.837 241.714 307.081L244.625 309.991L244.625 294C244.625 293.655 244.905 293.375 245.25 293.375C245.595 293.375 245.875 293.655 245.875 294L245.875 309.991L248.785 307.081C249.03 306.837 249.425 306.837 249.669 307.081C249.913 307.325 249.913 307.72 249.669 307.964L245.692 311.942Z" fill="#49461F"/>
<path fill-rule="evenodd" clip-rule="evenodd" d="M268.558 335.692C268.314 335.448 268.314 335.052 268.558 334.808L272.536 330.83C272.78 330.586 273.175 330.586 273.419 330.83C273.664 331.075 273.664 331.47 273.419 331.714L270.509 334.625L327.75 334.625C328.095 334.625 328.375 334.345 328.375 334L328.375 287.75C328.375 287.405 328.655 287.125 329 287.125C329.345 287.125 329.625 287.405 329.625 287.75L329.625 334C329.625 335.035 328.786 335.875 327.75 335.875L270.509 335.875L273.419 338.785C273.664 339.03 273.664 339.425 273.419 339.669C273.175 339.913 272.78 339.913 272.536 339.669L268.558 335.692Z" fill="#49461F"/>
<path fill-rule="evenodd" clip-rule="evenodd" d="M245.692 253.192C245.448 253.436 245.052 253.436 244.808 253.192L240.831 249.214C240.586 248.97 240.586 248.575 240.831 248.331C241.075 248.087 241.47 248.087 241.714 248.331L244.625 251.241L244.625 230.25C244.625 229.905 244.905 229.625 245.25 229.625C245.595 229.625 245.875 229.905 245.875 230.25L245.875 251.241L248.785 248.331C249.03 248.087 249.425 248.087 249.669 248.331C249.913 248.575 249.913 248.97 249.669 249.214L245.692 253.192Z" fill="#49461F"/>
<path fill-rule="evenodd" clip-rule="evenodd" d="M245.692 190.692C245.448 190.936 245.052 190.936 244.808 190.692L240.831 186.714C240.586 186.47 240.586 186.075 240.831 185.831C241.075 185.587 241.47 185.587 241.714 185.831L244.625 188.741L244.625 170.25C244.625 169.905 244.905 169.625 245.25 169.625C245.595 169.625 245.875 169.905 245.875 170.25L245.875 188.741L248.785 185.831C249.03 185.587 249.425 185.587 249.669 185.831C249.913 186.075 249.913 186.47 249.669 186.714L245.692 190.692Z" fill="#49461F"/>
<path fill-rule="evenodd" clip-rule="evenodd" d="M160.692 253.192C160.448 253.436 160.052 253.436 159.808 253.192L155.831 249.214C155.586 248.97 155.586 248.575 155.831 248.331C156.075 248.087 156.47 248.087 156.714 248.331L159.625 251.241L159.625 226.5C159.625 226.155 159.905 225.875 160.25 225.875C160.595 225.875 160.875 226.155 160.875 226.5L160.875 251.241L163.785 248.331C164.03 248.087 164.425 248.087 164.669 248.331C164.913 248.575 164.913 248.97 164.669 249.214L160.692 253.192Z" fill="#49461F"/>
<path fill-rule="evenodd" clip-rule="evenodd" d="M161.5 335.875C160.464 335.875 159.625 335.035 159.625 334L159.625 292.75C159.625 292.405 159.905 292.125 160.25 292.125C160.595 292.125 160.875 292.405 160.875 292.75L160.875 334C160.875 334.345 161.155 334.625 161.5 334.625L221.241 334.625L218.331 331.714C218.087 331.47 218.087 331.075 218.331 330.83C218.575 330.586 218.97 330.586 219.214 330.83L223.192 334.808C223.436 335.052 223.436 335.448 223.192 335.692L219.214 339.669C218.97 339.913 218.575 339.913 218.331 339.669C218.087 339.425 218.087 339.029 218.331 338.785L221.241 335.875L161.5 335.875Z" fill="#49461F"/>
<path fill-rule="evenodd" clip-rule="evenodd" d="M160.692 194.442C160.448 194.686 160.052 194.686 159.808 194.442L155.831 190.464C155.586 190.22 155.586 189.825 155.831 189.581C156.075 189.337 156.47 189.337 156.714 189.581L159.625 192.491L159.625 170.25C159.625 169.905 159.905 169.625 160.25 169.625C160.595 169.625 160.875 169.905 160.875 170.25L160.875 192.491L163.785 189.581C164.03 189.337 164.425 189.337 164.669 189.581C164.913 189.825 164.913 190.22 164.669 190.464L160.692 194.442Z" fill="#49461F"/>
<path fill-rule="evenodd" clip-rule="evenodd" d="M161.5 122.125C161.155 122.125 160.875 122.405 160.875 122.75L160.875 137.491L163.786 134.581C164.03 134.337 164.425 134.337 164.669 134.581C164.913 134.825 164.913 135.22 164.669 135.465L160.692 139.442C160.448 139.686 160.052 139.686 159.808 139.442L155.831 135.465C155.586 135.22 155.586 134.825 155.831 134.581C156.075 134.337 156.47 134.337 156.714 134.581L159.625 137.491L159.625 122.75C159.625 121.715 160.464 120.875 161.5 120.875L201.5 120.875C201.845 120.875 202.125 120.595 202.125 120.25L202.125 104C202.125 103.655 202.405 103.375 202.75 103.375C203.095 103.375 203.375 103.655 203.375 104L203.375 120.25C203.375 121.286 202.536 122.125 201.5 122.125L161.5 122.125Z" fill="#49461F"/>
<path fill-rule="evenodd" clip-rule="evenodd" d="M243.838 122.125C244.183 122.125 244.463 122.405 244.463 122.75L244.463 137.491L241.552 134.581C241.308 134.337 240.912 134.337 240.668 134.581C240.424 134.825 240.424 135.22 240.668 135.465L244.646 139.442C244.89 139.686 245.286 139.686 245.53 139.442L249.507 135.465C249.751 135.22 249.751 134.825 249.507 134.581C249.263 134.337 248.867 134.337 248.623 134.581L245.713 137.491L245.713 122.75C245.713 121.715 244.873 120.875 243.838 120.875L203.838 120.875C203.492 120.875 203.213 120.595 203.213 120.25L203.213 104C203.213 103.655 202.933 103.375 202.588 103.375C202.242 103.375 201.963 103.655 201.963 104L201.963 120.25C201.963 121.286 202.802 122.125 203.838 122.125L243.838 122.125Z" fill="#49461F"/>
<path fill-rule="evenodd" clip-rule="evenodd" d="M244.625 240.25C244.625 239.905 244.905 239.625 245.25 239.625L327.75 239.625C328.785 239.625 329.625 240.464 329.625 241.5L329.625 254.991L332.535 252.081C332.78 251.836 333.175 251.836 333.419 252.081C333.663 252.325 333.663 252.72 333.419 252.964L329.442 256.942C329.198 257.186 328.802 257.186 328.558 256.942L324.581 252.964C324.336 252.72 324.336 252.325 324.581 252.081C324.825 251.836 325.22 251.836 325.464 252.081L328.375 254.991L328.375 241.5C328.375 241.155 328.095 240.875 327.75 240.875L245.25 240.875C244.905 240.875 244.625 240.595 244.625 240.25Z" fill="#49461F"/>
<path fill-rule="evenodd" clip-rule="evenodd" d="M406.058 226.058C406.302 225.814 406.698 225.814 406.942 226.058L410.919 230.036C411.164 230.28 411.164 230.675 410.919 230.919C410.675 231.163 410.28 231.163 410.036 230.919L407.125 228.009L407.125 317.75C407.125 318.095 406.845 318.375 406.5 318.375C406.155 318.375 405.875 318.095 405.875 317.75L405.875 228.009L402.965 230.919C402.72 231.163 402.325 231.163 402.081 230.919C401.837 230.675 401.837 230.28 402.081 230.036L406.058 226.058Z" fill="#49461F"/>
<path fill-rule="evenodd" clip-rule="evenodd" d="M378.192 392.308C378.436 392.552 378.436 392.948 378.192 393.192L374.214 397.169C373.97 397.414 373.575 397.414 373.331 397.169C373.087 396.925 373.087 396.53 373.331 396.286L376.241 393.375L359 393.375C358.655 393.375 358.375 393.095 358.375 392.75C358.375 392.405 358.655 392.125 359 392.125L376.241 392.125L373.331 389.215C373.087 388.97 373.087 388.575 373.331 388.331C373.575 388.087 373.97 388.087 374.214 388.331L378.192 392.308Z" fill="#49461F"/>
<path fill-rule="evenodd" clip-rule="evenodd" d="M378.192 209.808C378.436 210.052 378.436 210.448 378.192 210.692L374.214 214.669C373.97 214.914 373.575 214.914 373.331 214.669C373.087 214.425 373.087 214.03 373.331 213.786L376.241 210.875L359 210.875C358.655 210.875 358.375 210.595 358.375 210.25C358.375 209.905 358.655 209.625 359 209.625L376.241 209.625L373.331 206.715C373.087 206.47 373.087 206.075 373.331 205.831C373.575 205.587 373.97 205.587 374.214 205.831L378.192 209.808Z" fill="#49461F"/>
<path fill-rule="evenodd" clip-rule="evenodd" d="M301.942 209.808C302.186 210.052 302.186 210.448 301.942 210.692L297.964 214.669C297.72 214.914 297.325 214.914 297.081 214.669C296.837 214.425 296.837 214.03 297.081 213.786L299.991 210.875L272.75 210.875C272.405 210.875 272.125 210.595 272.125 210.25C272.125 209.905 272.405 209.625 272.75 209.625L299.991 209.625L297.081 206.715C296.837 206.47 296.837 206.075 297.081 205.831C297.325 205.587 297.72 205.587 297.964 205.831L301.942 209.808Z" fill="#49461F"/>
<path fill-rule="evenodd" clip-rule="evenodd" d="M304.442 272.308C304.686 272.552 304.686 272.948 304.442 273.192L300.464 277.169C300.22 277.414 299.825 277.414 299.581 277.169C299.337 276.925 299.337 276.53 299.581 276.286L302.491 273.375H272.75C272.405 273.375 272.125 273.095 272.125 272.75C272.125 272.405 272.405 272.125 272.75 272.125H302.491L299.581 269.215C299.337 268.97 299.337 268.575 299.581 268.331C299.825 268.087 300.22 268.087 300.464 268.331L304.442 272.308Z" fill="#49461F"/>
<path fill-rule="evenodd" clip-rule="evenodd" d="M301.942 392.308C302.186 392.552 302.186 392.948 301.942 393.192L297.964 397.169C297.72 397.414 297.325 397.414 297.081 397.169C296.837 396.925 296.837 396.53 297.081 396.286L299.991 393.375L272.75 393.375C272.405 393.375 272.125 393.095 272.125 392.75C272.125 392.405 272.405 392.125 272.75 392.125L299.991 392.125L297.081 389.215C296.837 388.97 296.837 388.575 297.081 388.331C297.325 388.087 297.72 388.087 297.964 388.331L301.942 392.308Z" fill="#49461F"/>
<path d="M220.25 144C220.25 141.929 221.929 140.25 224 140.25H266.5C268.571 140.25 270.25 141.929 270.25 144V164C270.25 166.071 268.571 167.75 266.5 167.75H224C221.929 167.75 220.25 166.071 220.25 164V144Z" fill="#BF3C7A"/>
<path d="M305.25 262.75C305.25 260.679 306.929 259 309 259H351.5C353.571 259 355.25 260.679 355.25 262.75V282.75C355.25 284.821 353.571 286.5 351.5 286.5H309C306.929 286.5 305.25 284.821 305.25 282.75V262.75Z" fill="#BF3C7A"/>
<path d="M381.5 324C381.5 321.929 383.179 320.25 385.25 320.25H427.75C429.821 320.25 431.5 321.929 431.5 324V344C431.5 346.071 429.821 347.75 427.75 347.75H385.25C383.179 347.75 381.5 346.071 381.5 344V324Z" fill="#BF3C7A"/>
<path d="M461.5 382.75C461.5 380.679 463.179 379 465.25 379H507.75C509.821 379 511.5 380.679 511.5 382.75V402.75C511.5 404.821 509.821 406.5 507.75 406.5H465.25C463.179 406.5 461.5 404.821 461.5 402.75V382.75Z" fill="#BF3C7A"/>
<path d="M220.25 382.75C220.25 380.679 221.929 379 224 379H266.5C268.571 379 270.25 380.679 270.25 382.75V402.75C270.25 404.821 268.571 406.5 266.5 406.5H224C221.929 406.5 220.25 404.821 220.25 402.75V382.75Z" fill="#BF3C7A"/>
<path d="M135.25 144C135.25 141.929 136.929 140.25 139 140.25H181.5C183.571 140.25 185.25 141.929 185.25 144V164C185.25 166.071 183.571 167.75 181.5 167.75H139C136.929 167.75 135.25 166.071 135.25 164V144Z" fill="#BF3C7A"/>
<path d="M134 210.25C134 202.656 140.156 196.5 147.75 196.5H172.75C180.344 196.5 186.5 202.656 186.5 210.25V210.25C186.5 217.844 180.344 224 172.75 224H147.75C140.156 224 134 217.844 134 210.25V210.25Z" fill="#BF3C7A"/>
<path d="M176.5 87.75C176.5 80.1561 182.656 74 190.25 74H215.25C222.844 74 229 80.1561 229 87.75V87.75C229 95.3439 222.844 101.5 215.25 101.5H190.25C182.656 101.5 176.5 95.3439 176.5 87.75V87.75Z" fill="#BF3C7A"/>
<path d="M380.25 210.25C380.25 202.656 386.406 196.5 394 196.5H419C426.594 196.5 432.75 202.656 432.75 210.25V210.25C432.75 217.844 426.594 224 419 224H394C386.406 224 380.25 217.844 380.25 210.25V210.25Z" fill="#BF3C7A"/>
<path d="M460.25 272.75C460.25 265.156 466.406 259 474 259H499C506.594 259 512.75 265.156 512.75 272.75V272.75C512.75 280.344 506.594 286.5 499 286.5H474C466.406 286.5 460.25 280.344 460.25 272.75V272.75Z" fill="#BF3C7A"/>
<path d="M380.25 392.75C380.25 385.156 386.406 379 394 379H419C426.594 379 432.75 385.156 432.75 392.75V392.75C432.75 400.344 426.594 406.5 419 406.5H394C386.406 406.5 380.25 400.344 380.25 392.75V392.75Z" fill="#BF3C7A"/>
<path d="M304 210.25C304 202.656 310.156 196.5 317.75 196.5H342.75C350.344 196.5 356.5 202.656 356.5 210.25V210.25C356.5 217.844 350.344 224 342.75 224H317.75C310.156 224 304 217.844 304 210.25V210.25Z" fill="#BF3C7A"/>
<path d="M304 392.75C304 385.156 310.156 379 317.75 379H342.75C350.344 379 356.5 385.156 356.5 392.75V392.75C356.5 400.344 350.344 406.5 342.75 406.5H317.75C310.156 406.5 304 400.344 304 392.75V392.75Z" fill="#BF3C7A"/>
<path d="M225.25 334C225.25 322.954 234.204 314 245.25 314V314C256.296 314 265.25 322.954 265.25 334V334C265.25 345.046 256.296 354 245.25 354V354C234.204 354 225.25 345.046 225.25 334V334Z" fill="#BF3C7A"/>
<path d="M546.5 210.25C546.5 199.204 555.454 190.25 566.5 190.25V190.25C577.546 190.25 586.5 199.204 586.5 210.25V210.25C586.5 221.296 577.546 230.25 566.5 230.25V230.25C555.454 230.25 546.5 221.296 546.5 210.25V210.25Z" fill="#BF3C7A"/>
</svg>
