<?xml version="1.0" standalone="no"?>
<!DOCTYPE svg PUBLIC "-//W3C//DTD SVG 1.1//EN" "http://www.w3.org/Graphics/SVG/1.1/DTD/svg11.dtd">
<svg xmlns="http://www.w3.org/2000/svg">
<defs >
<font id="IBMPlexSansCondensed" horiz-adv-x="535" ><font-face
    font-family="IBM Plex Sans Condensed Medium"
    units-per-em="1000"
    panose-1="2 11 6 6 5 2 3 0 2 3"
    ascent="1025"
    descent="-275"
    alphabetic="0" />
<glyph unicode=" " glyph-name="space" horiz-adv-x="212" />
<glyph unicode="!" glyph-name="exclam" horiz-adv-x="272" d="M112 197L81 498V698H191V498L161 197H112ZM136 -12Q100 -12 83 3T66 47V69Q66 97 83 112T136 128Q172 128 189 113T206 69V47Q206 19 189 4T136 -12Z" />
<glyph unicode="&quot;" glyph-name="quotedbl" horiz-adv-x="411" d="M69 445V740H161V445H69ZM250 445V740H342V445H250Z" />
<glyph unicode="#" glyph-name="numbersign" horiz-adv-x="605" d="M348 192H204L174 0H105L134 192H31V257H144L174 441H69V506H184L213 698H282L253 506H397L427 698H496L467 506H570V441H457L427 257H532V192H417L388 0H319L348 192ZM358 257L387 441H243L214
257H358Z" />
<glyph unicode="$" glyph-name="dollar" horiz-adv-x="537" d="M499 206Q499 114 452 64T317 3V-82H234V3Q171 9 122 36T38 108L106 170Q129 137 164 115T241 86V321Q145 344 101 388T57 509Q57 592 103 639T234 695V780H317V695Q375 689 418 665T490 598L423
542Q380 602 309 611V397Q358 385 394 369T453 330T488 277T499 206ZM155 517Q155 473 176 450T241 414V611Q155 599 155 517ZM402 195Q402 239 380 264T309 304V87Q354 95 378 121T402 195Z" />
<glyph unicode="%" glyph-name="percent" horiz-adv-x="857" d="M164 0L600 698H693L257 0H164ZM205 314Q131 314 92 360T52 512Q52 617 91 663T205 710Q278 710 318 664T358 512Q358 407 318 361T205 314ZM205 377Q237 377 252 397T268 464V560Q268 606 253 626T205
647Q173 647 158 627T142 560V464Q142 418 157 398T205 377ZM652 -12Q578 -12 539 34T499 186Q499 291 538 337T652 384Q725 384 765 338T805 186Q805 81 765 35T652 -12ZM652 51Q684 51 699 71T715 138V234Q715 280 700 300T652 321Q620 321 605 301T589 234V138Q589
92 604 72T652 51Z" />
<glyph unicode="&amp;" glyph-name="ampersand" horiz-adv-x="637" d="M416 104H404Q396 52 353 20T247 -12Q153 -12 104 39T55 182Q55 251 87 297T182 378Q105 470 105 556Q105 628 150 669T277 710Q359 710 404 669T449 556Q449 444 319 366L438 214Q451 250
457 290T466 373H603V288H543Q530 210 500 148L624 0H496L416 104ZM277 629Q244 629 224 611T204 558V542Q204 517 221 485T267 422Q307 445 328 476T350 543V558Q350 593 330 611T277 629ZM272 74Q309 74 336 89T384 133L234 321Q196 301 178 273T160 201V178Q160
128 189 101T272 74Z" />
<glyph unicode="&apos;" glyph-name="quotesingle" horiz-adv-x="230" d="M69 445V740H161V445H69Z" />
<glyph unicode="(" glyph-name="parenleft" horiz-adv-x="303" d="M54 311Q54 389 66 456T99 580T150 682T214 760H311Q274 722 245 677T194 582T162 478T151 368V254Q151 198 162 144T194 40T244 -55T311 -138H214Q180 -105 151 -60T100 41T66 165T54 311Z" />
<glyph unicode=")" glyph-name="parenright" horiz-adv-x="303" d="M249 311Q249 233 237 166T204 42T153 -60T89 -138H-8Q29 -101 58 -56T109 40T141 144T152 254V368Q152 423 141 477T109 582T59 677T-8 760H89Q123 727 152 682T203 581T237 457T249 311Z" />
<glyph unicode="*" glyph-name="asterisk" horiz-adv-x="475" d="M321 344L242 484H233L154 344L76 400L186 518L183 528L25 559L55 649L201 582L209 588L190 747H285L266 588L274 582L420 649L450 559L292 528L289 518L399 400L321 344Z" />
<glyph unicode="+" glyph-name="plus" horiz-adv-x="540" d="M224 91V265H58V347H224V522H316V347H482V265H316V91H224Z" />
<glyph unicode="," glyph-name="comma" horiz-adv-x="263" d="M131 129Q166 129 183 114T200 69V48Q200 0 175 -50T108 -138H33Q66 -103 84 -74T112 -10Q62 -1 62 48V69Q62 98 79 113T131 129Z" />
<glyph unicode="-" glyph-name="hyphen" horiz-adv-x="360" d="M54 252V357H306V252H54Z" />
<glyph unicode="." glyph-name="period" horiz-adv-x="264" d="M132 -11Q97 -11 80 4T63 49V69Q63 98 80 113T132 129Q167 129 184 114T201 69V49Q201 20 184 5T132 -11Z" />
<glyph unicode="/" glyph-name="slash" horiz-adv-x="380" d="M6 -151L258 740H345L93 -151H6Z" />
<glyph unicode="0" glyph-name="zero" horiz-adv-x="540" d="M270 -12Q211 -12 168 8T97 72T56 184T43 349Q43 445 56 513T97 625T168 689T270 710Q329 710 372 690T442 626T483 514T497 349Q497 253 484 185T443 73T372 9T270 -12ZM270 79Q333 79 358 121T384
252V446Q384 534 359 576T270 619Q207 619 182 577T156 446V252Q156 164 181 122T270 79Z" />
<glyph unicode="1" glyph-name="one" horiz-adv-x="540" d="M76 0V91H243V621H236L110 483L46 538L190 698H347V91H497V0H76Z" />
<glyph unicode="2" glyph-name="two" horiz-adv-x="540" d="M488 0H59V103L262 309Q313 361 335 402T358 485V514Q358 618 261 618Q215 618 185 591T144 513L51 549Q74 627 129 668T267 710Q374 710 422 658T470 511Q470 476 464 447T441 388T398 325T330 250L174
91H488V0Z" />
<glyph unicode="3" glyph-name="three" horiz-adv-x="540" d="M235 408Q287 408 317 434T347 506V528Q347 618 249 618Q206 618 175 598T121 535L50 596Q84 652 136 681T255 710Q355 710 406 665T458 532Q458 469 426 426T336 372V360Q402 350 436 308T471 197Q471
99 411 44T245 -12Q101 -12 26 112L105 172Q131 122 163 100T243 78Q300 78 329 105T359 186V211Q359 265 330 292T243 319H172V408H235Z" />
<glyph unicode="4" glyph-name="four" horiz-adv-x="540" d="M320 0V135H31V228L276 698H421V221H507V135H421V0H320ZM119 221H320V600H307L119 221Z" />
<glyph unicode="5" glyph-name="five" horiz-adv-x="540" d="M459 607H181L164 349H177Q189 391 221 417T307 443Q392 443 443 390T494 225Q494 110 436 49T268 -12Q197 -12 141 20T55 112L133 172Q156 127 189 104T269 80Q382 80 382 204V230Q382 354 269 354Q205
354 164 298L74 310L97 698H459V607Z" />
<glyph unicode="6" glyph-name="six" horiz-adv-x="540" d="M272 -12Q160 -12 104 57T47 258Q47 321 63 384T109 504T180 612T273 698H416Q355 651 311 609T237 524T187 438T158 341H171Q188 389 225 414T313 440Q398 440 447 385T497 223Q497 112 440 50T272
-12ZM272 77Q385 77 385 201V227Q385 351 272 351Q159 351 159 227V201Q159 77 272 77Z" />
<glyph unicode="7" glyph-name="seven" horiz-adv-x="540" d="M153 0L379 607H147V481H55V698H485V605L265 0H153Z" />
<glyph unicode="8" glyph-name="eight" horiz-adv-x="540" d="M270 -12Q158 -12 101 42T44 190Q44 265 79 307T172 359V372Q124 383 94 424T63 532Q63 620 115 665T270 710Q372 710 424 665T477 532Q477 466 447 425T368 372V359Q425 349 460 307T496 190Q496
96 439 42T270 -12ZM270 75Q325 75 355 103T385 184V212Q385 265 355 293T270 321Q215 321 185 293T155 212V184Q155 131 185 103T270 75ZM270 405Q321 405 347 430T374 502V526Q374 573 348 598T270 623Q219 623 193 598T166 526V502Q166 455 192 430T270 405Z"
/>
<glyph unicode="9" glyph-name="nine" horiz-adv-x="540" d="M493 440Q493 377 477 314T431 194T360 86T267 0H124Q185 47 229 89T303 174T352 260T382 357H369Q352 309 315 284T227 258Q142 258 93 313T43 475Q43 586 100 648T268 710Q380 710 436 641T493 440ZM268
347Q381 347 381 471V497Q381 621 268 621Q155 621 155 497V471Q155 347 268 347Z" />
<glyph unicode=":" glyph-name="colon" horiz-adv-x="278" d="M139 -11Q104 -11 87 4T70 49V69Q70 98 87 113T139 129Q174 129 191 114T208 69V49Q208 20 191 5T139 -11ZM139 385Q104 385 87 400T70 445V465Q70 494 87 509T139 525Q174 525 191 510T208 465V445Q208
416 191 401T139 385Z" />
<glyph unicode=";" glyph-name="semicolon" horiz-adv-x="278" d="M138 129Q173 129 190 114T207 69V48Q207 0 182 -50T115 -138H40Q73 -103 91 -74T119 -10Q69 -1 69 48V69Q69 98 86 113T138 129ZM139 385Q104 385 87 400T70 445V465Q70 494 87 509T139 525Q174
525 191 510T208 465V445Q208 416 191 401T139 385Z" />
<glyph unicode="&lt;" glyph-name="less" horiz-adv-x="540" d="M85 243V327L455 578V468L187 291V279L455 101V-9L85 243Z" />
<glyph unicode="=" glyph-name="equal" horiz-adv-x="540" d="M58 368V450H482V368H58ZM58 162V244H482V162H58Z" />
<glyph unicode="&gt;" glyph-name="greater" horiz-adv-x="540" d="M455 326V242L85 -9V101L353 278V290L85 468V578L455 326Z" />
<glyph unicode="?" glyph-name="question" horiz-adv-x="440" d="M151 216V377Q225 380 263 411T302 503V521Q302 568 278 593T212 619Q171 619 144 592T105 513L17 548Q37 627 88 668T216 710Q310 710 360 659T411 517Q411 436 368 382T250 312V216H151ZM200
-12Q164 -12 147 3T130 47V69Q130 97 147 112T200 128Q236 128 253 113T270 69V47Q270 19 253 4T200 -12Z" />
<glyph unicode="@" glyph-name="at" horiz-adv-x="808" d="M607 -120H408Q325 -120 259 -92T146 -10T75 119T50 291Q50 387 75 464T146 596T260 680T412 710Q493 710 557 685T666 610T734 490T758 327Q758 206 715 141T589 75Q538 75 511 97T479 155H469Q462 120
438 98T373 76Q341 76 315 88T269 126T238 193T227 291Q227 348 238 388T268 455T314 494T373 506Q410 506 433 485T463 429H473V497H559V205Q559 170 570 156T604 142Q642 142 662 181T682 302V361Q682 428 662 481T606 572T519 629T408 649Q342 649 290 626T202
560T147 460T128 333V257Q128 188 147 130T202 30T290 -35T408 -59H607V-120ZM399 149Q434 149 453 171T473 227V354Q473 387 454 409T399 432Q359 432 339 407T318 335V246Q318 200 338 175T399 149Z" />
<glyph unicode="A" glyph-name="A" horiz-adv-x="596" d="M468 0L414 193H179L125 0H21L230 698H365L575 0H468ZM324 500L302 602H289L267 500L205 280H389L324 500Z" />
<glyph unicode="B" glyph-name="B" horiz-adv-x="595" d="M77 698H360Q441 698 483 652T525 518Q525 451 496 413T413 370V358Q443 358 467 347T510 314T538 264T548 201Q548 156 537 119T504 56T454 15T388 0H77V698ZM183 93H357Q395 93 415 113T435 179V225Q435
270 415 290T357 311H183V93ZM183 402H340Q375 402 394 420T413 481V526Q413 568 394 586T340 605H183V402Z" />
<glyph unicode="C" glyph-name="C" horiz-adv-x="573" d="M313 -12Q252 -12 204 8T121 73T68 185T49 349Q49 444 67 512T120 625T203 689T313 710Q402 710 455 672T541 556L451 506Q433 565 401 591T313 617Q242 617 203 568T163 433V265Q163 179 202 130T313
81Q369 81 403 109T457 199L545 147Q512 70 457 29T313 -12Z" />
<glyph unicode="D" glyph-name="D" horiz-adv-x="617" d="M77 698H307Q369 698 417 678T499 616T550 507T568 349Q568 257 551 191T500 83T418 20T307 0H77V698ZM307 93Q376 93 415 137T454 268V430Q454 516 415 560T307 605H183V93H307Z" />
<glyph unicode="E" glyph-name="E" horiz-adv-x="536" d="M77 0V698H482V605H183V401H453V309H183V93H482V0H77Z" />
<glyph unicode="F" glyph-name="F" horiz-adv-x="515" d="M77 0V698H472V605H183V401H439V309H183V0H77Z" />
<glyph unicode="G" glyph-name="G" horiz-adv-x="635" d="M479 103H467Q457 53 416 21T300 -12Q246 -12 201 8T121 71T68 183T49 348Q49 444 67 512T121 625T207 689T320 710Q413 710 471 670T561 556L474 505Q456 556 420 586T321 616Q246 616 205 568T163 434V264Q163
178 204 130T321 82Q352 82 379 91T426 117T458 159T470 217V278H341V369H573V0H479V103Z" />
<glyph unicode="H" glyph-name="H" horiz-adv-x="644" d="M461 309H183V0H77V698H183V401H461V698H567V0H461V309Z" />
<glyph unicode="I" glyph-name="I" horiz-adv-x="377" d="M50 0V85H135V613H50V698H326V613H241V85H326V0H50Z" />
<glyph unicode="J" glyph-name="J" horiz-adv-x="481" d="M408 698V172Q408 85 357 37T215 -12Q128 -12 82 33T23 158L119 180Q127 132 148 107T215 82Q256 82 279 106T302 184V609H99V698H408Z" />
<glyph unicode="K" glyph-name="K" horiz-adv-x="598" d="M270 330L183 218V0H77V698H183V468L177 338H190L279 468L443 698H565L343 402L581 0H456L270 330Z" />
<glyph unicode="L" glyph-name="L" horiz-adv-x="465" d="M77 0V698H183V93H437V0H77Z" />
<glyph unicode="M" glyph-name="M" horiz-adv-x="735" d="M556 430L563 549H551L503 432L367 148L232 432L184 547H172L179 430V0H77V698H202L315 454L364 316H373L422 454L534 698H658V0H556V430Z" />
<glyph unicode="N" glyph-name="N" horiz-adv-x="645" d="M237 419L184 549H171L179 417V0H77V698H199L407 279L461 149H474L466 281V698H568V0H445L237 419Z" />
<glyph unicode="O" glyph-name="O" horiz-adv-x="640" d="M320 -12Q257 -12 207 8T122 73T68 185T49 349Q49 444 67 512T121 625T207 689T320 710Q383 710 433 690T518 625T572 513T591 349Q591 254 573 186T519 73T433 9T320 -12ZM320 82Q395 82 436 130T477
265V433Q477 519 436 567T320 616Q245 616 204 568T163 433V265Q163 179 204 131T320 82Z" />
<glyph unicode="P" glyph-name="P" horiz-adv-x="568" d="M77 0V698H353Q443 698 488 645T534 490Q534 389 489 336T353 282H183V0H77ZM183 376H344Q382 376 401 395T421 458V522Q421 565 402 584T344 604H183V376Z" />
<glyph unicode="Q" glyph-name="Q" horiz-adv-x="640" d="M472 -171H380Q324 -171 300 -144T275 -69V-9Q169 4 109 90T49 349Q49 444 67 512T121 625T207 689T320 710Q383 710 433 690T518 625T572 513T591 349Q591 180 534 95T375 -7V-83H472V-171ZM320 82Q395
82 436 130T477 265V433Q477 519 436 567T320 616Q245 616 204 568T163 433V265Q163 179 204 131T320 82Z" />
<glyph unicode="R" glyph-name="R" horiz-adv-x="592" d="M183 0H77V698H353Q443 698 488 645T534 491Q534 410 504 360T414 293L547 0H429L308 285H183V0ZM344 374Q382 374 401 393T421 457V522Q421 566 402 585T344 605H183V374H344Z" />
<glyph unicode="S" glyph-name="S" horiz-adv-x="538" d="M266 -12Q188 -12 131 17T32 103L105 170Q136 127 176 104T267 81Q391 81 391 195Q391 241 369 265T293 303L236 315Q142 336 98 382T53 513Q53 610 111 660T275 710Q350 710 401 685T491 605L418 541Q391
579 358 598T273 617Q216 617 188 594T159 516Q159 472 181 450T255 415L312 402Q362 391 397 375T454 334T487 278T497 202Q497 97 437 43T266 -12Z" />
<glyph unicode="T" glyph-name="T" horiz-adv-x="521" d="M314 605V0H208V605H23V698H499V605H314Z" />
<glyph unicode="U" glyph-name="U" horiz-adv-x="619" d="M177 698V246Q177 162 206 122T309 82Q383 82 412 122T441 246V698H547V263Q547 192 535 140T494 54T421 4T309 -12Q243 -12 198 4T124 54T84 140T71 263V698H177Z" />
<glyph unicode="V" glyph-name="V" horiz-adv-x="570" d="M221 0L16 698H127L251 259L280 96H293L322 259L445 698H554L350 0H221Z" />
<glyph unicode="W" glyph-name="W" horiz-adv-x="840" d="M170 0L22 698H130L212 275L234 113H247L269 273L357 698H486L575 273L597 113H610L632 275L714 698H818L665 0H538L448 430L426 591H414L392 430L298 0H170Z" />
<glyph unicode="X" glyph-name="X" horiz-adv-x="578" d="M560 0H437L291 272H279L134 0H18L221 356L27 698H151L286 443H298L437 698H552L356 358L560 0Z" />
<glyph unicode="Y" glyph-name="Y" horiz-adv-x="553" d="M224 0V270L8 698H127L272 386H285L428 698H545L330 270V0H224Z" />
<glyph unicode="Z" glyph-name="Z" horiz-adv-x="534" d="M500 0H34V95L369 605H50V698H489V603L154 93H500V0Z" />
<glyph unicode="[" glyph-name="bracketleft" horiz-adv-x="293" d="M77 -138V760H244V685H166V-63H244V-138H77Z" />
<glyph unicode="\" glyph-name="backslash" horiz-adv-x="380" d="M287 -151L35 740H122L374 -151H287Z" />
<glyph unicode="]" glyph-name="bracketright" horiz-adv-x="293" d="M216 760V-138H49V-63H127V685H49V760H216Z" />
<glyph unicode="^" glyph-name="asciicircum" horiz-adv-x="540" d="M420 295L274 595H262L117 295L37 333L219 698H321L503 333L420 295Z" />
<glyph unicode="_" glyph-name="underscore" horiz-adv-x="505" d="M27 -174V-85H478V-174H27Z" />
<glyph unicode="`" glyph-name="grave" horiz-adv-x="540" d="M149 749L239 795L323 613L260 582L149 749Z" />
<glyph unicode="a" glyph-name="a" horiz-adv-x="497" d="M404 0Q366 0 345 21T324 87H312Q301 40 267 14T182 -12Q108 -12 72 27T35 139Q35 217 85 258T232 299H318V349Q318 399 296 422T226 446Q189 446 163 430T114 376L53 432Q79 476 123 504T233 532Q327
532 374 487T421 353V85H470V0H404ZM216 68Q238 68 256 75T288 94T310 122T318 158V230H237Q140 230 140 160V136Q140 101 160 85T216 68Z" />
<glyph unicode="b" glyph-name="b" d="M70 740H173V435H185Q198 481 231 506T311 532Q404 532 449 462T494 260Q494 129 449 59T311 -12Q265 -12 232 13T185 85H173V0H70V740ZM274 76Q327 76 356 109T385 202V318Q385 378 356 411T274 444Q230 444 202 421T173
358V162Q173 122 201 99T274 76Z" />
<glyph unicode="c" glyph-name="c" horiz-adv-x="460" d="M249 -12Q147 -12 92 53T37 260Q37 402 92 467T249 532Q324 532 369 498T434 406L349 366Q340 405 317 425T249 446Q146 446 146 321V199Q146 74 249 74Q294 74 319 95T359 159L437 116Q414 55 368 22T249 -12Z" />
<glyph unicode="d" glyph-name="d" d="M362 85H350Q337 39 304 14T224 -12Q131 -12 86 58T41 260Q41 391 86 461T224 532Q270 532 303 507T350 435H362V740H465V0H362V85ZM261 76Q305 76 333 99T362 162V358Q362 398 334 421T261 444Q208 444 179 411T150 318V202Q150
142 179 109T261 76Z" />
<glyph unicode="e" glyph-name="e" horiz-adv-x="501" d="M259 -12Q210 -12 169 4T99 53T54 138T37 260Q37 331 52 382T95 467T163 516T253 532Q352 532 407 467T463 260V234H145V201Q145 139 176 106T263 73Q310 73 340 94T392 153L452 96Q424 47 377 18T259
-12ZM253 450Q201 450 173 419T145 324V303H354V324Q354 450 253 450Z" />
<glyph unicode="f" glyph-name="f" horiz-adv-x="314" d="M95 435H23V520H95V619Q95 682 123 711T212 740H295V655H198V520H295V435H198V0H95V435Z" />
<glyph unicode="g" glyph-name="g" horiz-adv-x="486" d="M484 -51Q484 -92 471 -122T429 -172T355 -202T243 -212Q184 -212 143 -204T77 -179T40 -140T29 -86Q29 -46 50 -23T110 7V24Q82 34 69 54T55 102Q55 137 77 158T138 186V198Q54 241 54 354Q54 440 101
486T243 532Q289 532 327 517V534Q327 599 389 599H461V516H365V493Q397 473 414 438T432 354Q432 268 385 223T243 177Q225 177 209 179T177 184Q157 178 147 164T137 132Q137 112 150 102T195 92H320Q409 92 446 55T484 -51ZM387 -61Q387 -32 368 -16T304 0H144Q114
-21 114 -62Q114 -97 136 -116T213 -136H275Q334 -136 360 -118T387 -61ZM243 252Q332 252 332 340V370Q332 458 243 458Q154 458 154 370V340Q154 252 243 252Z" />
<glyph unicode="h" glyph-name="h" horiz-adv-x="525" d="M70 740H173V434H185Q216 532 313 532Q383 532 421 485T460 345V0H357V331Q357 386 336 415T270 444Q229 444 201 420T173 351V0H70V740Z" />
<glyph unicode="i" glyph-name="i" horiz-adv-x="244" d="M122 619Q60 619 60 672V690Q60 743 122 743Q184 743 184 690V672Q184 619 122 619ZM71 520H174V0H71V520Z" />
<glyph unicode="j" glyph-name="j" horiz-adv-x="245" d="M71 520H174V-87Q174 -145 148 -172T60 -200H-2V-115H71V520ZM122 619Q60 619 60 672V690Q60 743 122 743Q184 743 184 690V672Q184 619 122 619Z" />
<glyph unicode="k" glyph-name="k" horiz-adv-x="497" d="M70 740H173V381L166 276H177L243 373L357 520H476L310 314L487 0H369L237 249L173 172V0H70V740Z" />
<glyph unicode="l" glyph-name="l" horiz-adv-x="260" d="M172 0Q118 0 94 24T70 101V740H173V85H235V0H172Z" />
<glyph unicode="m" glyph-name="m" horiz-adv-x="796" d="M70 0V520H173V434H185Q216 532 310 532Q407 532 439 432H450Q466 483 501 507T589 532Q656 532 693 485T731 345V0H628V331Q628 386 608 415T545 444Q507 444 480 420T452 351V0H349V331Q349 386 329
415T266 444Q227 444 200 420T173 351V0H70Z" />
<glyph unicode="n" glyph-name="n" horiz-adv-x="525" d="M70 0V520H173V434H185Q216 532 313 532Q383 532 421 485T460 345V0H357V331Q357 386 336 415T270 444Q229 444 201 420T173 351V0H70Z" />
<glyph unicode="o" glyph-name="o" horiz-adv-x="506" d="M253 -12Q203 -12 164 4T96 53T52 137T37 260Q37 331 52 382T95 467T163 516T253 532Q302 532 342 516T410 467T454 383T469 260Q469 189 454 138T411 53T342 4T253 -12ZM253 74Q305 74 332 105T360 199V321Q360
384 333 415T253 446Q201 446 174 415T146 321V199Q146 136 173 105T253 74Z" />
<glyph unicode="p" glyph-name="p" d="M70 520H173V435H185Q198 481 231 506T311 532Q403 532 448 462T494 260Q494 129 449 59T311 -12Q265 -12 232 13T185 85H173V-200H70V520ZM274 76Q327 76 356 109T385 202V318Q385 378 356 411T274 444Q230 444 202 421T173
358V162Q173 122 201 99T274 76Z" />
<glyph unicode="q" glyph-name="q" d="M362 -200V85H350Q337 38 304 13T224 -12Q132 -12 87 58T41 260Q41 391 86 461T224 532Q270 532 303 507T350 435H362V520H465V-200H362ZM261 76Q305 76 333 99T362 162V358Q362 398 334 421T261 444Q208 444 179 411T150
318V202Q150 142 179 109T261 76Z" />
<glyph unicode="r" glyph-name="r" horiz-adv-x="347" d="M70 0V520H173V417H185Q196 467 226 493T304 520H330V415H286Q231 415 202 394T173 327V0H70Z" />
<glyph unicode="s" glyph-name="s" horiz-adv-x="446" d="M222 -12Q157 -12 110 12T27 84L93 145Q119 108 150 90T223 71Q264 71 286 89T308 144Q308 172 294 189T243 213L198 221Q119 235 82 270T45 374Q45 455 92 493T221 532Q281 532 323 512T398 452L336 391Q315
420 286 434T222 449Q144 449 144 378Q144 347 160 332T211 311L257 302Q338 288 372 253T407 155Q407 76 359 32T222 -12Z" />
<glyph unicode="t" glyph-name="t" horiz-adv-x="328" d="M198 0Q144 0 120 24T95 102V435H23V520H63Q88 520 96 531T105 568V662H198V520H295V435H198V85H288V0H198Z" />
<glyph unicode="u" glyph-name="u" horiz-adv-x="525" d="M352 86H339Q308 -12 210 -12Q141 -12 103 35T64 175V520H167V189Q167 76 255 76Q295 76 323 100T352 169V520H455V0H352V86Z" />
<glyph unicode="v" glyph-name="v" horiz-adv-x="464" d="M168 0L11 520H115L191 249L228 89H241L277 249L353 520H454L297 0H168Z" />
<glyph unicode="w" glyph-name="w" horiz-adv-x="723" d="M21 520H121L172 283L204 93H216L254 283L310 520H418L475 283L513 93H524L556 283L609 520H704L579 0H458L397 253L369 421H357L328 253L267 0H146L21 520Z" />
<glyph unicode="x" glyph-name="x" horiz-adv-x="477" d="M16 0L179 265L20 520H134L236 344H247L349 520H458L301 265L464 0H350L244 186H232L125 0H16Z" />
<glyph unicode="y" glyph-name="y" horiz-adv-x="470" d="M354 520H456L255 -118Q247 -142 238 -158T215 -183T182 -196T138 -200H66V-115H160L184 -28L11 520H116L194 247L230 89H241L277 247L354 520Z" />
<glyph unicode="z" glyph-name="z" horiz-adv-x="440" d="M33 0V80L282 435H41V520H401V440L150 85H408V0H33Z" />
<glyph unicode="{" glyph-name="braceleft" horiz-adv-x="322" d="M180 -138Q144 -138 126 -121T107 -63V190Q107 226 82 246T19 266V356Q57 356 82 376T107 432V685Q107 725 125 742T179 760H273V685H196V428Q196 378 165 348T79 317V305Q133 304 164 274T196
194V-63H273V-138H180Z" />
<glyph unicode="|" glyph-name="bar" horiz-adv-x="323" d="M118 -138V760H205V-138H118Z" />
<glyph unicode="}" glyph-name="braceright" horiz-adv-x="322" d="M142 760Q178 760 196 743T215 685V432Q215 396 240 376T303 356V266Q265 266 240 246T215 190V-63Q215 -103 197 -120T143 -138H49V-63H126V194Q126 244 157 274T243 305V317Q189 318 158 348T126
428V685H49V760H142Z" />
<glyph unicode="~" glyph-name="asciitilde" horiz-adv-x="540" d="M375 228Q342 228 316 237T260 264Q235 278 209 289T160 300Q137 300 122 293T87 270L49 325Q66 351 95 367T165 383Q198 383 224 374T280 347Q305 333 331 322T380 311Q403 311 418 318T453
341L491 286Q474 260 445 244T375 228Z" />
<glyph unicode="&#xa0;" glyph-name="uni00A0" horiz-adv-x="212" />
<glyph unicode="&#xa1;" glyph-name="exclamdown" horiz-adv-x="272" d="M81 -179V22L112 323H160L191 22V-179H81ZM136 391Q100 391 83 406T66 450V472Q66 500 83 515T136 531Q172 531 189 516T206 472V450Q206 422 189 407T136 391Z" />
<glyph unicode="&#xa2;" glyph-name="cent" horiz-adv-x="478" d="M210 -114V-9Q127 3 82 67T37 258Q37 384 82 448T210 525V630H289V526Q349 518 385 487T439 406L361 365Q353 398 335 418T283 445V71Q317 77 338 98T371 156L445 109Q425 58 387 28T289 -10V-114H210ZM140
197Q140 90 216 72V444Q140 426 140 319V197Z" />
<glyph unicode="&#xa3;" glyph-name="sterling" horiz-adv-x="526" d="M67 0V109Q102 126 119 157T136 242Q136 265 131 290H42V378H103Q95 405 89 434T82 501Q82 602 136 656T297 710Q370 710 414 682T491 601L413 545Q393 580 367 599T298 618Q244 618 217 591T190
492Q190 459 195 432T209 378H387V290H231Q236 267 236 246Q236 183 209 146T138 102V91H477V0H67Z" />
<glyph unicode="&#xa4;" glyph-name="currency" horiz-adv-x="554" d="M277 114Q228 114 186 131L120 19L42 64L113 184Q87 215 74 256T60 349Q60 400 73 441T113 514L42 634L120 679L186 567Q228 584 277 584Q326 584 368 567L434 679L512 634L441 514Q467 483
480 442T494 349Q494 298 481 257T441 184L512 64L434 19L368 131Q326 114 277 114ZM277 198Q325 198 353 228T382 319V379Q382 439 354 469T277 500Q229 500 201 470T172 379V319Q172 259 200 229T277 198Z" />
<glyph unicode="&#xa5;" glyph-name="yen" horiz-adv-x="564" d="M334 140V0H228V140H73V213H228V302H73V375H183L24 698H144L278 398H290L424 698H540L380 375H489V302H334V213H489V140H334Z" />
<glyph unicode="&#xa6;" glyph-name="brokenbar" horiz-adv-x="323" d="M118 404V760H205V404H118ZM118 -138V218H205V-138H118Z" />
<glyph unicode="&#xa7;" glyph-name="section" horiz-adv-x="519" d="M433 6Q433 -72 385 -114T246 -157Q145 -157 82 -97L135 -30Q181 -76 248 -76Q342 -76 342 4Q342 37 323 57T256 92L192 112Q121 134 89 170T56 263Q56 311 81 347T154 400V412Q86 456 86 547Q86
625 134 667T273 710Q374 710 437 650L384 583Q338 629 271 629Q177 629 177 549Q177 516 196 496T263 461L327 441Q398 419 430 383T463 290Q463 242 438 206T365 153V141Q433 97 433 6ZM372 261Q372 303 352 326T284 363L222 381Q214 383 207 385T192 392Q147
347 147 293Q147 251 167 228T235 190L297 172Q305 170 312 168T327 161Q372 206 372 261Z" />
<glyph unicode="&#xa8;" glyph-name="dieresis" horiz-adv-x="540" d="M179 612Q147 612 133 625T118 661V682Q118 705 132 718T179 731Q211 731 225 718T240 682V661Q240 638 226 625T179 612ZM361 612Q329 612 315 625T300 661V682Q300 705 314 718T361 731Q393
731 407 718T422 682V661Q422 638 408 625T361 612Z" />
<glyph unicode="&#xa9;" glyph-name="copyright" horiz-adv-x="706" d="M353 -12Q285 -12 228 11T129 80T64 193T40 349Q40 437 63 504T128 617T227 686T353 710Q421 710 478 687T577 617T642 504T666 349Q666 261 643 194T578 81T479 12T353 -12ZM353 45Q408
45 453 65T530 120T580 204T598 310V388Q598 445 581 494T531 578T453 633T353 653Q298 653 253 633T176 578T126 494T108 388V310Q108 253 125 204T175 120T253 65T353 45ZM360 146Q190 146 190 349Q190 552 360 552Q463 552 502 457L431 420Q419 450 403 463T360
477Q324 477 306 455T287 393V305Q287 265 305 243T360 221Q412 221 438 280L508 242Q467 146 360 146Z" />
<glyph unicode="&#xaa;" glyph-name="ordfeminine" horiz-adv-x="382" d="M345 342H296Q272 342 255 356T238 399H230Q222 370 198 353T138 336Q90 336 65 362T39 437Q39 495 74 520T178 546H235V578Q235 614 221 629T173 645Q144 645 125 632T94 596L49 636Q66
665 97 684T180 704Q244 704 277 674T311 580V405H345V342ZM179 497Q113 497 113 454V435Q113 393 164 393Q193 393 214 409T235 454V497H179Z" />
<glyph unicode="&#xab;" glyph-name="guillemotleft" horiz-adv-x="482" d="M204 87L34 234V326L204 473L236 405L124 286V275L236 155L204 87ZM406 87L236 234V326L406 473L438 405L326 286V275L438 155L406 87Z" />
<glyph unicode="&#xac;" glyph-name="logicalnot" horiz-adv-x="540" d="M390 78V264H58V348H482V78H390Z" />
<glyph unicode="&#xad;" glyph-name="uni00AD" horiz-adv-x="360" d="M54 252V357H306V252H54Z" />
<glyph unicode="&#xae;" glyph-name="registered" horiz-adv-x="424" d="M212 298Q173 298 139 311T81 351T42 415T28 504Q28 554 42 592T80 657T139 696T212 710Q251 710 285 697T343 657T382 593T396 504Q396 454 382 416T344 351T285 312T212 298ZM212 337Q276
337 312 377T348 480V528Q348 591 312 631T212 671Q148 671 112 631T76 528V480Q76 417 112 377T212 337ZM184 400H137V608H227Q291 608 291 541Q291 491 258 479L299 400H247L213 473H184V400ZM222 511Q243 511 243 531V550Q243 570 222 570H184V511H222Z" />
<glyph unicode="&#xaf;" glyph-name="overscore" horiz-adv-x="540" d="M138 713H402V633H138V713Z" />
<glyph unicode="&#xb0;" glyph-name="degree" horiz-adv-x="422" d="M211 370Q176 370 146 382T94 416T59 469T46 540Q46 579 59 610T94 664T146 698T211 710Q245 710 275 698T328 664T363 611T376 540Q376 501 363 470T328 416T276 382T211 370ZM211 442Q249
442 273 467T297 540Q297 587 273 612T211 638Q173 638 149 613T125 540Q125 493 149 468T211 442Z" />
<glyph unicode="&#xb1;" glyph-name="plusminus" horiz-adv-x="540" d="M224 184V352H58V434H224V602H316V434H482V352H316V184H224ZM58 0V80H482V0H58Z" />
<glyph unicode="&#xb2;" glyph-name="twosuperior" horiz-adv-x="320" d="M289 329H35V396L143 492Q176 522 188 541T201 584V597Q201 618 188 630T151 642Q127 642 113 630T89 588L27 612Q57 703 157 703Q279 703 279 594Q279 574 274 557T258 522T230 488T186
449L112 389H289V329Z" />
<glyph unicode="&#xb3;" glyph-name="threesuperior" horiz-adv-x="320" d="M150 549Q173 549 186 560T199 590V602Q199 621 186 632T150 643Q127 643 111 634T80 601L32 643Q56 675 84 689T153 704Q277 704 277 607Q277 573 259 552T207 524V516Q243 512 263
490T283 432Q283 378 250 351T151 323Q106 323 76 339T20 391L75 433Q89 406 106 395T150 384Q205 384 205 427V446Q205 489 150 489H111V549H150Z" />
<glyph unicode="&#xb4;" glyph-name="acute" horiz-adv-x="540" d="M280 582L217 613L301 795L391 749L280 582Z" />
<glyph unicode="&#xb5;" glyph-name="mu" horiz-adv-x="530" d="M67 -200V520H170V189Q170 76 258 76Q298 76 326 100T355 169V520H458V0H355V86H343Q332 38 307 13T238 -12Q210 -12 189 0T159 36H146L170 -66V-200H67Z" />
<glyph unicode="&#xb6;" glyph-name="paragraph" horiz-adv-x="597" d="M218 286Q177 286 144 301T87 343T50 408T37 492Q37 538 50 576T86 641T143 683T218 698H536V620H479V-149H396V620H301V-149H218V286Z" />
<glyph unicode="&#xb7;" glyph-name="middot" horiz-adv-x="308" d="M154 234Q119 234 102 249T85 294V314Q85 343 102 358T154 374Q189 374 206 359T223 314V294Q223 265 206 250T154 234Z" />
<glyph unicode="&#xb8;" glyph-name="cedilla" horiz-adv-x="540" d="M282 -208Q211 -208 180 -166L217 -122Q242 -148 276 -148Q299 -148 308 -141T318 -116Q318 -99 309 -92T276 -84H228L247 19H300L283 -69H292Q305 -51 330 -51Q391 -51 391 -122Q391 -164
363 -186T282 -208Z" />
<glyph unicode="&#xb9;" glyph-name="onesuperior" horiz-adv-x="320" d="M49 329V389H140V639H134L76 568L27 604L104 698H214V389H294V329H49Z" />
<glyph unicode="&#xba;" glyph-name="ordmasculine" horiz-adv-x="374" d="M187 336Q117 336 77 379T37 520Q37 617 77 660T187 704Q257 704 297 661T337 520Q337 423 297 380T187 336ZM187 397Q258 397 258 476V564Q258 643 187 643Q116 643 116 564V476Q116
397 187 397Z" />
<glyph unicode="&#xbb;" glyph-name="guillemotright" horiz-adv-x="482" d="M76 473L246 326V234L76 87L44 155L156 274V285L44 405L76 473ZM278 473L448 326V234L278 87L246 155L358 274V285L246 405L278 473Z" />
<glyph unicode="&#xbc;" glyph-name="onequarter" horiz-adv-x="728" d="M49 329V389H140V639H134L76 568L27 604L104 698H214V389H294V329H49ZM403 434L575 698H653L481 434H403ZM117 0L285 254H364L195 0H117ZM589 0V71H427V133L563 369H659V127H705V71H659V0H589ZM589
295H581L487 127H589V295Z" />
<glyph unicode="&#xbd;" glyph-name="onehalf" horiz-adv-x="760" d="M49 329V389H140V639H134L76 568L27 604L104 698H214V389H294V329H49ZM403 434L575 698H653L481 434H403ZM117 0L285 254H364L195 0H117ZM729 0H475V67L583 163Q616 193 628 212T641 255V268Q641
289 628 301T591 313Q567 313 553 301T529 259L467 283Q497 374 597 374Q719 374 719 265Q719 245 714 228T698 193T670 159T626 120L552 60H729V0Z" />
<glyph unicode="&#xbe;" glyph-name="threequarters" horiz-adv-x="718" d="M150 549Q173 549 186 560T199 590V602Q199 621 186 632T150 643Q127 643 111 634T80 601L32 643Q56 675 84 689T153 704Q277 704 277 607Q277 573 259 552T207 524V516Q243 512 263
490T283 432Q283 378 250 351T151 323Q106 323 76 339T20 391L75 433Q89 406 106 395T150 384Q205 384 205 427V446Q205 489 150 489H111V549H150ZM393 434L565 698H643L471 434H393ZM107 0L275 254H354L185 0H107ZM579 0V71H417V133L553 369H649V127H695V71H649V0H579ZM579
295H571L477 127H579V295Z" />
<glyph unicode="&#xbf;" glyph-name="questiondown" horiz-adv-x="433" d="M224 -191Q130 -191 80 -140T29 2Q29 83 72 137T190 207V303H289V142Q215 139 177 108T138 16V-2Q138 -49 162 -74T228 -100Q269 -100 296 -73T335 6L423 -29Q403 -108 352 -149T224 -191ZM240
391Q204 391 187 406T170 450V472Q170 500 187 515T240 531Q276 531 293 516T310 472V450Q310 422 293 407T240 391Z" />
<glyph unicode="&#xc0;" glyph-name="Agrave" horiz-adv-x="596" d="M468 0L414 193H179L125 0H21L230 698H365L575 0H468ZM324 500L302 602H289L267 500L205 280H389L324 500ZM178 916L268 962L352 780L289 749L178 916Z" />
<glyph unicode="&#xc1;" glyph-name="Aacute" horiz-adv-x="596" d="M468 0L414 193H179L125 0H21L230 698H365L575 0H468ZM324 500L302 602H289L267 500L205 280H389L324 500ZM309 749L246 780L330 962L420 916L309 749Z" />
<glyph unicode="&#xc2;" glyph-name="Acircumflex" horiz-adv-x="596" d="M468 0L414 193H179L125 0H21L230 698H365L575 0H468ZM324 500L302 602H289L267 500L205 280H389L324 500ZM349 944L462 793L409 752L299 870L189 752L136 793L249 944H349Z" />
<glyph unicode="&#xc3;" glyph-name="Atilde" horiz-adv-x="596" d="M468 0L414 193H179L125 0H21L230 698H365L575 0H468ZM324 500L302 602H289L267 500L205 280H389L324 500ZM368 775Q351 775 336 779T294 799Q269 813 255 818T229 824Q212 824 201 817T176
797L138 846Q155 872 178 886T230 901Q247 901 262 897T304 877Q329 863 343 858T369 852Q386 852 397 859T422 879L460 830Q443 804 420 790T368 775Z" />
<glyph unicode="&#xc4;" glyph-name="Adieresis" horiz-adv-x="596" d="M468 0L414 193H179L125 0H21L230 698H365L575 0H468ZM324 500L302 602H289L267 500L205 280H389L324 500ZM208 780Q176 780 162 793T147 829V850Q147 873 161 886T208 899Q240 899 254 886T269
850V829Q269 806 255 793T208 780ZM390 780Q358 780 344 793T329 829V850Q329 873 343 886T390 899Q422 899 436 886T451 850V829Q451 806 437 793T390 780Z" />
<glyph unicode="&#xc5;" glyph-name="Aring" horiz-adv-x="596" d="M468 0L414 193H179L125 0H21L230 698H365L575 0H468ZM324 500L302 602H289L267 500L205 280H389L324 500ZM299 734Q241 734 208 769T175 861Q175 918 208 953T299 988Q357 988 390 953T423 861Q423
804 390 769T299 734ZM299 792Q323 792 337 804T352 840V883Q352 907 338 919T299 931Q275 931 261 919T246 883V840Q246 816 260 804T299 792Z" />
<glyph unicode="&#xc6;" glyph-name="AE" horiz-adv-x="843" d="M385 192H193L110 0H2L312 698H790V605H491V401H761V309H491V93H790V0H385V192ZM370 605L230 279H385V605H370Z" />
<glyph unicode="&#xc7;" glyph-name="Ccedilla" horiz-adv-x="573" d="M314 -208Q243 -208 212 -166L249 -122Q274 -148 308 -148Q331 -148 340 -141T350 -116Q350 -99 341 -92T308 -84H260L274 -10Q222 -4 181 20T110 88T65 197T49 349Q49 444 67 512T120 625T203
689T313 710Q402 710 455 672T541 556L451 506Q433 565 401 591T313 617Q242 617 203 568T163 433V265Q163 179 202 130T313 81Q369 81 403 109T457 199L545 147Q513 73 462 32T326 -12L315 -69H324Q337 -51 362 -51Q423 -51 423 -122Q423 -164 395 -186T314 -208Z"
/>
<glyph unicode="&#xc8;" glyph-name="Egrave" horiz-adv-x="536" d="M77 0V698H482V605H183V401H453V309H183V93H482V0H77ZM157 916L247 962L331 780L268 749L157 916Z" />
<glyph unicode="&#xc9;" glyph-name="Eacute" horiz-adv-x="536" d="M77 0V698H482V605H183V401H453V309H183V93H482V0H77ZM288 749L225 780L309 962L399 916L288 749Z" />
<glyph unicode="&#xca;" glyph-name="Ecircumflex" horiz-adv-x="536" d="M77 0V698H482V605H183V401H453V309H183V93H482V0H77ZM328 944L441 793L388 752L278 870L168 752L115 793L228 944H328Z" />
<glyph unicode="&#xcb;" glyph-name="Edieresis" horiz-adv-x="536" d="M77 0V698H482V605H183V401H453V309H183V93H482V0H77ZM187 780Q155 780 141 793T126 829V850Q126 873 140 886T187 899Q219 899 233 886T248 850V829Q248 806 234 793T187 780ZM369 780Q337
780 323 793T308 829V850Q308 873 322 886T369 899Q401 899 415 886T430 850V829Q430 806 416 793T369 780Z" />
<glyph unicode="&#xcc;" glyph-name="Igrave" horiz-adv-x="377" d="M50 0V85H135V613H50V698H326V613H241V85H326V0H50ZM325 916L415 962L499 780L436 749L325 916Z" />
<glyph unicode="&#xcd;" glyph-name="Iacute" horiz-adv-x="377" d="M50 0V85H135V613H50V698H326V613H241V85H326V0H50ZM456 749L393 780L477 962L567 916L456 749Z" />
<glyph unicode="&#xce;" glyph-name="Icircumflex" horiz-adv-x="377" d="M50 0V85H135V613H50V698H326V613H241V85H326V0H50ZM496 944L609 793L556 752L446 870L336 752L283 793L396 944H496Z" />
<glyph unicode="&#xcf;" glyph-name="Idieresis" horiz-adv-x="377" d="M50 0V85H135V613H50V698H326V613H241V85H326V0H50ZM355 780Q323 780 309 793T294 829V850Q294 873 308 886T355 899Q387 899 401 886T416 850V829Q416 806 402 793T355 780ZM537 780Q505
780 491 793T476 829V850Q476 873 490 886T537 899Q569 899 583 886T598 850V829Q598 806 584 793T537 780Z" />
<glyph unicode="&#xd0;" glyph-name="Eth" horiz-adv-x="623" d="M83 321H18V402H83V698H313Q375 698 423 678T505 616T556 507T574 349Q574 257 557 191T506 83T424 20T313 0H83V321ZM313 93Q382 93 421 137T460 268V430Q460 516 421 560T313 605H189V402H305V321H189V93H313Z"
/>
<glyph unicode="&#xd1;" glyph-name="Ntilde" horiz-adv-x="645" d="M237 419L184 549H171L179 417V0H77V698H199L407 279L461 149H474L466 281V698H568V0H445L237 419ZM391 775Q374 775 359 779T317 799Q292 813 278 818T252 824Q235 824 224 817T199 797L161
846Q178 872 201 886T253 901Q270 901 285 897T327 877Q352 863 366 858T392 852Q409 852 420 859T445 879L483 830Q466 804 443 790T391 775Z" />
<glyph unicode="&#xd2;" glyph-name="Ograve" horiz-adv-x="640" d="M320 -12Q257 -12 207 8T122 73T68 185T49 349Q49 444 67 512T121 625T207 689T320 710Q383 710 433 690T518 625T572 513T591 349Q591 254 573 186T519 73T433 9T320 -12ZM320 82Q395 82 436
130T477 265V433Q477 519 436 567T320 616Q245 616 204 568T163 433V265Q163 179 204 131T320 82ZM199 916L289 962L373 780L310 749L199 916Z" />
<glyph unicode="&#xd3;" glyph-name="Oacute" horiz-adv-x="640" d="M320 -12Q257 -12 207 8T122 73T68 185T49 349Q49 444 67 512T121 625T207 689T320 710Q383 710 433 690T518 625T572 513T591 349Q591 254 573 186T519 73T433 9T320 -12ZM320 82Q395 82 436
130T477 265V433Q477 519 436 567T320 616Q245 616 204 568T163 433V265Q163 179 204 131T320 82ZM330 749L267 780L351 962L441 916L330 749Z" />
<glyph unicode="&#xd4;" glyph-name="Ocircumflex" horiz-adv-x="640" d="M320 -12Q257 -12 207 8T122 73T68 185T49 349Q49 444 67 512T121 625T207 689T320 710Q383 710 433 690T518 625T572 513T591 349Q591 254 573 186T519 73T433 9T320 -12ZM320 82Q395
82 436 130T477 265V433Q477 519 436 567T320 616Q245 616 204 568T163 433V265Q163 179 204 131T320 82ZM370 944L483 793L430 752L320 870L210 752L157 793L270 944H370Z" />
<glyph unicode="&#xd5;" glyph-name="Otilde" horiz-adv-x="640" d="M320 -12Q257 -12 207 8T122 73T68 185T49 349Q49 444 67 512T121 625T207 689T320 710Q383 710 433 690T518 625T572 513T591 349Q591 254 573 186T519 73T433 9T320 -12ZM320 82Q395 82 436
130T477 265V433Q477 519 436 567T320 616Q245 616 204 568T163 433V265Q163 179 204 131T320 82ZM389 775Q372 775 357 779T315 799Q290 813 276 818T250 824Q233 824 222 817T197 797L159 846Q176 872 199 886T251 901Q268 901 283 897T325 877Q350 863 364 858T390
852Q407 852 418 859T443 879L481 830Q464 804 441 790T389 775Z" />
<glyph unicode="&#xd6;" glyph-name="Odieresis" horiz-adv-x="640" d="M320 -12Q257 -12 207 8T122 73T68 185T49 349Q49 444 67 512T121 625T207 689T320 710Q383 710 433 690T518 625T572 513T591 349Q591 254 573 186T519 73T433 9T320 -12ZM320 82Q395 82
436 130T477 265V433Q477 519 436 567T320 616Q245 616 204 568T163 433V265Q163 179 204 131T320 82ZM229 780Q197 780 183 793T168 829V850Q168 873 182 886T229 899Q261 899 275 886T290 850V829Q290 806 276 793T229 780ZM411 780Q379 780 365 793T350 829V850Q350
873 364 886T411 899Q443 899 457 886T472 850V829Q472 806 458 793T411 780Z" />
<glyph unicode="&#xd7;" glyph-name="multiply" horiz-adv-x="540" d="M271 248L131 107L72 166L213 306L72 447L131 505L271 365L412 505L470 447L330 306L470 166L412 107L271 248Z" />
<glyph unicode="&#xd8;" glyph-name="Oslash" horiz-adv-x="640" d="M320 -12Q231 -12 171 29L124 -48L56 -4L111 86Q81 131 65 195T49 349Q49 444 67 512T121 625T207 689T320 710Q409 710 469 669L516 746L584 702L529 612Q559 567 575 503T591 349Q591 254
573 186T519 73T433 9T320 -12ZM175 172L317 413L424 585Q382 619 320 619Q242 619 201 571T160 434V273L162 172H175ZM216 113Q258 79 320 79Q398 79 439 127T480 264V426L478 526H465L323 285L216 113Z" />
<glyph unicode="&#xd9;" glyph-name="Ugrave" horiz-adv-x="619" d="M177 698V246Q177 162 206 122T309 82Q383 82 412 122T441 246V698H547V263Q547 192 535 140T494 54T421 4T309 -12Q243 -12 198 4T124 54T84 140T71 263V698H177ZM188 916L278 962L362 780L299
749L188 916Z" />
<glyph unicode="&#xda;" glyph-name="Uacute" horiz-adv-x="619" d="M177 698V246Q177 162 206 122T309 82Q383 82 412 122T441 246V698H547V263Q547 192 535 140T494 54T421 4T309 -12Q243 -12 198 4T124 54T84 140T71 263V698H177ZM319 749L256 780L340 962L430
916L319 749Z" />
<glyph unicode="&#xdb;" glyph-name="Ucircumflex" horiz-adv-x="619" d="M177 698V246Q177 162 206 122T309 82Q383 82 412 122T441 246V698H547V263Q547 192 535 140T494 54T421 4T309 -12Q243 -12 198 4T124 54T84 140T71 263V698H177ZM359 944L472 793L419
752L309 870L199 752L146 793L259 944H359Z" />
<glyph unicode="&#xdc;" glyph-name="Udieresis" horiz-adv-x="619" d="M177 698V246Q177 162 206 122T309 82Q383 82 412 122T441 246V698H547V263Q547 192 535 140T494 54T421 4T309 -12Q243 -12 198 4T124 54T84 140T71 263V698H177ZM218 780Q186 780 172 793T157
829V850Q157 873 171 886T218 899Q250 899 264 886T279 850V829Q279 806 265 793T218 780ZM400 780Q368 780 354 793T339 829V850Q339 873 353 886T400 899Q432 899 446 886T461 850V829Q461 806 447 793T400 780Z" />
<glyph unicode="&#xdd;" glyph-name="Yacute" horiz-adv-x="553" d="M224 0V270L8 698H127L272 386H285L428 698H545L330 270V0H224ZM288 749L225 780L309 962L399 916L288 749Z" />
<glyph unicode="&#xde;" glyph-name="Thorn" horiz-adv-x="568" d="M77 0V698H183V563H353Q443 563 488 509T534 355Q534 255 489 201T353 147H183V0H77ZM183 240H344Q382 240 401 259T421 323V387Q421 431 402 450T344 470H183V240Z" />
<glyph unicode="&#xdf;" glyph-name="germandbls" horiz-adv-x="600" d="M579 157Q579 76 535 32T410 -12Q353 -12 313 9T245 68L306 127Q348 70 412 70Q483 70 483 144Q483 173 468 190T419 220L392 229Q332 250 304 283T275 377Q275 442 311 480T419 522V536Q419
608 394 637T308 666Q247 666 222 637T197 536V0H94V435H23V520H94V540Q94 643 147 697T305 752Q409 752 462 698T516 540V450H450Q410 450 391 435T371 383Q371 352 386 338T436 311L462 301Q523 278 551 246T579 157Z" />
<glyph unicode="&#xe0;" glyph-name="agrave" horiz-adv-x="497" d="M404 0Q366 0 345 21T324 87H312Q301 40 267 14T182 -12Q108 -12 72 27T35 139Q35 217 85 258T232 299H318V349Q318 399 296 422T226 446Q189 446 163 430T114 376L53 432Q79 476 123 504T233
532Q327 532 374 487T421 353V85H470V0H404ZM216 68Q238 68 256 75T288 94T310 122T318 158V230H237Q140 230 140 160V136Q140 101 160 85T216 68ZM371 749L461 795L545 613L482 582L371 749Z" />
<glyph unicode="&#xe1;" glyph-name="aacute" horiz-adv-x="497" d="M404 0Q366 0 345 21T324 87H312Q301 40 267 14T182 -12Q108 -12 72 27T35 139Q35 217 85 258T232 299H318V349Q318 399 296 422T226 446Q189 446 163 430T114 376L53 432Q79 476 123 504T233
532Q327 532 374 487T421 353V85H470V0H404ZM216 68Q238 68 256 75T288 94T310 122T318 158V230H237Q140 230 140 160V136Q140 101 160 85T216 68ZM502 582L439 613L523 795L613 749L502 582Z" />
<glyph unicode="&#xe2;" glyph-name="acircumflex" horiz-adv-x="497" d="M404 0Q366 0 345 21T324 87H312Q301 40 267 14T182 -12Q108 -12 72 27T35 139Q35 217 85 258T232 299H318V349Q318 399 296 422T226 446Q189 446 163 430T114 376L53 432Q79 476 123 504T233
532Q327 532 374 487T421 353V85H470V0H404ZM216 68Q238 68 256 75T288 94T310 122T318 158V230H237Q140 230 140 160V136Q140 101 160 85T216 68ZM542 778L655 627L602 586L492 704L382 586L329 627L442 778H542Z" />
<glyph unicode="&#xe3;" glyph-name="atilde" horiz-adv-x="497" d="M404 0Q366 0 345 21T324 87H312Q301 40 267 14T182 -12Q108 -12 72 27T35 139Q35 217 85 258T232 299H318V349Q318 399 296 422T226 446Q189 446 163 430T114 376L53 432Q79 476 123 504T233
532Q327 532 374 487T421 353V85H470V0H404ZM216 68Q238 68 256 75T288 94T310 122T318 158V230H237Q140 230 140 160V136Q140 101 160 85T216 68ZM561 609Q544 609 529 613T487 633Q462 647 448 652T422 658Q405 658 394 651T369 631L331 680Q348 706 371 720T423
735Q440 735 455 731T497 711Q522 697 536 692T562 686Q579 686 590 693T615 713L653 664Q636 638 613 624T561 609Z" />
<glyph unicode="&#xe4;" glyph-name="adieresis" horiz-adv-x="497" d="M404 0Q366 0 345 21T324 87H312Q301 40 267 14T182 -12Q108 -12 72 27T35 139Q35 217 85 258T232 299H318V349Q318 399 296 422T226 446Q189 446 163 430T114 376L53 432Q79 476 123 504T233
532Q327 532 374 487T421 353V85H470V0H404ZM216 68Q238 68 256 75T288 94T310 122T318 158V230H237Q140 230 140 160V136Q140 101 160 85T216 68ZM401 612Q369 612 355 625T340 661V682Q340 705 354 718T401 731Q433 731 447 718T462 682V661Q462 638 448 625T401
612ZM583 612Q551 612 537 625T522 661V682Q522 705 536 718T583 731Q615 731 629 718T644 682V661Q644 638 630 625T583 612Z" />
<glyph unicode="&#xe5;" glyph-name="aring" horiz-adv-x="497" d="M404 0Q366 0 345 21T324 87H312Q301 40 267 14T182 -12Q108 -12 72 27T35 139Q35 217 85 258T232 299H318V349Q318 399 296 422T226 446Q189 446 163 430T114 376L53 432Q79 476 123 504T233
532Q327 532 374 487T421 353V85H470V0H404ZM216 68Q238 68 256 75T288 94T310 122T318 158V230H237Q140 230 140 160V136Q140 101 160 85T216 68ZM492 568Q434 568 401 603T368 695Q368 752 401 787T492 822Q550 822 583 787T616 695Q616 638 583 603T492 568ZM492
626Q516 626 530 638T545 674V717Q545 741 531 753T492 765Q468 765 454 753T439 717V674Q439 650 453 638T492 626Z" />
<glyph unicode="&#xe6;" glyph-name="ae" horiz-adv-x="783" d="M237 233Q187 233 164 214T140 160V136Q140 101 160 85T216 68Q238 68 257 75T290 94T313 122T322 158V233H237ZM636 301V324Q636 450 535 450Q483 450 455 419T427 324V301H636ZM545 73Q592 73
622 94T674 153L734 96Q706 47 659 18T541 -12Q512 -12 485 -4T436 18T398 53T376 100H364Q351 50 303 19T183 -12Q108 -12 72 27T35 139Q35 217 85 259T232 301H322V349Q322 446 226 446Q189 446 163 430T114 376L53 432Q79 476 123 504T233 532Q285 532 323 505T371
420H383Q394 473 436 502T535 532Q634 532 689 467T745 260V233H427V201Q427 139 458 106T545 73Z" />
<glyph unicode="&#xe7;" glyph-name="ccedilla" horiz-adv-x="460" d="M254 -208Q183 -208 152 -166L189 -122Q214 -148 248 -148Q271 -148 280 -141T290 -116Q290 -99 281 -92T248 -84H200L214 -10Q128 1 83 65T37 260Q37 402 92 467T249 532Q324 532 369 498T434
406L349 366Q340 405 317 425T249 446Q146 446 146 321V199Q146 74 249 74Q294 74 319 95T359 159L437 116Q416 59 374 26T266 -11L255 -69H264Q277 -51 302 -51Q363 -51 363 -122Q363 -164 335 -186T254 -208Z" />
<glyph unicode="&#xe8;" glyph-name="egrave" horiz-adv-x="501" d="M259 -12Q210 -12 169 4T99 53T54 138T37 260Q37 331 52 382T95 467T163 516T253 532Q352 532 407 467T463 260V234H145V201Q145 139 176 106T263 73Q310 73 340 94T392 153L452 96Q424 47 377
18T259 -12ZM253 450Q201 450 173 419T145 324V303H354V324Q354 450 253 450ZM389 749L479 795L563 613L500 582L389 749Z" />
<glyph unicode="&#xe9;" glyph-name="eacute" horiz-adv-x="501" d="M259 -12Q210 -12 169 4T99 53T54 138T37 260Q37 331 52 382T95 467T163 516T253 532Q352 532 407 467T463 260V234H145V201Q145 139 176 106T263 73Q310 73 340 94T392 153L452 96Q424 47 377
18T259 -12ZM253 450Q201 450 173 419T145 324V303H354V324Q354 450 253 450ZM520 582L457 613L541 795L631 749L520 582Z" />
<glyph unicode="&#xea;" glyph-name="ecircumflex" horiz-adv-x="501" d="M259 -12Q210 -12 169 4T99 53T54 138T37 260Q37 331 52 382T95 467T163 516T253 532Q352 532 407 467T463 260V234H145V201Q145 139 176 106T263 73Q310 73 340 94T392 153L452 96Q424
47 377 18T259 -12ZM253 450Q201 450 173 419T145 324V303H354V324Q354 450 253 450ZM560 778L673 627L620 586L510 704L400 586L347 627L460 778H560Z" />
<glyph unicode="&#xeb;" glyph-name="edieresis" horiz-adv-x="501" d="M259 -12Q210 -12 169 4T99 53T54 138T37 260Q37 331 52 382T95 467T163 516T253 532Q352 532 407 467T463 260V234H145V201Q145 139 176 106T263 73Q310 73 340 94T392 153L452 96Q424 47
377 18T259 -12ZM253 450Q201 450 173 419T145 324V303H354V324Q354 450 253 450ZM419 612Q387 612 373 625T358 661V682Q358 705 372 718T419 731Q451 731 465 718T480 682V661Q480 638 466 625T419 612ZM601 612Q569 612 555 625T540 661V682Q540 705 554 718T601
731Q633 731 647 718T662 682V661Q662 638 648 625T601 612Z" />
<glyph unicode="&#xec;" glyph-name="igrave" horiz-adv-x="243" d="M70 0V520H173V0H70ZM1 749L91 795L175 613L112 582L1 749Z" />
<glyph unicode="&#xed;" glyph-name="iacute" horiz-adv-x="243" d="M70 0V520H173V0H70ZM132 582L69 613L153 795L243 749L132 582Z" />
<glyph unicode="&#xee;" glyph-name="icircumflex" horiz-adv-x="243" d="M70 0V520H173V0H70ZM172 778L271 627L218 586L122 704L26 586L-27 627L72 778H172Z" />
<glyph unicode="&#xef;" glyph-name="idieresis" horiz-adv-x="243" d="M70 0V520H173V0H70ZM35 612Q3 612 -11 625T-26 661V682Q-26 705 -12 718T35 731Q67 731 81 718T96 682V661Q96 638 82 625T35 612ZM209 612Q177 612 163 625T148 661V682Q148 705 162 718T209
731Q241 731 255 718T270 682V661Q270 638 256 625T209 612Z" />
<glyph unicode="&#xf0;" glyph-name="eth" horiz-adv-x="520" d="M404 705L335 658Q398 591 437 494T476 262Q476 120 419 54T257 -12Q149 -12 94 54T38 249Q38 374 87 438T225 502Q273 502 303 479T349 412H361Q350 463 324 512T258 607L173 550L141 596L217
648Q162 700 88 740H236Q264 722 293 698L372 752L404 705ZM257 74Q311 74 339 104T367 203V287Q367 355 339 385T257 416Q203 416 175 386T147 287V203Q147 135 175 105T257 74Z" />
<glyph unicode="&#xf1;" glyph-name="ntilde" horiz-adv-x="525" d="M70 0V520H173V434H185Q216 532 313 532Q383 532 421 485T460 345V0H357V331Q357 386 336 415T270 444Q229 444 201 420T173 351V0H70ZM592 609Q575 609 560 613T518 633Q493 647 479 652T453
658Q436 658 425 651T400 631L362 680Q379 706 402 720T454 735Q471 735 486 731T528 711Q553 697 567 692T593 686Q610 686 621 693T646 713L684 664Q667 638 644 624T592 609Z" />
<glyph unicode="&#xf2;" glyph-name="ograve" horiz-adv-x="506" d="M253 -12Q203 -12 164 4T96 53T52 137T37 260Q37 331 52 382T95 467T163 516T253 532Q302 532 342 516T410 467T454 383T469 260Q469 189 454 138T411 53T342 4T253 -12ZM253 74Q305 74 332
105T360 199V321Q360 384 333 415T253 446Q201 446 174 415T146 321V199Q146 136 173 105T253 74ZM389 749L479 795L563 613L500 582L389 749Z" />
<glyph unicode="&#xf3;" glyph-name="oacute" horiz-adv-x="506" d="M253 -12Q203 -12 164 4T96 53T52 137T37 260Q37 331 52 382T95 467T163 516T253 532Q302 532 342 516T410 467T454 383T469 260Q469 189 454 138T411 53T342 4T253 -12ZM253 74Q305 74 332
105T360 199V321Q360 384 333 415T253 446Q201 446 174 415T146 321V199Q146 136 173 105T253 74ZM520 582L457 613L541 795L631 749L520 582Z" />
<glyph unicode="&#xf4;" glyph-name="ocircumflex" horiz-adv-x="506" d="M253 -12Q203 -12 164 4T96 53T52 137T37 260Q37 331 52 382T95 467T163 516T253 532Q302 532 342 516T410 467T454 383T469 260Q469 189 454 138T411 53T342 4T253 -12ZM253 74Q305 74
332 105T360 199V321Q360 384 333 415T253 446Q201 446 174 415T146 321V199Q146 136 173 105T253 74ZM560 778L673 627L620 586L510 704L400 586L347 627L460 778H560Z" />
<glyph unicode="&#xf5;" glyph-name="otilde" horiz-adv-x="506" d="M253 -12Q203 -12 164 4T96 53T52 137T37 260Q37 331 52 382T95 467T163 516T253 532Q302 532 342 516T410 467T454 383T469 260Q469 189 454 138T411 53T342 4T253 -12ZM253 74Q305 74 332
105T360 199V321Q360 384 333 415T253 446Q201 446 174 415T146 321V199Q146 136 173 105T253 74ZM579 609Q562 609 547 613T505 633Q480 647 466 652T440 658Q423 658 412 651T387 631L349 680Q366 706 389 720T441 735Q458 735 473 731T515 711Q540 697 554 692T580
686Q597 686 608 693T633 713L671 664Q654 638 631 624T579 609Z" />
<glyph unicode="&#xf6;" glyph-name="odieresis" horiz-adv-x="506" d="M253 -12Q203 -12 164 4T96 53T52 137T37 260Q37 331 52 382T95 467T163 516T253 532Q302 532 342 516T410 467T454 383T469 260Q469 189 454 138T411 53T342 4T253 -12ZM253 74Q305 74 332
105T360 199V321Q360 384 333 415T253 446Q201 446 174 415T146 321V199Q146 136 173 105T253 74ZM419 612Q387 612 373 625T358 661V682Q358 705 372 718T419 731Q451 731 465 718T480 682V661Q480 638 466 625T419 612ZM601 612Q569 612 555 625T540 661V682Q540
705 554 718T601 731Q633 731 647 718T662 682V661Q662 638 648 625T601 612Z" />
<glyph unicode="&#xf7;" glyph-name="divide" horiz-adv-x="540" d="M58 264V348H482V264H58ZM270 430Q204 430 204 483V505Q204 558 270 558Q336 558 336 505V483Q336 430 270 430ZM270 54Q204 54 204 107V129Q204 182 270 182Q336 182 336 129V107Q336 54 270 54Z" />
<glyph unicode="&#xf8;" glyph-name="oslash" horiz-adv-x="509" d="M253 -12Q176 -12 126 26L75 -41L19 1L77 79Q37 145 37 260Q37 331 52 382T95 467T163 516T253 532Q330 532 380 494L431 561L487 519L429 441Q469 375 469 260Q469 189 454 138T411 53T342
4T253 -12ZM147 158L215 261L331 421Q304 448 253 448Q200 448 172 418T144 324V254L137 158H147ZM175 99Q202 72 253 72Q306 72 334 102T362 196V266L369 362H359L291 259L175 99Z" />
<glyph unicode="&#xf9;" glyph-name="ugrave" horiz-adv-x="525" d="M352 86H339Q308 -12 210 -12Q141 -12 103 35T64 175V520H167V189Q167 76 255 76Q295 76 323 100T352 169V520H455V0H352V86ZM396 749L486 795L570 613L507 582L396 749Z" />
<glyph unicode="&#xfa;" glyph-name="uacute" horiz-adv-x="525" d="M352 86H339Q308 -12 210 -12Q141 -12 103 35T64 175V520H167V189Q167 76 255 76Q295 76 323 100T352 169V520H455V0H352V86ZM527 582L464 613L548 795L638 749L527 582Z" />
<glyph unicode="&#xfb;" glyph-name="ucircumflex" horiz-adv-x="525" d="M352 86H339Q308 -12 210 -12Q141 -12 103 35T64 175V520H167V189Q167 76 255 76Q295 76 323 100T352 169V520H455V0H352V86ZM567 778L680 627L627 586L517 704L407 586L354 627L467 778H567Z" />
<glyph unicode="&#xfc;" glyph-name="udieresis" horiz-adv-x="525" d="M352 86H339Q308 -12 210 -12Q141 -12 103 35T64 175V520H167V189Q167 76 255 76Q295 76 323 100T352 169V520H455V0H352V86ZM426 612Q394 612 380 625T365 661V682Q365 705 379 718T426
731Q458 731 472 718T487 682V661Q487 638 473 625T426 612ZM608 612Q576 612 562 625T547 661V682Q547 705 561 718T608 731Q640 731 654 718T669 682V661Q669 638 655 625T608 612Z" />
<glyph unicode="&#xfd;" glyph-name="yacute" horiz-adv-x="470" d="M354 520H456L255 -118Q247 -142 238 -158T215 -183T182 -196T138 -200H66V-115H160L184 -28L11 520H116L194 247L230 89H241L277 247L354 520ZM502 582L439 613L523 795L613 749L502 582Z" />
<glyph unicode="&#xfe;" glyph-name="thorn" d="M70 740H173V435H185Q198 481 231 506T311 532Q403 532 448 462T494 260Q494 129 449 59T311 -12Q265 -12 232 13T185 85H173V-200H70V740ZM274 76Q327 76 356 109T385 202V318Q385 378 356 411T274 444Q230 444
202 420T173 355V165Q173 125 201 101T274 76Z" />
<glyph unicode="&#xff;" glyph-name="ydieresis" horiz-adv-x="470" d="M354 520H456L255 -118Q247 -142 238 -158T215 -183T182 -196T138 -200H66V-115H160L184 -28L11 520H116L194 247L230 89H241L277 247L354 520ZM401 612Q369 612 355 625T340 661V682Q340
705 354 718T401 731Q433 731 447 718T462 682V661Q462 638 448 625T401 612ZM583 612Q551 612 537 625T522 661V682Q522 705 536 718T583 731Q615 731 629 718T644 682V661Q644 638 630 625T583 612Z" />
<glyph unicode="&#x2013;" glyph-name="endash" horiz-adv-x="528" d="M32 259V350H496V259H32Z" />
<glyph unicode="&#x2014;" glyph-name="emdash" horiz-adv-x="702" d="M32 259V350H670V259H32Z" />
<glyph unicode="&#x2018;" glyph-name="quoteleft" horiz-adv-x="263" d="M131 479Q96 479 80 494T63 538V559Q63 606 88 655T155 740H227Q198 709 179 680T150 615Q199 606 199 559V538Q199 510 183 495T131 479Z" />
<glyph unicode="&#x2019;" glyph-name="quoteright" horiz-adv-x="263" d="M132 747Q167 747 183 732T200 688V667Q200 620 175 571T108 486H36Q65 517 84 546T113 611Q64 620 64 667V688Q64 716 80 731T132 747Z" />
<glyph unicode="&#x201a;" glyph-name="quotesinglbase" horiz-adv-x="263" d="M132 145Q167 145 183 130T200 86V65Q200 18 175 -31T108 -116H36Q65 -85 84 -56T113 9Q64 18 64 65V86Q64 114 80 129T132 145Z" />
<glyph unicode="&#x201c;" glyph-name="quotedblleft" horiz-adv-x="459" d="M131 479Q96 479 80 494T63 538V559Q63 606 88 655T155 740H227Q198 709 179 680T150 615Q199 606 199 559V538Q199 510 183 495T131 479ZM327 479Q292 479 276 494T259 538V559Q259
606 284 655T351 740H423Q394 709 375 680T346 615Q395 606 395 559V538Q395 510 379 495T327 479Z" />
<glyph unicode="&#x201d;" glyph-name="quotedblright" horiz-adv-x="459" d="M132 747Q167 747 183 732T200 688V667Q200 620 175 571T108 486H36Q65 517 84 546T113 611Q64 620 64 667V688Q64 716 80 731T132 747ZM328 747Q363 747 379 732T396 688V667Q396
620 371 571T304 486H232Q261 517 280 546T309 611Q260 620 260 667V688Q260 716 276 731T328 747Z" />
<glyph unicode="&#x201e;" glyph-name="quotedblbase" horiz-adv-x="459" d="M132 145Q167 145 183 130T200 86V65Q200 18 175 -31T108 -116H36Q65 -85 84 -56T113 9Q64 18 64 65V86Q64 114 80 129T132 145ZM328 145Q363 145 379 130T396 86V65Q396 18 371 -31T304
-116H232Q261 -85 280 -56T309 9Q260 18 260 65V86Q260 114 276 129T328 145Z" />
<glyph unicode="&#x2022;" glyph-name="bullet" horiz-adv-x="372" d="M186 177Q60 177 60 279V326Q60 428 186 428Q312 428 312 326V279Q312 177 186 177Z" />
<glyph unicode="&#x2039;" glyph-name="guilsinglleft" horiz-adv-x="280" d="M204 87L34 234V326L204 473L236 405L124 286V275L236 155L204 87Z" />
<glyph unicode="&#x203a;" glyph-name="guilsinglright" horiz-adv-x="280" d="M76 473L246 326V234L76 87L44 155L156 274V285L44 405L76 473Z" />
</font>
</defs>
</svg>
