<svg width="664" height="498" viewBox="0 0 664 498" fill="none" xmlns="http://www.w3.org/2000/svg">
    <g clip-path="url(#clip0_322_2069)">
        <path opacity="0.8" fill-rule="evenodd" clip-rule="evenodd" d="M330.63 67C347.198 67 360.63 53.5685 360.63 37C360.63 20.4315 347.198 7 330.63 7C314.061 7 300.63 20.4315 300.63 37C300.63 53.5685 314.061 67 330.63 67ZM409.852 171.412C401.567 185.761 383.22 190.677 368.871 182.393C354.522 174.109 349.606 155.761 357.89 141.412C366.174 127.063 384.522 122.147 398.871 130.431C413.22 138.716 418.136 157.063 409.852 171.412ZM360.63 248.086C360.63 264.655 347.198 278.086 330.63 278.086C314.061 278.086 300.63 264.655 300.63 248.086C300.63 231.518 314.061 218.086 330.63 218.086C347.198 218.086 360.63 231.518 360.63 248.086ZM360.63 460.198C360.63 476.766 347.198 490.198 330.63 490.198C314.061 490.198 300.63 476.766 300.63 460.198C300.63 443.629 314.061 430.198 330.63 430.198C347.198 430.198 360.63 443.629 360.63 460.198ZM422.086 91.2461C436.435 99.5303 454.783 94.6141 463.067 80.2653C471.351 65.9165 466.435 47.5688 452.086 39.2845C437.737 31.0003 419.39 35.9165 411.105 50.2653C402.821 64.6141 407.737 82.9618 422.086 91.2461ZM251.469 446.765C243.184 461.114 224.837 466.03 210.488 457.746C196.139 449.461 191.223 431.114 199.507 416.765C207.791 402.416 226.139 397.5 240.488 405.784C254.837 414.068 259.753 432.416 251.469 446.765ZM488.723 157.716C497.007 172.065 515.355 176.981 529.704 168.697C544.052 160.412 548.969 142.065 540.684 127.716C532.4 113.367 514.052 108.451 499.704 116.735C485.355 125.019 480.439 143.367 488.723 157.716ZM163.204 380.295C148.855 388.58 130.507 383.663 122.223 369.315C113.939 354.966 118.855 336.618 133.204 328.334C147.553 320.049 165.9 324.966 174.185 339.315C182.469 353.663 177.553 372.011 163.204 380.295ZM513.198 248.086C513.198 264.655 526.629 278.086 543.198 278.086C559.766 278.086 573.198 264.655 573.198 248.086C573.198 231.518 559.766 218.086 543.198 218.086C526.629 218.086 513.198 231.518 513.198 248.086ZM120 278.086C103.431 278.086 90 264.655 90 248.086C90 231.518 103.431 218.086 120 218.086C136.569 218.086 150 231.518 150 248.086C150 264.655 136.569 278.086 120 278.086ZM488.951 339.543C480.667 353.892 485.583 372.239 499.932 380.524C514.281 388.808 532.629 383.892 540.913 369.543C549.197 355.194 544.281 336.846 529.932 328.562C515.583 320.278 497.236 325.194 488.951 339.543ZM133.433 168.925C119.084 160.641 114.168 142.293 122.452 127.944C130.736 113.595 149.084 108.679 163.433 116.964C177.782 125.248 182.698 143.595 174.414 157.944C166.129 172.293 147.782 177.209 133.433 168.925ZM422.482 406.18C408.133 414.464 403.217 432.812 411.501 447.16C419.785 461.509 438.133 466.426 452.482 458.141C466.831 449.857 471.747 431.509 463.463 417.16C455.178 402.812 436.831 397.895 422.482 406.18ZM199.902 80.6608C191.618 66.3121 196.534 47.9643 210.883 39.6801C225.232 31.3958 243.58 36.3121 251.864 50.6608C260.148 65.0096 255.232 83.3573 240.883 91.6416C226.534 99.9259 208.187 95.0096 199.902 80.6608ZM262.815 366.087C277.164 374.371 295.512 369.455 303.796 355.106C312.08 340.757 307.164 322.409 292.815 314.125C278.467 305.841 260.119 310.757 251.835 325.106C243.55 339.455 248.467 357.802 262.815 366.087ZM437.398 278.599C420.83 278.599 407.398 265.167 407.398 248.599C407.398 232.03 420.83 218.599 437.398 218.599C453.967 218.599 467.398 232.03 467.398 248.599C467.398 265.167 453.967 278.599 437.398 278.599ZM195.799 248.599C195.799 265.167 209.231 278.599 225.799 278.599C242.368 278.599 255.799 265.167 255.799 248.599C255.799 232.03 242.368 218.599 225.799 218.599C209.231 218.599 195.799 232.03 195.799 248.599ZM358.602 355.536C350.317 341.187 355.234 322.839 369.582 314.555C383.931 306.271 402.279 311.187 410.563 325.536C418.848 339.885 413.931 358.232 399.582 366.517C385.234 374.801 366.886 369.885 358.602 355.536ZM263.783 131.305C249.434 139.589 244.518 157.937 252.802 172.286C261.086 186.635 279.434 191.551 293.783 183.267C308.132 174.982 313.048 156.635 304.764 142.286C296.479 127.937 278.132 123.021 263.783 131.305Z" fill="url(#paint0_radial_322_2069)" />
        <path fill-rule="evenodd" clip-rule="evenodd" d="M664 0H0V498H664V0ZM100 96C97.7909 96 96 97.7909 96 100V398C96 400.209 97.7909 402 100 402H564C566.209 402 568 400.209 568 398V100C568 97.7909 566.209 96 564 96H100Z" fill="url(#paint1_radial_322_2069)" />
        <rect x="98" y="98" width="468" height="302" rx="6" stroke="#49461F" stroke-width="4" />
    </g>
    <defs>
        <radialGradient id="paint0_radial_322_2069" cx="0" cy="0" r="1" gradientUnits="userSpaceOnUse" gradientTransform="translate(331.599 248.599) rotate(90) scale(241.599)">
            <stop stop-color="#2B692A" />
            <stop offset="1" stop-color="#409E3F" />
        </radialGradient>
        <radialGradient id="paint1_radial_322_2069" cx="0" cy="0" r="1" gradientUnits="userSpaceOnUse" gradientTransform="translate(332 249) rotate(90) scale(249 332)">
            <stop stop-color="#F9F9F1" stop-opacity="0" />
            <stop offset="1" stop-color="#F9F9F1" />
        </radialGradient>
        <clipPath id="clip0_322_2069">
            <rect width="664" height="498" fill="white" />
        </clipPath>
    </defs>
</svg>