<svg width="1440" height="696" viewBox="0 0 1440 696" fill="none" xmlns="http://www.w3.org/2000/svg">

    <!-- Sticky notes -->
    <rect width="48" height="48" transform="translate(188 139)" fill="#ECD437" class="stickynote" style="animation-delay: -1.2s" />

    <rect width="48" height="48" transform="translate(1098 597)" fill="#ECD437" class="stickynote" style="animation-delay: -3s" />

    <rect width="48" height="48" transform="translate(224.691 154.691)" fill="#ECD437" class="stickynote" style="animation-delay: -1s" />

    <rect width="48" height="48" transform="translate(517.518 82.5171)" fill="#ECD437" class="stickynote" style="animation-delay: -18s" />

    <rect width="48" height="48" transform="translate(375 573)" fill="#ECD437" class="stickynote" style="animation-delay: -9s" />

    <rect width="48" height="48" transform="translate(1298 281)" fill="#ECD437" class="stickynote" style="animation-delay: -15.2s" />

    <rect width="48" height="48" transform="translate(1259 269)" fill="#ECD437" class="stickynote" style="animation-delay: -15s" />

    <rect width="48" height="48" transform="translate(1122 563)" fill="#ECD437" class="stickynote" style="animation-delay: -3.2s" />

    <rect width="48" height="48" transform="translate(453 120)" fill="#ECD437" class="stickynote" style="animation-delay: -18.2s" />

    <rect width="48" height="48" transform="translate(314 568)" fill="#ECD437" class="stickynote" style="animation-delay: -9.2s" />

    <rect width="48" height="48" transform="translate(964 168)" fill="#ECD437" class="stickynote" style="animation-delay: -6.2s" />

    <rect width="48" height="48" transform="translate(889 170)" fill="#ECD437" class="stickynote" style="animation-delay: -6s" />

    <rect width="48" height="48" transform="translate(679 617)" fill="#ECD437" class="stickynote" style="animation-delay: -12s" />

    <rect width="48" height="48" transform="translate(338 597)" fill="#ECD437" class="stickynote" style="animation-delay: -9.4s" />

    <!-- arrows and rects -->

    <g opacity="0.6">
        <path class="arrow1" style="animation-delay: -17.2s" d="M512 50C489.29 50 475 68.5803 475 98.5" stroke="#2C393A" stroke-width="2" stroke-linecap="round" stroke-linejoin="round" />
        <path class="arrowhead" style="animation-delay: -17.4s" d="M481.5 92.5L475.707 98.2929C475.317 98.6834 474.683 98.6834 474.293 98.2929L468.5 92.5" stroke="#2C393A" stroke-width="2" stroke-linecap="round" stroke-linejoin="round" />
    </g>
    <g opacity="0.6">
        <path d="M828 604.5C828 636.5 766 643 742.5 642.5" stroke="#2C393A" stroke-width="2" stroke-linecap="round" stroke-linejoin="round" />
        <path d="M748.5 636L742.707 641.793C742.317 642.183 742.317 642.817 742.707 643.207L748.5 649" stroke="#2C393A" stroke-width="2" stroke-linecap="round" stroke-linejoin="round" />
    </g>
    <g opacity="0.6">
        <path d="M134 401.5C134 414 142 426.5 165.5 426" stroke="#2C393A" stroke-width="2" stroke-linecap="round" stroke-linejoin="round" />
        <path d="M159.5 419.5L165.293 425.293C165.683 425.683 165.683 426.317 165.293 426.707L159.5 432.5" stroke="#2C393A" stroke-width="2" stroke-linecap="round" stroke-linejoin="round" />
    </g>
    <g opacity="0.6">
        <path d="M134 368C134 355.5 142 343 165.5 343.5" stroke="#2C393A" stroke-width="2" stroke-linecap="round" stroke-linejoin="round" />
        <path d="M159.5 350L165.293 344.207C165.683 343.817 165.683 343.183 165.293 342.793L159.5 337" stroke="#2C393A" stroke-width="2" stroke-linecap="round" stroke-linejoin="round" />
    </g>
    <g opacity="0.6">
        <rect x="46" y="373" width="32" height="24" rx="4" fill="#2C393A" />
    </g>
    <path opacity="0.6" d="M131.658 373.691C133.056 372.682 134.944 372.682 136.342 373.691L147.51 381.757C149.721 383.354 149.721 386.646 147.51 388.243L136.342 396.309C134.944 397.318 133.056 397.318 131.658 396.309L120.49 388.243C118.279 386.646 118.279 383.354 120.49 381.757L131.658 373.691Z" fill="#2C393A" />
    <path opacity="0.6" d="M82 384C81.4477 384 81 384.448 81 385C81 385.552 81.4477 386 82 386L82 384ZM114.707 385.707C115.098 385.317 115.098 384.683 114.707 384.293L108.343 377.929C107.953 377.538 107.319 377.538 106.929 377.929C106.538 378.319 106.538 378.953 106.929 379.343L112.586 385L106.929 390.657C106.538 391.047 106.538 391.681 106.929 392.071C107.319 392.462 107.953 392.462 108.343 392.071L114.707 385.707ZM82 386L114 386L114 384L82 384L82 386Z" fill="#2C393A" />
    <g opacity="0.6">
        <rect x="170" y="332" width="32" height="24" rx="4" fill="#2C393A" />
    </g>
    <g opacity="0.6">
        <rect x="170" y="414" width="32" height="24" rx="4" fill="#2C393A" />
    </g>
    <g opacity="0.6">
        <path d="M1346.5 121.5L1340 128L1333.5 121.5" stroke="#2C393A" stroke-width="2" stroke-linecap="round" stroke-linejoin="round" />
        <path d="M1341 104C1341 103.448 1340.55 103 1340 103C1339.45 103 1339 103.448 1339 104L1341 104ZM1339 104L1339 128L1341 128L1341 104L1339 104Z" fill="#2C393A" />
    </g>
    <g opacity="0.6">
        <rect x="1252" y="76" width="32" height="24" rx="4" fill="#2C393A" />
    </g>
    <g opacity="0.6">
        <rect x="1324" y="76" width="32" height="24" rx="4" fill="#2C393A" />
    </g>
    <g opacity="0.6">
        <rect x="1324" y="132" width="32" height="24" rx="4" fill="#2C393A" />
    </g>
    <g opacity="0.6">
        <path d="M1313.5 81.5L1320 88L1313.5 94.5" stroke="#2C393A" stroke-width="2" stroke-linecap="round" stroke-linejoin="round" />
        <path d="M1288 87C1287.45 87 1287 87.4477 1287 88C1287 88.5523 1287.45 89 1288 89L1288 87ZM1288 89L1320 89L1320 87L1288 87L1288 89Z" fill="#2C393A" />
    </g>
    <g opacity="0.6">
        <path d="M299.5 580.5L306 587L299.5 593.5" stroke="#2C393A" stroke-width="2" stroke-linecap="round" stroke-linejoin="round" />
        <path d="M263 586C262.448 586 262 586.448 262 587C262 587.552 262.448 588 263 588L263 586ZM263 588L306 588L306 586L263 586L263 588Z" fill="#2C393A" />
    </g>
    <g opacity="0.6">
        <rect x="638" y="158" width="32" height="24" rx="4" fill="#2C393A" />
    </g>
    <path opacity="0.6" d="M724.658 158.691C726.056 157.682 727.944 157.682 729.342 158.691L740.51 166.757C742.721 168.354 742.721 171.646 740.51 173.243L729.342 181.309C727.944 182.318 726.056 182.318 724.658 181.309L713.49 173.243C711.279 171.646 711.279 168.354 713.49 166.757L724.658 158.691Z" fill="#2C393A" />
    <path opacity="0.6" d="M816 170C816 176.627 808.837 182 800 182C791.163 182 784 176.627 784 170C784 163.373 791.163 158 800 158C808.837 158 816 163.373 816 170Z" fill="#2C393A" />
    <g opacity="0.6">
        <path d="M700.5 163.5L707 170L700.5 176.5" stroke="#2C393A" stroke-width="2" stroke-linecap="round" stroke-linejoin="round" />
        <path d="M675 169C674.448 169 674 169.448 674 170C674 170.552 674.448 171 675 171L675 169ZM675 171L707 171L707 169L675 169L675 171Z" fill="#2C393A" />
    </g>
    <g opacity="0.6">
        <path d="M771.5 163.5L778 170L771.5 176.5" stroke="#2C393A" stroke-width="2" stroke-linecap="round" stroke-linejoin="round" />
        <path d="M746 169C745.448 169 745 169.448 745 170C745 170.552 745.448 171 746 171L746 169ZM746 171L778 171L778 169L746 169L746 171Z" fill="#2C393A" />
    </g>

    <style>
    .stickynote {
        animation: stickynote 21s linear;
        animation-iteration-count: infinite;
    }

    @keyframes stickynote {
        0% {
            opacity: 0;
        }
        49% {
            opacity: 0;
        }
        50% {
            opacity: .6;
        }
        99% {
            opacity: .6;
        }
        100% {
            opacity: 0;
        }
    }
    

    .arrowhead {
        stroke-dasharray: 18;
        stroke-dashoffset: 18;
        animation: arrowhead 20s linear;
        animation-iteration-count: infinite;
    }

    @keyframes arrowhead {
        0% {
            stroke-dashoffset: 18;
        }
        49% {
            stroke-dashoffset: 18;
        }
        50% {
            stroke-dashoffset: 0;
        }
        99% {
            stroke-dashoffset: 0;
        }
        100% {
            stroke-dashoffset: 18;
        }
    }
    .arrow1 {
        stroke-dasharray: 69;
        stroke-dashoffset: 69;
        animation: arrow1 20s linear;
        animation-iteration-count: infinite;
    }

    @keyframes arrow1 {
        0% {
            stroke-dashoffset: 69;
        }
        49% {
            stroke-dashoffset: 69;
        }
        50% {
            stroke-dashoffset: 0;
        }
        99% {
            stroke-dashoffset: 0;
        }
        100% {
            stroke-dashoffset: 69;
        }
    }
</style>
</svg>