<svg width="1440" height="696" viewBox="0 0 1440 696" fill="none" xmlns="http://www.w3.org/2000/svg">
    <rect width="48" height="48" transform="translate(188 139)" fill="#ECD437" class="stickynote" style="animation-delay: -1.2s" />

    <rect width="48" height="48" transform="translate(1098 597)" fill="#ECD437" class="stickynote" style="animation-delay: -3s" />

    <rect width="48" height="48" transform="translate(224.691 154.691)" fill="#ECD437" class="stickynote" style="animation-delay: -1s" />

    <rect width="48" height="48" transform="translate(517.518 82.5171)" fill="#ECD437" class="stickynote" style="animation-delay: -18s" />

    <rect width="48" height="48" transform="translate(375 573)" fill="#ECD437" class="stickynote" style="animation-delay: -9s" />

    <rect width="48" height="48" transform="translate(1298 281)" fill="#ECD437" class="stickynote" style="animation-delay: -15.2s" />

    <rect width="48" height="48" transform="translate(1259 269)" fill="#ECD437" class="stickynote" style="animation-delay: -15s" />

    <rect width="48" height="48" transform="translate(1122 563)" fill="#ECD437" class="stickynote" style="animation-delay: -3.2s" />

    <rect width="48" height="48" transform="translate(453 120)" fill="#ECD437" class="stickynote" style="animation-delay: -18.2s" />

    <rect width="48" height="48" transform="translate(314 568)" fill="#ECD437" class="stickynote" style="animation-delay: -9.2s" />

    <rect width="48" height="48" transform="translate(964 168)" fill="#ECD437" class="stickynote" style="animation-delay: -6.2s" />

    <rect width="48" height="48" transform="translate(889 170)" fill="#ECD437" class="stickynote" style="animation-delay: -6s" />

    <rect width="48" height="48" transform="translate(679 617)" fill="#ECD437" class="stickynote" style="animation-delay: -12s" />

    <rect width="48" height="48" transform="translate(338 597)" fill="#ECD437" class="stickynote" style="animation-delay: -9.4s" />
    <path opacity="0.6" d="M512 51C512.552 51 513 50.5523 513 50C513 49.4477 512.552 49 512 49V51ZM474.293 99.7071C474.683 100.098 475.317 100.098 475.707 99.7071L482.071 93.3431C482.462 92.9526 482.462 92.3195 482.071 91.9289C481.681 91.5384 481.047 91.5384 480.657 91.9289L475 97.5858L469.343 91.9289C468.953 91.5384 468.319 91.5384 467.929 91.9289C467.538 92.3195 467.538 92.9526 467.929 93.3431L474.293 99.7071ZM512 49C500.332 49 490.786 53.9167 484.185 62.6784C477.606 71.4113 474 83.8944 474 99H476C476 84.1859 479.539 72.169 485.782 63.8818C492.004 55.6235 500.958 51 512 51V49Z" fill="#2C393A" />
    <path opacity="0.6" d="M827 605C827 604.448 827.448 604 828 604C828.552 604 829 604.448 829 605L827 605ZM741.293 642.707C740.902 642.317 740.902 641.683 741.293 641.293L747.657 634.929C748.047 634.538 748.681 634.538 749.071 634.929C749.462 635.319 749.462 635.953 749.071 636.343L743.414 642L749.071 647.657C749.462 648.047 749.462 648.681 749.071 649.071C748.681 649.462 748.047 649.462 747.657 649.071L741.293 642.707ZM829 605C829 616.948 820.172 626.46 805.086 632.935C789.978 639.421 768.327 643 742 643L742 641C768.185 641 789.534 637.434 804.298 631.097C819.085 624.75 827 615.762 827 605L829 605Z" fill="#2C393A" />
    <path opacity="0.6" d="M135 368C135 368.552 134.552 369 134 369C133.448 369 133 368.552 133 368L135 368ZM166.707 343.293C167.098 343.683 167.098 344.317 166.707 344.707L160.343 351.071C159.953 351.462 159.319 351.462 158.929 351.071C158.538 350.681 158.538 350.047 158.929 349.657L164.586 344L158.929 338.343C158.538 337.953 158.538 337.319 158.929 336.929C159.319 336.538 159.953 336.538 160.343 336.929L166.707 343.293ZM133 368C133 360.319 136.264 354.022 142.074 349.675C147.854 345.35 156.086 343 166 343L166 345C156.375 345 148.607 347.285 143.272 351.277C137.966 355.247 135 360.95 135 368L133 368Z" fill="#2C393A" />
    <path opacity="0.6" d="M135 402C135 401.448 134.552 401 134 401C133.448 401 133 401.448 133 402L135 402ZM166.707 426.707C167.098 426.317 167.098 425.683 166.707 425.293L160.343 418.929C159.953 418.538 159.319 418.538 158.929 418.929C158.538 419.319 158.538 419.953 158.929 420.343L164.586 426L158.929 431.657C158.538 432.047 158.538 432.681 158.929 433.071C159.319 433.462 159.953 433.462 160.343 433.071L166.707 426.707ZM133 402C133 409.681 136.264 415.978 142.074 420.325C147.854 424.65 156.086 427 166 427L166 425C156.375 425 148.607 422.715 143.272 418.723C137.966 414.753 135 409.05 135 402L133 402Z" fill="#2C393A" />
    <path opacity="0.6" d="M263 586C262.448 586 262 586.448 262 587C262 587.552 262.448 588 263 588V586ZM306.707 587.707C307.098 587.317 307.098 586.683 306.707 586.293L300.343 579.929C299.953 579.538 299.319 579.538 298.929 579.929C298.538 580.319 298.538 580.953 298.929 581.343L304.586 587L298.929 592.657C298.538 593.047 298.538 593.681 298.929 594.071C299.319 594.462 299.953 594.462 300.343 594.071L306.707 587.707ZM263 588H306V586H263V588Z" fill="#2C393A" />
    <g opacity="0.6">
        <rect x="47" y="374" width="30" height="22" rx="3" fill="#2C393A" />
        <rect x="47" y="374" width="30" height="22" rx="3" stroke="#2C393A" stroke-width="2" />
    </g>
    <g opacity="0.6">
        <rect x="639" y="159" width="30" height="22" rx="3" fill="#2C393A" />
        <rect x="639" y="159" width="30" height="22" rx="3" stroke="#2C393A" stroke-width="2" />
    </g>
    <path opacity="0.6" d="M135.756 374.502L146.925 382.568C148.583 383.765 148.583 386.235 146.925 387.432L135.756 395.498C134.708 396.255 133.292 396.255 132.244 395.498L121.075 387.432C119.417 386.235 119.417 383.765 121.075 382.568L132.244 374.502C133.292 373.745 134.708 373.745 135.756 374.502Z" fill="#2C393A" stroke="#2C393A" stroke-width="2" />
    <path opacity="0.6" d="M728.756 159.502L739.925 167.568C741.583 168.765 741.583 171.235 739.925 172.432L728.756 180.498C727.708 181.255 726.292 181.255 725.244 180.498L714.075 172.432C712.417 171.235 712.417 168.765 714.075 167.568L725.244 159.502C726.292 158.745 727.708 158.745 728.756 159.502Z" fill="#2C393A" stroke="#2C393A" stroke-width="2" />
    <path opacity="0.6" d="M82 384C81.4477 384 81 384.448 81 385C81 385.552 81.4477 386 82 386L82 384ZM114.707 385.707C115.098 385.317 115.098 384.683 114.707 384.293L108.343 377.929C107.953 377.538 107.319 377.538 106.929 377.929C106.538 378.319 106.538 378.953 106.929 379.343L112.586 385L106.929 390.657C106.538 391.047 106.538 391.681 106.929 392.071C107.319 392.462 107.953 392.462 108.343 392.071L114.707 385.707ZM82 386L114 386L114 384L82 384L82 386Z" fill="#2C393A" />
    <path opacity="0.6" d="M674 169C673.448 169 673 169.448 673 170C673 170.552 673.448 171 674 171L674 169ZM706.707 170.707C707.098 170.317 707.098 169.683 706.707 169.293L700.343 162.929C699.953 162.538 699.319 162.538 698.929 162.929C698.538 163.319 698.538 163.953 698.929 164.343L704.586 170L698.929 175.657C698.538 176.047 698.538 176.681 698.929 177.071C699.319 177.462 699.953 177.462 700.343 177.071L706.707 170.707ZM674 171L706 171L706 169L674 169L674 171Z" fill="#2C393A" />
    <path opacity="0.6" d="M748 169C747.448 169 747 169.448 747 170C747 170.552 747.448 171 748 171L748 169ZM780.707 170.707C781.098 170.317 781.098 169.683 780.707 169.293L774.343 162.929C773.953 162.538 773.319 162.538 772.929 162.929C772.538 163.319 772.538 163.953 772.929 164.343L778.586 170L772.929 175.657C772.538 176.047 772.538 176.681 772.929 177.071C773.319 177.462 773.953 177.462 774.343 177.071L780.707 170.707ZM748 171L780 171L780 169L748 169L748 171Z" fill="#2C393A" />
    <g opacity="0.6">
        <rect x="171" y="333" width="30" height="22" rx="3" fill="#2C393A" />
        <rect x="171" y="333" width="30" height="22" rx="3" stroke="#2C393A" stroke-width="2" />
    </g>
    <g opacity="0.6">
        <rect x="171" y="415" width="30" height="22" rx="3" fill="#2C393A" />
        <rect x="171" y="415" width="30" height="22" rx="3" stroke="#2C393A" stroke-width="2" />
    </g>
    <g opacity="0.6">
        <rect x="1253" y="77" width="30" height="22" rx="3" fill="#2C393A" />
        <rect x="1253" y="77" width="30" height="22" rx="3" stroke="#2C393A" stroke-width="2" />
    </g>
    <path opacity="0.6" d="M1288 87C1287.45 87 1287 87.4477 1287 88C1287 88.5523 1287.45 89 1288 89L1288 87ZM1320.71 88.7071C1321.1 88.3166 1321.1 87.6834 1320.71 87.2929L1314.34 80.9289C1313.95 80.5384 1313.32 80.5384 1312.93 80.9289C1312.54 81.3195 1312.54 81.9526 1312.93 82.3431L1318.59 88L1312.93 93.6569C1312.54 94.0474 1312.54 94.6805 1312.93 95.0711C1313.32 95.4616 1313.95 95.4616 1314.34 95.0711L1320.71 88.7071ZM1288 89L1320 89L1320 87L1288 87L1288 89Z" fill="#2C393A" />
    <g opacity="0.6">
        <rect x="1325" y="77" width="30" height="22" rx="3" fill="#2C393A" />
        <rect x="1325" y="77" width="30" height="22" rx="3" stroke="#2C393A" stroke-width="2" />
    </g>
    <path opacity="0.6" d="M1341 104C1341 103.448 1340.55 103 1340 103C1339.45 103 1339 103.448 1339 104L1341 104ZM1339.29 128.707C1339.68 129.098 1340.32 129.098 1340.71 128.707L1347.07 122.343C1347.46 121.953 1347.46 121.319 1347.07 120.929C1346.68 120.538 1346.05 120.538 1345.66 120.929L1340 126.586L1334.34 120.929C1333.95 120.538 1333.32 120.538 1332.93 120.929C1332.54 121.319 1332.54 121.953 1332.93 122.343L1339.29 128.707ZM1339 104L1339 128L1341 128L1341 104L1339 104Z" fill="#2C393A" />
    <g opacity="0.6">
        <rect x="1325" y="133" width="30" height="22" rx="3" fill="#2C393A" />
        <rect x="1325" y="133" width="30" height="22" rx="3" stroke="#2C393A" stroke-width="2" />
    </g>
    <ellipse opacity="0.6" cx="800" cy="170" rx="16" ry="12" fill="#2C393A" />

    <style>
    @keyframes stickynote {
        0% {
            opacity: 0;
        }
        49% {
            opacity: 0;
        }
        50% {
            opacity: .6;
        }
        99% {
            opacity: .6;
        }
        100% {
            opacity: 0;
        }
    }

    .stickynote {
        animation: stickynote 21s linear;
        animation-iteration-count: infinite;
    }
</style>
</svg>