<svg width="664" height="498" viewBox="0 0 664 498" fill="none" xmlns="http://www.w3.org/2000/svg">
    <g id="diagram">
        <path d="M173.88 261.325C175.177 260.514 176.823 260.514 178.12 261.325L194.573 271.608C197.079 273.175 197.079 276.825 194.573 278.392L178.12 288.675C176.823 289.486 175.177 289.486 173.88 288.675L157.427 278.392C154.921 276.825 154.921 273.175 157.427 271.608L173.88 261.325Z" fill="#409E3F" />
        <path d="M241.88 261.325C243.177 260.514 244.823 260.514 246.12 261.325L262.573 271.608C265.079 273.175 265.079 276.825 262.573 278.392L246.12 288.675C244.823 289.486 243.177 289.486 241.88 288.675L225.427 278.392C222.921 276.825 222.921 273.175 225.427 271.608L241.88 261.325Z" fill="#409E3F" />
        <path d="M434.88 211.325C436.177 210.514 437.823 210.514 439.12 211.325L455.573 221.608C458.079 223.175 458.079 226.825 455.573 228.392L439.12 238.675C437.823 239.486 436.177 239.486 434.88 238.675L418.427 228.392C415.92 226.825 415.92 223.175 418.427 221.608L434.88 211.325Z" fill="#409E3F" />
        <path d="M241.88 211.325C243.177 210.514 244.823 210.514 246.12 211.325L262.573 221.608C265.079 223.175 265.079 226.825 262.573 228.392L246.12 238.675C244.823 239.486 243.177 239.486 241.88 238.675L225.427 228.392C222.921 226.825 222.921 223.175 225.427 221.608L241.88 211.325Z" fill="#409E3F" />
        <path fill-rule="evenodd" clip-rule="evenodd" d="M415.354 370.646C415.549 370.842 415.549 371.158 415.354 371.354L412.172 374.536C411.976 374.731 411.66 374.731 411.464 374.536C411.269 374.34 411.269 374.024 411.464 373.828L413.793 371.5L397 371.5C396.724 371.5 396.5 371.276 396.5 371C396.5 370.724 396.724 370.5 397 370.5L413.793 370.5L411.464 368.172C411.269 367.976 411.269 367.66 411.464 367.464C411.66 367.269 411.976 367.269 412.172 367.464L415.354 370.646Z" fill="#49461F" />
        <path fill-rule="evenodd" clip-rule="evenodd" d="M415.354 224.646C415.549 224.842 415.549 225.158 415.354 225.354L412.172 228.536C411.976 228.731 411.66 228.731 411.464 228.536C411.269 228.34 411.269 228.024 411.464 227.828L413.793 225.5L397 225.5C396.724 225.5 396.5 225.276 396.5 225C396.5 224.724 396.724 224.5 397 224.5L413.793 224.5L411.464 222.172C411.269 221.976 411.269 221.66 411.464 221.464C411.66 221.269 411.976 221.269 412.172 221.464L415.354 224.646Z" fill="#49461F" />
        <path fill-rule="evenodd" clip-rule="evenodd" d="M482.354 224.646C482.549 224.842 482.549 225.158 482.354 225.354L479.172 228.536C478.976 228.731 478.66 228.731 478.464 228.536C478.269 228.34 478.269 228.024 478.464 227.828L480.793 225.5H459C458.724 225.5 458.5 225.276 458.5 225C458.5 224.724 458.724 224.5 459 224.5H480.793L478.464 222.172C478.269 221.976 478.269 221.66 478.464 221.464C478.66 221.269 478.976 221.269 479.172 221.464L482.354 224.646Z" fill="#49461F" />
        <path fill-rule="evenodd" clip-rule="evenodd" d="M437.354 261.354C437.158 261.549 436.842 261.549 436.646 261.354L433.464 258.172C433.269 257.976 433.269 257.66 433.464 257.464C433.66 257.269 433.976 257.269 434.172 257.464L436.5 259.793L436.5 242C436.5 241.724 436.724 241.5 437 241.5C437.276 241.5 437.5 241.724 437.5 242L437.5 259.793L439.828 257.464C440.024 257.269 440.34 257.269 440.536 257.464C440.731 257.66 440.731 257.976 440.536 258.172L437.354 261.354Z" fill="#49461F" />
        <path fill-rule="evenodd" clip-rule="evenodd" d="M372.646 336.646C372.842 336.451 373.158 336.451 373.354 336.646L376.536 339.828C376.731 340.024 376.731 340.34 376.536 340.536C376.34 340.731 376.024 340.731 375.828 340.536L373.5 338.207L373.5 358C373.5 358.276 373.276 358.5 373 358.5C372.724 358.5 372.5 358.276 372.5 358L372.5 338.207L370.172 340.536C369.976 340.731 369.66 340.731 369.464 340.536C369.269 340.34 369.269 340.024 369.464 339.828L372.646 336.646Z" fill="#49461F" />
        <path fill-rule="evenodd" clip-rule="evenodd" d="M244.354 358.354C244.158 358.549 243.842 358.549 243.646 358.354L240.464 355.172C240.269 354.976 240.269 354.66 240.464 354.464C240.66 354.269 240.976 354.269 241.172 354.464L243.5 356.793L243.5 342C243.5 341.724 243.724 341.5 244 341.5C244.276 341.5 244.5 341.724 244.5 342L244.5 356.793L246.828 354.464C247.024 354.269 247.34 354.269 247.536 354.464C247.731 354.66 247.731 354.976 247.536 355.172L244.354 358.354Z" fill="#49461F" />
        <path fill-rule="evenodd" clip-rule="evenodd" d="M244.354 306.354C244.158 306.549 243.842 306.549 243.646 306.354L240.464 303.172C240.269 302.976 240.269 302.66 240.464 302.464C240.66 302.269 240.976 302.269 241.172 302.464L243.5 304.793L243.5 292C243.5 291.724 243.724 291.5 244 291.5C244.276 291.5 244.5 291.724 244.5 292L244.5 304.793L246.828 302.464C247.024 302.269 247.34 302.269 247.536 302.464C247.731 302.66 247.731 302.976 247.536 303.172L244.354 306.354Z" fill="#49461F" />
        <path fill-rule="evenodd" clip-rule="evenodd" d="M262.646 325.354C262.451 325.158 262.451 324.842 262.646 324.646L265.828 321.464C266.024 321.269 266.34 321.269 266.536 321.464C266.731 321.66 266.731 321.976 266.536 322.172L264.207 324.5L310 324.5C310.276 324.5 310.5 324.276 310.5 324L310.5 287C310.5 286.724 310.724 286.5 311 286.5C311.276 286.5 311.5 286.724 311.5 287L311.5 324C311.5 324.828 310.828 325.5 310 325.5L264.207 325.5L266.536 327.828C266.731 328.024 266.731 328.34 266.536 328.536C266.34 328.731 266.024 328.731 265.828 328.536L262.646 325.354Z" fill="#49461F" />
        <path fill-rule="evenodd" clip-rule="evenodd" d="M244.354 259.354C244.158 259.549 243.842 259.549 243.646 259.354L240.464 256.172C240.269 255.976 240.269 255.66 240.464 255.464C240.66 255.269 240.976 255.269 241.172 255.464L243.5 257.793L243.5 241C243.5 240.724 243.724 240.5 244 240.5C244.276 240.5 244.5 240.724 244.5 241L244.5 257.793L246.828 255.464C247.024 255.269 247.34 255.269 247.536 255.464C247.731 255.66 247.731 255.976 247.536 256.172L244.354 259.354Z" fill="#49461F" />
        <path fill-rule="evenodd" clip-rule="evenodd" d="M244.354 209.354C244.158 209.549 243.842 209.549 243.646 209.354L240.464 206.172C240.269 205.976 240.269 205.66 240.464 205.464C240.66 205.269 240.976 205.269 241.172 205.464L243.5 207.793L243.5 193C243.5 192.724 243.724 192.5 244 192.5C244.276 192.5 244.5 192.724 244.5 193L244.5 207.793L246.828 205.464C247.024 205.269 247.34 205.269 247.536 205.464C247.731 205.66 247.731 205.976 247.536 206.172L244.354 209.354Z" fill="#49461F" />
        <path fill-rule="evenodd" clip-rule="evenodd" d="M176.354 259.354C176.158 259.549 175.842 259.549 175.646 259.354L172.464 256.172C172.269 255.976 172.269 255.66 172.464 255.464C172.66 255.269 172.976 255.269 173.172 255.464L175.5 257.793L175.5 238C175.5 237.724 175.724 237.5 176 237.5C176.276 237.5 176.5 237.724 176.5 238L176.5 257.793L178.828 255.464C179.024 255.269 179.34 255.269 179.536 255.464C179.731 255.66 179.731 255.976 179.536 256.172L176.354 259.354Z" fill="#49461F" />
        <path fill-rule="evenodd" clip-rule="evenodd" d="M177 325.5C176.172 325.5 175.5 324.828 175.5 324L175.5 291C175.5 290.724 175.724 290.5 176 290.5C176.276 290.5 176.5 290.724 176.5 291L176.5 324C176.5 324.276 176.724 324.5 177 324.5L224.793 324.5L222.464 322.172C222.269 321.976 222.269 321.66 222.464 321.464C222.66 321.269 222.976 321.269 223.172 321.464L226.354 324.646C226.549 324.842 226.549 325.158 226.354 325.354L223.172 328.536C222.976 328.731 222.66 328.731 222.464 328.536C222.269 328.34 222.269 328.024 222.464 327.828L224.793 325.5L177 325.5Z" fill="#49461F" />
        <path fill-rule="evenodd" clip-rule="evenodd" d="M176.354 212.354C176.158 212.549 175.842 212.549 175.646 212.354L172.464 209.172C172.269 208.976 172.269 208.66 172.464 208.464C172.66 208.269 172.976 208.269 173.172 208.464L175.5 210.793L175.5 193C175.5 192.724 175.724 192.5 176 192.5C176.276 192.5 176.5 192.724 176.5 193L176.5 210.793L178.828 208.464C179.024 208.269 179.34 208.269 179.536 208.464C179.731 208.66 179.731 208.976 179.536 209.172L176.354 212.354Z" fill="#49461F" />
        <path fill-rule="evenodd" clip-rule="evenodd" d="M177 154.5C176.724 154.5 176.5 154.724 176.5 155L176.5 166.793L178.828 164.465C179.024 164.269 179.34 164.269 179.535 164.465C179.731 164.66 179.731 164.976 179.535 165.172L176.354 168.354C176.158 168.549 175.842 168.549 175.646 168.354L172.464 165.172C172.269 164.976 172.269 164.66 172.464 164.465C172.66 164.269 172.976 164.269 173.172 164.465L175.5 166.793L175.5 155C175.5 154.172 176.172 153.5 177 153.5L209 153.5C209.276 153.5 209.5 153.276 209.5 153L209.5 140C209.5 139.724 209.724 139.5 210 139.5C210.276 139.5 210.5 139.724 210.5 140L210.5 153C210.5 153.828 209.828 154.5 209 154.5L177 154.5Z" fill="#49461F" />
        <path fill-rule="evenodd" clip-rule="evenodd" d="M242.87 154.5C243.146 154.5 243.37 154.724 243.37 155L243.37 166.793L241.042 164.465C240.846 164.269 240.53 164.269 240.335 164.465C240.139 164.66 240.139 164.976 240.335 165.172L243.517 168.354C243.712 168.549 244.028 168.549 244.224 168.354L247.406 165.172C247.601 164.976 247.601 164.66 247.406 164.465C247.21 164.269 246.894 164.269 246.699 164.465L244.37 166.793L244.37 155C244.37 154.172 243.699 153.5 242.87 153.5L210.87 153.5C210.594 153.5 210.37 153.276 210.37 153L210.37 140C210.37 139.724 210.146 139.5 209.87 139.5C209.594 139.5 209.37 139.724 209.37 140L209.37 153C209.37 153.828 210.042 154.5 210.87 154.5L242.87 154.5Z" fill="#49461F" />
        <path fill-rule="evenodd" clip-rule="evenodd" d="M243.5 249C243.5 248.724 243.724 248.5 244 248.5L310 248.5C310.828 248.5 311.5 249.172 311.5 250L311.5 260.793L313.828 258.464C314.024 258.269 314.34 258.269 314.536 258.464C314.731 258.66 314.731 258.976 314.536 259.172L311.354 262.354C311.158 262.549 310.842 262.549 310.646 262.354L307.464 259.172C307.269 258.976 307.269 258.66 307.464 258.464C307.66 258.269 307.976 258.269 308.172 258.464L310.5 260.793L310.5 250C310.5 249.724 310.276 249.5 310 249.5L244 249.5C243.724 249.5 243.5 249.276 243.5 249Z" fill="#49461F" />
        <path fill-rule="evenodd" clip-rule="evenodd" d="M372.646 237.646C372.842 237.451 373.158 237.451 373.354 237.646L376.536 240.828C376.731 241.024 376.731 241.34 376.536 241.536C376.34 241.731 376.024 241.731 375.828 241.536L373.5 239.207L373.5 311C373.5 311.276 373.276 311.5 373 311.5C372.724 311.5 372.5 311.276 372.5 311L372.5 239.207L370.172 241.536C369.976 241.731 369.66 241.731 369.464 241.536C369.269 241.34 369.269 241.024 369.464 240.828L372.646 237.646Z" fill="#49461F" />
        <path fill-rule="evenodd" clip-rule="evenodd" d="M350.354 370.646C350.549 370.842 350.549 371.158 350.354 371.354L347.172 374.536C346.976 374.731 346.66 374.731 346.464 374.536C346.269 374.34 346.269 374.024 346.464 373.828L348.793 371.5L335 371.5C334.724 371.5 334.5 371.276 334.5 371C334.5 370.724 334.724 370.5 335 370.5L348.793 370.5L346.464 368.172C346.269 367.976 346.269 367.66 346.464 367.464C346.66 367.269 346.976 367.269 347.172 367.464L350.354 370.646Z" fill="#49461F" />
        <path fill-rule="evenodd" clip-rule="evenodd" d="M350.354 224.646C350.549 224.842 350.549 225.158 350.354 225.354L347.172 228.536C346.976 228.731 346.66 228.731 346.464 228.536C346.269 228.34 346.269 228.024 346.464 227.828L348.793 225.5L335 225.5C334.724 225.5 334.5 225.276 334.5 225C334.5 224.724 334.724 224.5 335 224.5L348.793 224.5L346.464 222.172C346.269 221.976 346.269 221.66 346.464 221.464C346.66 221.269 346.976 221.269 347.172 221.464L350.354 224.646Z" fill="#49461F" />
        <path fill-rule="evenodd" clip-rule="evenodd" d="M289.354 224.646C289.549 224.842 289.549 225.158 289.354 225.354L286.172 228.536C285.976 228.731 285.66 228.731 285.464 228.536C285.269 228.34 285.269 228.024 285.464 227.828L287.793 225.5L266 225.5C265.724 225.5 265.5 225.276 265.5 225C265.5 224.724 265.724 224.5 266 224.5L287.793 224.5L285.464 222.172C285.269 221.976 285.269 221.66 285.464 221.464C285.66 221.269 285.976 221.269 286.172 221.464L289.354 224.646Z" fill="#49461F" />
        <path fill-rule="evenodd" clip-rule="evenodd" d="M291.354 274.646C291.549 274.842 291.549 275.158 291.354 275.354L288.172 278.536C287.976 278.731 287.66 278.731 287.464 278.536C287.269 278.34 287.269 278.024 287.464 277.828L289.793 275.5H266C265.724 275.5 265.5 275.276 265.5 275C265.5 274.724 265.724 274.5 266 274.5H289.793L287.464 272.172C287.269 271.976 287.269 271.66 287.464 271.464C287.66 271.269 287.976 271.269 288.172 271.464L291.354 274.646Z" fill="#49461F" />
        <path fill-rule="evenodd" clip-rule="evenodd" d="M289.354 370.646C289.549 370.842 289.549 371.158 289.354 371.354L286.172 374.536C285.976 374.731 285.66 374.731 285.464 374.536C285.269 374.34 285.269 374.024 285.464 373.828L287.793 371.5L266 371.5C265.724 371.5 265.5 371.276 265.5 371C265.5 370.724 265.724 370.5 266 370.5L287.793 370.5L285.464 368.172C285.269 367.976 285.269 367.66 285.464 367.464C285.66 367.269 285.976 367.269 286.172 367.464L289.354 370.646Z" fill="#49461F" />
        <path d="M224 172C224 170.343 225.343 169 227 169H261C262.657 169 264 170.343 264 172V188C264 189.657 262.657 191 261 191H227C225.343 191 224 189.657 224 188V172Z" fill="#409E3F" />
        <path d="M292 267C292 265.343 293.343 264 295 264H329C330.657 264 332 265.343 332 267V283C332 284.657 330.657 286 329 286H295C293.343 286 292 284.657 292 283V267Z" fill="#409E3F" />
        <path d="M353 316C353 314.343 354.343 313 356 313H390C391.657 313 393 314.343 393 316V332C393 333.657 391.657 335 390 335H356C354.343 335 353 333.657 353 332V316Z" fill="#409E3F" />
        <path d="M417 363C417 361.343 418.343 360 420 360H454C455.657 360 457 361.343 457 363V379C457 380.657 455.657 382 454 382H420C418.343 382 417 380.657 417 379V363Z" fill="#409E3F" />
        <path d="M224 363C224 361.343 225.343 360 227 360H261C262.657 360 264 361.343 264 363V379C264 380.657 262.657 382 261 382H227C225.343 382 224 380.657 224 379V363Z" fill="#409E3F" />
        <path d="M156 172C156 170.343 157.343 169 159 169H193C194.657 169 196 170.343 196 172V188C196 189.657 194.657 191 193 191H159C157.343 191 156 189.657 156 188V172Z" fill="#409E3F" />
        <path d="M155 225C155 218.925 159.925 214 166 214H186C192.075 214 197 218.925 197 225V225C197 231.075 192.075 236 186 236H166C159.925 236 155 231.075 155 225V225Z" fill="#409E3F" />
        <path d="M189 127C189 120.925 193.925 116 200 116H220C226.075 116 231 120.925 231 127V127C231 133.075 226.075 138 220 138H200C193.925 138 189 133.075 189 127V127Z" fill="#409E3F" />
        <path d="M352 225C352 218.925 356.925 214 363 214H383C389.075 214 394 218.925 394 225V225C394 231.075 389.075 236 383 236H363C356.925 236 352 231.075 352 225V225Z" fill="#409E3F" />
        <path d="M416 275C416 268.925 420.925 264 427 264H447C453.075 264 458 268.925 458 275V275C458 281.075 453.075 286 447 286H427C420.925 286 416 281.075 416 275V275Z" fill="#409E3F" />
        <path d="M352 371C352 364.925 356.925 360 363 360H383C389.075 360 394 364.925 394 371V371C394 377.075 389.075 382 383 382H363C356.925 382 352 377.075 352 371V371Z" fill="#409E3F" />
        <path d="M291 225C291 218.925 295.925 214 302 214H322C328.075 214 333 218.925 333 225V225C333 231.075 328.075 236 322 236H302C295.925 236 291 231.075 291 225V225Z" fill="#409E3F" />
        <path d="M291 371C291 364.925 295.925 360 302 360H322C328.075 360 333 364.925 333 371V371C333 377.075 328.075 382 322 382H302C295.925 382 291 377.075 291 371V371Z" fill="#409E3F" />
        <path d="M228 324C228 315.163 235.163 308 244 308V308C252.837 308 260 315.163 260 324V324C260 332.837 252.837 340 244 340V340C235.163 340 228 332.837 228 324V324Z" fill="#409E3F" />
        <path d="M485 225C485 216.163 492.163 209 501 209V209C509.837 209 517 216.163 517 225V225C517 233.837 509.837 241 501 241V241C492.163 241 485 233.837 485 225V225Z" fill="#409E3F" />
    </g>
    <path fill-rule="evenodd" clip-rule="evenodd" d="M664 0H0V498H664V0ZM100 96C97.7909 96 96 97.7909 96 100V398C96 400.209 97.7909 402 100 402H564C566.209 402 568 400.209 568 398V100C568 97.7909 566.209 96 564 96H100Z" fill="url(#paint0_radial_322_2146)" />
    <rect x="98" y="98" width="468" height="302" rx="6" stroke="#49461F" stroke-width="4" />
    <defs>
        <radialGradient id="paint0_radial_322_2146" cx="0" cy="0" r="1" gradientUnits="userSpaceOnUse" gradientTransform="translate(332 249) rotate(90) scale(249 332)">
            <stop stop-color="#F9F9F1" stop-opacity="0" />
            <stop offset="1" stop-color="#F9F9F1" />
        </radialGradient>
        <clipPath id="clip0_322_2146">
            <rect width="664" height="498" fill="white" />
        </clipPath>
    </defs>
    <style>
        @keyframes scale {
            0% {
                transform: scale(2.5);
            }
            35% {
                transform: scale(2.5);
            }
            45% {
                transform: scale(1);
            }
            55% {
                transform: scale(1);
            }
            65% {
                transform: scale(2.5);
            }
            100% {
                transform: scale(2.5);
            }
          }
          
          #diagram {
            transform-origin: center;
            animation: scale 10000ms ease-in-out;
            animation-iteration-count: infinite;
          }
    </style>
</svg>