<svg width="308" height="308" viewBox="0 0 308 308" fill="none" xmlns="http://www.w3.org/2000/svg">
    <path class="diagram" fill-rule="evenodd" clip-rule="evenodd" d="M44.7293 89.6022C44.7293 89.4131 44.8826 89.2597 45.0718 89.2597L66.9945 89.2597C67.2367 89.2597 67.4593 89.1759 67.635 89.0357C67.8107 89.1759 68.0333 89.2597 68.2755 89.2597L90.1982 89.2597C90.3874 89.2597 90.5407 89.4131 90.5407 89.6022V97.6814L88.9456 96.0862C88.8118 95.9524 88.5949 95.9524 88.4611 96.0862C88.3274 96.22 88.3274 96.4368 88.4611 96.5706L90.641 98.7505C90.7748 98.8843 90.9917 98.8843 91.1255 98.7505L93.3054 96.5706C93.4392 96.4368 93.4392 96.22 93.3054 96.0862C93.1716 95.9524 92.9547 95.9524 92.821 96.0862L91.2258 97.6814L91.2258 89.6022C91.2258 89.0347 90.7657 88.5746 90.1982 88.5746L68.2755 88.5746C68.1635 88.5746 68.064 88.5208 68.0015 88.4377C68.015 88.3712 68.0221 88.3025 68.0221 88.2321V79.326C68.0221 79.1368 67.8687 78.9835 67.6795 78.9835C67.6644 78.9835 67.6496 78.9844 67.635 78.9863C67.6204 78.9844 67.6055 78.9835 67.5904 78.9835C67.4013 78.9835 67.2479 79.1368 67.2479 79.326V88.2321C67.2479 88.3025 67.255 88.3712 67.2685 88.4377C67.206 88.5208 67.1065 88.5746 66.9945 88.5746L45.0718 88.5746C44.5043 88.5746 44.0442 89.0347 44.0442 89.6022L44.0442 97.6814L42.449 96.0862C42.3152 95.9524 42.0984 95.9524 41.9646 96.0862C41.8308 96.22 41.8308 96.4368 41.9646 96.5706L44.1445 98.7505C44.2783 98.8843 44.4952 98.8843 44.6289 98.7505L46.8089 96.5706C46.9426 96.4368 46.9426 96.22 46.8089 96.0862C46.6751 95.9524 46.4582 95.9524 46.3244 96.0862L44.7293 97.6814L44.7293 89.6022ZM44.629 128.894C44.4953 129.028 44.2784 129.028 44.1446 128.894L41.9647 126.714C41.8309 126.58 41.8309 126.364 41.9647 126.23C42.0985 126.096 42.3153 126.096 42.4491 126.23L44.0443 127.825L44.0443 115.635C44.0443 115.446 44.1976 115.293 44.3868 115.293C44.576 115.293 44.7294 115.446 44.7294 115.635L44.7294 127.825L46.3245 126.23C46.4583 126.096 46.6752 126.096 46.809 126.23C46.9427 126.364 46.9427 126.58 46.809 126.714L44.629 128.894ZM88.5503 124.659L90.7302 126.839C90.864 126.973 91.0808 126.973 91.2146 126.839L93.3945 124.659C93.5283 124.525 93.5283 124.308 93.3945 124.175C93.2608 124.041 93.0439 124.041 92.9101 124.175L91.3149 125.77L91.3149 115.635C91.3149 115.446 91.1616 115.293 90.9724 115.293C90.7832 115.293 90.6299 115.446 90.6299 115.635V125.77L89.0347 124.175C88.9009 124.041 88.684 124.041 88.5503 124.175C88.4165 124.308 88.4165 124.525 88.5503 124.659ZM208.364 137.8C208.498 137.666 208.498 137.45 208.364 137.316L206.184 135.136C206.05 135.002 205.833 135.002 205.699 135.136C205.566 135.27 205.566 135.487 205.699 135.62L207.295 137.216H195.79C195.601 137.216 195.448 137.369 195.448 137.558C195.448 137.747 195.601 137.901 195.79 137.901H207.295L205.699 139.496C205.566 139.63 205.566 139.846 205.699 139.98C205.833 140.114 206.05 140.114 206.184 139.98L208.364 137.8ZM206.184 240.002L208.364 237.822C208.498 237.689 208.498 237.472 208.364 237.338L206.184 235.158C206.05 235.024 205.833 235.024 205.699 235.158C205.566 235.292 205.566 235.509 205.699 235.642L207.295 237.238H195.79C195.601 237.238 195.448 237.391 195.448 237.58C195.448 237.769 195.601 237.923 195.79 237.923H207.295L205.699 239.518C205.566 239.652 205.566 239.869 205.699 240.002C205.833 240.136 206.05 240.136 206.184 240.002ZM254.264 137.8L252.084 139.98C251.951 140.114 251.734 140.114 251.6 139.98C251.466 139.846 251.466 139.63 251.6 139.496L253.195 137.901H238.265C238.076 137.901 237.923 137.747 237.923 137.558C237.923 137.369 238.076 137.216 238.265 137.216H253.195L251.6 135.62C251.466 135.487 251.466 135.27 251.6 135.136C251.734 135.002 251.951 135.002 252.084 135.136L254.264 137.316C254.398 137.45 254.398 137.666 254.264 137.8ZM220.771 160.283L222.951 162.463C223.085 162.597 223.302 162.597 223.436 162.463L225.615 160.283C225.749 160.15 225.749 159.933 225.615 159.799C225.482 159.665 225.265 159.665 225.131 159.799L223.536 161.394V149.204C223.536 149.015 223.383 148.862 223.193 148.862C223.004 148.862 222.851 149.015 222.851 149.204V161.394L221.256 159.799C221.122 159.665 220.905 159.665 220.771 159.799C220.637 159.933 220.637 160.15 220.771 160.283ZM179.59 214.045L181.77 216.225C181.904 216.359 181.904 216.576 181.77 216.709C181.636 216.843 181.419 216.843 181.286 216.709L179.69 215.114V228.674C179.69 228.863 179.537 229.017 179.348 229.017C179.159 229.017 179.005 228.863 179.005 228.674V215.114L177.41 216.709C177.276 216.843 177.06 216.843 176.926 216.709C176.792 216.576 176.792 216.359 176.926 216.225L179.106 214.045C179.239 213.911 179.456 213.911 179.59 214.045ZM88.5503 226.736L90.7302 228.916C90.864 229.05 91.0808 229.05 91.2146 228.916L93.3945 226.736C93.5283 226.603 93.5283 226.386 93.3945 226.252C93.2608 226.118 93.0439 226.118 92.9101 226.252L91.3149 227.847L91.3149 217.713C91.3149 217.524 91.1616 217.37 90.9724 217.37C90.7832 217.37 90.6299 217.524 90.6299 217.713V227.847L89.0347 226.252C88.9009 226.118 88.684 226.118 88.5503 226.252C88.4165 226.386 88.4165 226.603 88.5503 226.736ZM91.2146 193.292C91.0808 193.426 90.864 193.426 90.7302 193.292L88.5503 191.112C88.4165 190.978 88.4165 190.761 88.5503 190.628C88.684 190.494 88.9009 190.494 89.0347 190.628L90.6299 192.223V183.459C90.6299 183.269 90.7832 183.116 90.9724 183.116C91.1616 183.116 91.3149 183.269 91.3149 183.459L91.3149 192.223L92.9101 190.628C93.0439 190.494 93.2608 190.494 93.3945 190.628C93.5283 190.761 93.5283 190.978 93.3945 191.112L91.2146 193.292ZM103.747 205.824C103.613 205.958 103.613 206.175 103.747 206.308L105.927 208.488C106.06 208.622 106.277 208.622 106.411 208.488C106.545 208.355 106.545 208.138 106.411 208.004L104.816 206.409H136.188C136.755 206.409 137.215 205.949 137.215 205.381V180.033C137.215 179.844 137.062 179.691 136.873 179.691C136.684 179.691 136.53 179.844 136.53 180.033V205.381C136.53 205.57 136.377 205.724 136.188 205.724H104.816L106.411 204.129C106.545 203.995 106.545 203.778 106.411 203.644C106.277 203.51 106.06 203.51 105.927 203.644L103.747 205.824ZM91.2146 161.093C91.0808 161.227 90.864 161.227 90.7302 161.093L88.5503 158.913C88.4165 158.779 88.4165 158.562 88.5503 158.429C88.684 158.295 88.9009 158.295 89.0347 158.429L90.6299 160.024V154.003L90.6298 154L90.6299 153.997V148.519C90.6299 148.33 90.7832 148.177 90.9724 148.177C91.1616 148.177 91.3149 148.33 91.3149 148.519V153.658H136.188C136.755 153.658 137.215 154.118 137.215 154.685V162.079L138.811 160.484C138.944 160.35 139.161 160.35 139.295 160.484C139.429 160.618 139.429 160.835 139.295 160.968L137.115 163.148C136.981 163.282 136.764 163.282 136.631 163.148L134.451 160.968C134.317 160.835 134.317 160.618 134.451 160.484C134.585 160.35 134.801 160.35 134.935 160.484L136.53 162.079L136.53 154.685C136.53 154.496 136.377 154.343 136.188 154.343L91.3149 154.343V160.024L92.9101 158.429C93.0439 158.295 93.2608 158.295 93.3945 158.429C93.5283 158.562 93.5283 158.779 93.3945 158.913L91.2146 161.093ZM44.629 161.093C44.4953 161.227 44.2784 161.227 44.1446 161.093L41.9647 158.913C41.8309 158.779 41.8309 158.562 41.9647 158.429C42.0985 158.295 42.3153 158.295 42.4491 158.429L44.0443 160.024L44.0443 146.464C44.0443 146.275 44.1976 146.122 44.3868 146.122C44.576 146.122 44.7294 146.275 44.7294 146.464L44.7294 160.024L46.3245 158.429C46.4583 158.295 46.6752 158.295 46.809 158.429C46.9427 158.562 46.9427 158.779 46.809 158.913L44.629 161.093ZM44.0442 205.381C44.0442 205.949 44.5042 206.409 45.0718 206.409H77.8139L76.2187 208.004C76.0849 208.138 76.0849 208.355 76.2187 208.488C76.3525 208.622 76.5694 208.622 76.7031 208.488L78.8831 206.309C79.0168 206.175 79.0168 205.958 78.8831 205.824L76.7031 203.644C76.5694 203.51 76.3525 203.51 76.2187 203.644C76.0849 203.778 76.0849 203.995 76.2187 204.129L77.8139 205.724H45.0718C44.8826 205.724 44.7292 205.57 44.7292 205.381L44.7292 182.773C44.7292 182.584 44.5759 182.431 44.3867 182.431C44.1975 182.431 44.0442 182.584 44.0442 182.773L44.0442 205.381ZM179.106 146.222C179.239 146.088 179.456 146.088 179.59 146.222L181.77 148.402C181.904 148.536 181.904 148.752 181.77 148.886C181.636 149.02 181.419 149.02 181.286 148.886L179.69 147.291V196.475C179.69 196.664 179.537 196.818 179.348 196.818C179.159 196.818 179.005 196.664 179.005 196.475V147.291L177.41 148.886C177.276 149.02 177.06 149.02 176.926 148.886C176.792 148.752 176.792 148.536 176.926 148.402L179.106 146.222ZM161.653 240.002L163.833 237.822C163.967 237.689 163.967 237.472 163.833 237.338L161.653 235.158C161.52 235.024 161.303 235.024 161.169 235.158C161.035 235.292 161.035 235.509 161.169 235.642L162.764 237.238H153.315C153.126 237.238 152.972 237.391 152.972 237.58C152.972 237.769 153.126 237.923 153.315 237.923H162.764L161.169 239.518C161.035 239.652 161.035 239.869 161.169 240.002C161.303 240.136 161.52 240.136 161.653 240.002ZM163.833 137.316C163.967 137.45 163.967 137.666 163.833 137.8L161.653 139.98C161.52 140.114 161.303 140.114 161.169 139.98C161.035 139.846 161.035 139.63 161.169 139.496L162.764 137.901H153.315C153.126 137.901 152.972 137.747 152.972 137.558C152.972 137.369 153.126 137.216 153.315 137.216H162.764L161.169 135.62C161.035 135.487 161.035 135.27 161.169 135.136C161.303 135.002 161.52 135.002 161.653 135.136L163.833 137.316ZM122.043 137.8C122.177 137.666 122.177 137.45 122.043 137.316L119.863 135.136C119.73 135.002 119.513 135.002 119.379 135.136C119.245 135.27 119.245 135.487 119.379 135.62L120.974 137.216H106.044C105.855 137.216 105.702 137.369 105.702 137.558C105.702 137.747 105.855 137.901 106.044 137.901L120.974 137.901L119.379 139.496C119.245 139.63 119.245 139.846 119.379 139.98C119.513 140.114 119.73 140.114 119.863 139.98L122.043 137.8ZM123.414 172.054L121.234 174.234C121.1 174.368 120.883 174.368 120.749 174.234C120.615 174.101 120.615 173.884 120.749 173.75L122.344 172.155H106.044C105.855 172.155 105.702 172.001 105.702 171.812C105.702 171.623 105.855 171.47 106.044 171.47H122.344L120.749 169.874C120.615 169.741 120.615 169.524 120.749 169.39C120.883 169.256 121.1 169.256 121.234 169.39L123.414 171.57C123.547 171.704 123.547 171.921 123.414 172.054ZM119.863 240.002L122.043 237.822C122.177 237.689 122.177 237.472 122.043 237.338L119.863 235.158C119.73 235.024 119.513 235.024 119.379 235.158C119.245 235.292 119.245 235.509 119.379 235.642L120.974 237.238H106.044C105.855 237.238 105.702 237.391 105.702 237.58C105.702 237.769 105.855 237.923 106.044 237.923H120.974L119.379 239.518C119.245 239.652 119.245 239.869 119.379 240.002C119.513 240.136 119.73 240.136 119.863 240.002Z" fill="#2C393A" opacity="0.6" />
    <path class="diagram" fill-rule="evenodd" clip-rule="evenodd" d="M53.2928 70.4199C53.2928 66.2579 56.6668 62.884 60.8288 62.884H74.5304C78.6924 62.884 82.0663 66.2579 82.0663 70.4199C82.0663 74.5819 78.6924 77.9558 74.5304 77.9558H60.8288C56.6668 77.9558 53.2928 74.5819 53.2928 70.4199ZM79.326 99.1934C78.1909 99.1934 77.2708 100.114 77.2708 101.249V112.21C77.2708 113.345 78.1909 114.265 79.326 114.265H102.619C103.754 114.265 104.674 113.345 104.674 112.21V101.249C104.674 100.114 103.754 99.1934 102.619 99.1934H79.326ZM224.646 128.189C223.757 127.634 222.63 127.634 221.741 128.189L210.469 135.234C208.752 136.307 208.752 138.808 210.469 139.882L221.741 146.927C222.63 147.482 223.757 147.482 224.646 146.927L235.917 139.882C237.634 138.808 237.634 136.307 235.917 135.234L224.646 128.189ZM42.9344 162.444C43.823 161.888 44.9505 161.888 45.8391 162.444L57.1107 169.488C58.8279 170.562 58.8279 173.063 57.1107 174.136L45.8391 181.181C44.9505 181.736 43.823 181.736 42.9344 181.181L31.6628 174.136C29.9456 173.063 29.9456 170.562 31.6628 169.488L42.9344 162.444ZM89.52 162.444C90.4086 161.888 91.5361 161.888 92.4247 162.444L103.696 169.488C105.414 170.562 105.414 173.063 103.696 174.136L92.4247 181.181C91.5361 181.736 90.4086 181.736 89.52 181.181L78.2484 174.136C76.5311 173.063 76.5311 170.562 78.2484 169.488L89.52 162.444ZM89.52 128.189C90.4086 127.634 91.5361 127.634 92.4247 128.189L103.696 135.234C105.414 136.307 105.414 138.808 103.696 139.882L92.4247 146.927C91.5361 147.482 90.4086 147.482 89.52 146.927L78.2484 139.882C76.5311 138.808 76.5311 136.307 78.2484 135.234L89.52 128.189ZM123.856 166.331C123.856 165.196 124.777 164.276 125.912 164.276H149.205C150.34 164.276 151.26 165.196 151.26 166.331V177.293C151.26 178.428 150.34 179.348 149.205 179.348H125.912C124.777 179.348 123.856 178.428 123.856 177.293V166.331ZM167.702 197.845C166.567 197.845 165.646 198.766 165.646 199.901V210.862C165.646 211.997 166.567 212.917 167.702 212.917H190.995C192.13 212.917 193.05 211.997 193.05 210.862V199.901C193.05 198.766 192.13 197.845 190.995 197.845H167.702ZM209.492 232.099C209.492 230.964 210.412 230.044 211.547 230.044H234.84C235.975 230.044 236.895 230.964 236.895 232.099V243.061C236.895 244.196 235.975 245.116 234.84 245.116H211.547C210.412 245.116 209.492 244.196 209.492 243.061V232.099ZM79.326 230.044C78.1909 230.044 77.2708 230.964 77.2708 232.099V243.061C77.2708 244.196 78.1909 245.116 79.326 245.116H102.619C103.754 245.116 104.674 244.196 104.674 243.061V232.099C104.674 230.964 103.754 230.044 102.619 230.044H79.326ZM30.6851 101.249C30.6851 100.114 31.6052 99.1934 32.7403 99.1934H56.0331C57.1682 99.1934 58.0884 100.114 58.0884 101.249V112.21C58.0884 113.345 57.1682 114.265 56.0331 114.265H32.7403C31.6052 114.265 30.6851 113.345 30.6851 112.21V101.249ZM37.5359 130.022C33.3739 130.022 30 133.396 30 137.558C30 141.72 33.3739 145.094 37.5359 145.094H51.2376C55.3995 145.094 58.7735 141.72 58.7735 137.558C58.7735 133.396 55.3995 130.022 51.2376 130.022H37.5359ZM172.497 130.022C168.335 130.022 164.961 133.396 164.961 137.558C164.961 141.72 168.335 145.094 172.497 145.094H186.199C190.361 145.094 193.735 141.72 193.735 137.558C193.735 133.396 190.361 130.022 186.199 130.022H172.497ZM208.807 171.812C208.807 167.65 212.181 164.276 216.343 164.276H230.044C234.206 164.276 237.58 167.65 237.58 171.812C237.58 175.974 234.206 179.348 230.044 179.348H216.343C212.181 179.348 208.807 175.974 208.807 171.812ZM172.497 230.044C168.335 230.044 164.961 233.418 164.961 237.58C164.961 241.742 168.335 245.116 172.497 245.116H186.199C190.361 245.116 193.735 241.742 193.735 237.58C193.735 233.418 190.361 230.044 186.199 230.044H172.497ZM123.171 137.558C123.171 133.396 126.545 130.022 130.707 130.022H144.409C148.571 130.022 151.945 133.396 151.945 137.558C151.945 141.72 148.571 145.094 144.409 145.094H130.707C126.545 145.094 123.171 141.72 123.171 137.558ZM130.707 230.044C126.545 230.044 123.171 233.418 123.171 237.58C123.171 241.742 126.545 245.116 130.707 245.116H144.409C148.571 245.116 151.945 241.742 151.945 237.58C151.945 233.418 148.571 230.044 144.409 230.044H130.707ZM80.0111 205.381C80.0111 199.327 84.9187 194.42 90.9724 194.42C97.0262 194.42 101.934 199.327 101.934 205.381C101.934 211.435 97.0262 216.343 90.9724 216.343C84.9187 216.343 80.0111 211.435 80.0111 205.381ZM267.039 126.597C260.985 126.597 256.077 131.504 256.077 137.558C256.077 143.612 260.985 148.519 267.039 148.519C273.092 148.519 278 143.612 278 137.558C278 131.504 273.092 126.597 267.039 126.597Z" fill="#ECD437" />

    <style>
        @keyframes scale {
            0% {
                transform: scale(1);
            }
            46% {
                transform: scale(1);
            }
            50% {
                transform: scale(3);
            }
            96% {
                transform: scale(3);
            }
            100% {
                transform: scale(1);
            }
          }
          
          .diagram {
            transform-origin: center;
            animation: scale 10s cubic-bezier(0,.5,.5,1);
            animation-iteration-count: infinite;
          }
    </style>
</svg>